<?xml version="1.0" encoding="utf-8" standalone="no"?>
<!DOCTYPE svg PUBLIC "-//W3C//DTD SVG 1.1//EN"
  "http://www.w3.org/Graphics/SVG/1.1/DTD/svg11.dtd">
<!-- Created with matplotlib (https://matplotlib.org/) -->
<svg height="296.39952pt" version="1.1" viewBox="0 0 512.39952 296.39952" width="512.39952pt" xmlns="http://www.w3.org/2000/svg" xmlns:xlink="http://www.w3.org/1999/xlink">
 <metadata>
  <rdf:RDF xmlns:cc="http://creativecommons.org/ns#" xmlns:dc="http://purl.org/dc/elements/1.1/" xmlns:rdf="http://www.w3.org/1999/02/22-rdf-syntax-ns#">
   <cc:Work>
    <dc:type rdf:resource="http://purl.org/dc/dcmitype/StillImage"/>
    <dc:date>2020-07-27T02:06:28.550136</dc:date>
    <dc:format>image/svg+xml</dc:format>
    <dc:creator>
     <cc:Agent>
      <dc:title>Matplotlib v3.3.0, https://matplotlib.org/</dc:title>
     </cc:Agent>
    </dc:creator>
   </cc:Work>
  </rdf:RDF>
 </metadata>
 <defs>
  <style type="text/css">*{stroke-linecap:butt;stroke-linejoin:round;}</style>
 </defs>
 <g id="figure_1">
  <g id="patch_1">
   <path d="M 0 296.39952 
L 512.39952 296.39952 
L 512.39952 0 
L 0 0 
z
" style="fill:#ffffff;"/>
  </g>
  <g id="axes_1">
   <g id="patch_2">
    <path d="M 55.6375 237.69952 
L 443.602645 237.69952 
L 443.602645 7.2 
L 55.6375 7.2 
z
" style="fill:#ffffff;"/>
   </g>
   <g id="matplotlib.axis_1">
    <g id="xtick_1">
     <g id="line2d_1">
      <path clip-path="url(#pc9ce352508)" d="M 55.6375 237.69952 
L 55.6375 7.2 
" style="fill:none;stroke:#808080;stroke-dasharray:4.144,1.792;stroke-dashoffset:0;stroke-opacity:0.2;stroke-width:1.12;"/>
     </g>
     <g id="line2d_2">
      <defs>
       <path d="M 0 0 
L 0 6 
" id="m9e1d7ffd98" style="stroke:#3f3d46;stroke-width:0.8;"/>
      </defs>
      <g>
       <use style="fill:#3f3d46;stroke:#3f3d46;stroke-width:0.8;" x="55.6375" xlink:href="#m9e1d7ffd98" y="237.69952"/>
      </g>
     </g>
     <g id="text_1">
      <!-- 0.0 -->
      <g style="fill:#3f3d46;" transform="translate(43.648438 263.79952)scale(0.2 -0.2)">
       <defs>
        <path d="M 25.09375 -1.296875 
Q 19.09375 -1.296875 14.4375 2.796875 
Q 9.796875 6.90625 7.25 14.296875 
Q 4.703125 21.703125 4.703125 31.296875 
Q 4.703125 40.796875 7.296875 48.140625 
Q 9.90625 55.5 14.546875 59.59375 
Q 19.203125 63.703125 25.296875 63.703125 
Q 31.203125 63.703125 35.75 59.59375 
Q 40.296875 55.5 42.796875 48.046875 
Q 45.296875 40.59375 45.296875 31 
Q 45.296875 21.5 42.75 14.140625 
Q 40.203125 6.796875 35.59375 2.75 
Q 31 -1.296875 25.09375 -1.296875 
z
M 26.296875 0.09375 
Q 32.296875 0.09375 35.25 7.84375 
Q 38.203125 15.59375 38.203125 29.796875 
Q 38.203125 45.796875 34.296875 54.09375 
Q 30.40625 62.40625 24.203125 62.40625 
Q 18.203125 62.40625 14.953125 54.203125 
Q 11.703125 46 11.703125 32 
Q 11.703125 17.296875 15.59375 8.6875 
Q 19.5 0.09375 26.296875 0.09375 
z
" id="CormorantInfant-Regular-48"/>
        <path d="M 9.90625 -1.09375 
Q 7.90625 -1.09375 6.703125 0.09375 
Q 5.5 1.296875 5.5 3.203125 
Q 5.5 5.09375 6.703125 6.25 
Q 7.90625 7.40625 9.90625 7.40625 
Q 12 7.40625 13.140625 6.296875 
Q 14.296875 5.203125 14.296875 3.203125 
Q 14.296875 1.203125 13.140625 0.046875 
Q 12 -1.09375 9.90625 -1.09375 
z
" id="CormorantInfant-Regular-46"/>
       </defs>
       <use xlink:href="#CormorantInfant-Regular-48"/>
       <use x="50.099991" xlink:href="#CormorantInfant-Regular-46"/>
       <use x="69.799988" xlink:href="#CormorantInfant-Regular-48"/>
      </g>
     </g>
    </g>
    <g id="xtick_2">
     <g id="line2d_3">
      <path clip-path="url(#pc9ce352508)" d="M 152.628786 237.69952 
L 152.628786 7.2 
" style="fill:none;stroke:#808080;stroke-dasharray:4.144,1.792;stroke-dashoffset:0;stroke-opacity:0.2;stroke-width:1.12;"/>
     </g>
     <g id="line2d_4">
      <g>
       <use style="fill:#3f3d46;stroke:#3f3d46;stroke-width:0.8;" x="152.628786" xlink:href="#m9e1d7ffd98" y="237.69952"/>
      </g>
     </g>
     <g id="text_2">
      <!-- 0.5 -->
      <g style="fill:#3f3d46;" transform="translate(141.199099 263.79952)scale(0.2 -0.2)">
       <defs>
        <path d="M 20.796875 37.5 
Q 29.59375 37.5 34.640625 32.640625 
Q 39.703125 27.796875 39.703125 18.796875 
Q 39.703125 9.296875 34.203125 4.046875 
Q 28.703125 -1.203125 20.203125 -1.203125 
Q 15.5 -1.203125 11.796875 0.640625 
Q 8.09375 2.5 4.90625 6.296875 
L 4.796875 6.5 
Q 4.796875 6.90625 5.1875 7.15625 
Q 5.59375 7.40625 5.796875 7.09375 
Q 8.203125 4.296875 11.546875 2.890625 
Q 14.90625 1.5 18.703125 1.5 
Q 25.796875 1.5 29.296875 5.953125 
Q 32.796875 10.40625 32.796875 17.703125 
Q 32.796875 25.5 28.890625 30.046875 
Q 25 34.59375 16.90625 34.59375 
Q 14.703125 34.59375 12.140625 34.25 
Q 9.59375 33.90625 8 33.296875 
Q 7.5 33.296875 7.203125 33.640625 
Q 6.90625 34 7 34.5 
L 10.203125 61.296875 
Q 10.296875 62 10.5 62.25 
Q 10.703125 62.5 11.5 62.5 
Q 25 62.5 29.453125 62.640625 
Q 33.90625 62.796875 35.25 63.296875 
Q 36.59375 63.796875 37.40625 65.40625 
Q 37.40625 65.59375 37.796875 65.59375 
Q 38.09375 65.59375 38.34375 65.4375 
Q 38.59375 65.296875 38.5 65.09375 
L 37.203125 58.5 
Q 36.90625 57.40625 36.34375 57.046875 
Q 35.796875 56.703125 34.5 56.703125 
L 13.796875 57.203125 
Q 12.5 57.203125 12.296875 55.796875 
L 9.90625 35.90625 
Q 15.40625 37.5 20.796875 37.5 
z
" id="CormorantInfant-Regular-53"/>
       </defs>
       <use xlink:href="#CormorantInfant-Regular-48"/>
       <use x="50.099991" xlink:href="#CormorantInfant-Regular-46"/>
       <use x="69.799988" xlink:href="#CormorantInfant-Regular-53"/>
      </g>
     </g>
    </g>
    <g id="xtick_3">
     <g id="line2d_5">
      <path clip-path="url(#pc9ce352508)" d="M 249.620073 237.69952 
L 249.620073 7.2 
" style="fill:none;stroke:#808080;stroke-dasharray:4.144,1.792;stroke-dashoffset:0;stroke-opacity:0.2;stroke-width:1.12;"/>
     </g>
     <g id="line2d_6">
      <g>
       <use style="fill:#3f3d46;stroke:#3f3d46;stroke-width:0.8;" x="249.620073" xlink:href="#m9e1d7ffd98" y="237.69952"/>
      </g>
     </g>
     <g id="text_3">
      <!-- 1.0 -->
      <g style="fill:#3f3d46;" transform="translate(238.73101 263.79952)scale(0.2 -0.2)">
       <defs>
        <path d="M 7.09375 0 
Q 6.90625 0 6.90625 0.59375 
Q 6.90625 1.203125 7.09375 1.203125 
Q 11.796875 1.203125 14.09375 1.75 
Q 16.40625 2.296875 17.34375 3.6875 
Q 18.296875 5.09375 18.296875 8.09375 
L 18.296875 49.296875 
Q 18.296875 54.59375 15.59375 54.59375 
Q 13.09375 54.59375 6.703125 49.796875 
L 6.5 49.703125 
Q 6.09375 49.703125 5.890625 50.203125 
Q 5.703125 50.703125 6.09375 50.90625 
L 22.796875 63.203125 
Q 23.296875 63.5 23.5 63.5 
Q 23.703125 63.5 23.890625 63.296875 
Q 24.09375 63.09375 24.09375 62.90625 
L 24.09375 8.09375 
Q 24.09375 5.09375 24.890625 3.640625 
Q 25.703125 2.203125 28 1.703125 
Q 30.296875 1.203125 35.203125 1.203125 
Q 35.40625 1.203125 35.40625 0.59375 
Q 35.40625 0 35.203125 0 
Q 31.5 0 29.40625 0.09375 
L 21.203125 0.203125 
L 13.09375 0.09375 
Q 10.90625 0 7.09375 0 
z
" id="CormorantInfant-Regular-49"/>
       </defs>
       <use xlink:href="#CormorantInfant-Regular-49"/>
       <use x="39.099991" xlink:href="#CormorantInfant-Regular-46"/>
       <use x="58.799988" xlink:href="#CormorantInfant-Regular-48"/>
      </g>
     </g>
    </g>
    <g id="xtick_4">
     <g id="line2d_7">
      <path clip-path="url(#pc9ce352508)" d="M 346.611359 237.69952 
L 346.611359 7.2 
" style="fill:none;stroke:#808080;stroke-dasharray:4.144,1.792;stroke-dashoffset:0;stroke-opacity:0.2;stroke-width:1.12;"/>
     </g>
     <g id="line2d_8">
      <g>
       <use style="fill:#3f3d46;stroke:#3f3d46;stroke-width:0.8;" x="346.611359" xlink:href="#m9e1d7ffd98" y="237.69952"/>
      </g>
     </g>
     <g id="text_4">
      <!-- 1.5 -->
      <g style="fill:#3f3d46;" transform="translate(336.281671 263.79952)scale(0.2 -0.2)">
       <use xlink:href="#CormorantInfant-Regular-49"/>
       <use x="39.099991" xlink:href="#CormorantInfant-Regular-46"/>
       <use x="58.799988" xlink:href="#CormorantInfant-Regular-53"/>
      </g>
     </g>
    </g>
    <g id="xtick_5">
     <g id="line2d_9">
      <path clip-path="url(#pc9ce352508)" d="M 443.602645 237.69952 
L 443.602645 7.2 
" style="fill:none;stroke:#808080;stroke-dasharray:4.144,1.792;stroke-dashoffset:0;stroke-opacity:0.2;stroke-width:1.12;"/>
     </g>
     <g id="line2d_10">
      <g>
       <use style="fill:#3f3d46;stroke:#3f3d46;stroke-width:0.8;" x="443.602645" xlink:href="#m9e1d7ffd98" y="237.69952"/>
      </g>
     </g>
     <g id="text_5">
      <!-- 2.0 -->
      <g style="fill:#3f3d46;" transform="translate(432.14327 263.79952)scale(0.2 -0.2)">
       <defs>
        <path d="M 4 0 
Q 3.5 0 3.140625 0.5 
Q 2.796875 1 3.203125 1.296875 
Q 7 6.09375 9 8.40625 
Q 16.296875 17.296875 20.5 23.09375 
Q 24.703125 28.90625 27.59375 35.046875 
Q 30.5 41.203125 30.5 46.796875 
Q 30.5 52.703125 27.390625 56.046875 
Q 24.296875 59.40625 18.703125 59.40625 
Q 13.703125 59.40625 10.203125 56.546875 
Q 6.703125 53.703125 5 48.40625 
Q 5 48.296875 4.59375 48.296875 
Q 3.796875 48.296875 3.90625 48.703125 
Q 5.296875 55.796875 10 59.6875 
Q 14.703125 63.59375 21.59375 63.59375 
Q 28.796875 63.59375 32.9375 59.4375 
Q 37.09375 55.296875 37.09375 48.796875 
Q 37.09375 43 33.890625 36.796875 
Q 30.703125 30.59375 26.5 25.390625 
Q 22.296875 20.203125 16.09375 13.40625 
Q 15.203125 12.40625 12.953125 9.953125 
Q 10.703125 7.5 9.59375 5.90625 
Q 9.09375 5.203125 10 5.203125 
Q 23 5.203125 28.390625 5.546875 
Q 33.796875 5.90625 36 7.34375 
Q 38.203125 8.796875 38.296875 12.09375 
Q 38.296875 12.296875 38.84375 12.296875 
Q 39.40625 12.296875 39.40625 12.09375 
L 39.296875 1.09375 
Q 39.296875 0.703125 39.046875 0.34375 
Q 38.796875 0 38.40625 0 
L 4 0 
z
" id="CormorantInfant-Regular-50"/>
       </defs>
       <use xlink:href="#CormorantInfant-Regular-50"/>
       <use x="44.799988" xlink:href="#CormorantInfant-Regular-46"/>
       <use x="64.499985" xlink:href="#CormorantInfant-Regular-48"/>
      </g>
     </g>
    </g>
    <g id="text_6">
     <!-- $R/R_p$   , [$R_p=101$px] -->
     <g style="fill:#3f3d46;" transform="translate(180.920073 284.54952)scale(0.15 -0.15)">
      <defs>
       <path d="M 25.203125 64.796875 
L 20.21875 38.921875 
L 32.90625 38.921875 
Q 40.375 38.921875 44.984375 43.046875 
Q 49.609375 47.171875 49.609375 53.8125 
Q 49.609375 59.125 46.5 61.953125 
Q 43.40625 64.796875 37.59375 64.796875 
z
M 43.3125 35.015625 
Q 46.4375 34.28125 48.515625 31.390625 
Q 50.59375 28.515625 53.328125 19.921875 
L 59.515625 0 
L 49.125 0 
L 43.40625 18.703125 
Q 41.21875 25.921875 38.328125 28.359375 
Q 35.453125 30.8125 29.5 30.8125 
L 18.609375 30.8125 
L 12.59375 0 
L 2.6875 0 
L 16.890625 72.90625 
L 39.109375 72.90625 
Q 49.21875 72.90625 54.609375 68.328125 
Q 60.015625 63.765625 60.015625 55.171875 
Q 60.015625 47.5625 55.421875 41.984375 
Q 50.828125 36.421875 43.3125 35.015625 
z
" id="DejaVuSans-Oblique-82"/>
       <path d="M 25.390625 72.90625 
L 33.6875 72.90625 
L 8.296875 -9.28125 
L 0 -9.28125 
z
" id="DejaVuSans-47"/>
       <path d="M 49.609375 33.6875 
Q 49.609375 40.875 46.484375 44.671875 
Q 43.359375 48.484375 37.5 48.484375 
Q 33.5 48.484375 29.859375 46.4375 
Q 26.21875 44.390625 23.390625 40.484375 
Q 20.609375 36.625 18.9375 31.15625 
Q 17.28125 25.6875 17.28125 20.3125 
Q 17.28125 13.484375 20.40625 9.796875 
Q 23.53125 6.109375 29.296875 6.109375 
Q 33.546875 6.109375 37.1875 8.109375 
Q 40.828125 10.109375 43.40625 13.921875 
Q 46.1875 17.921875 47.890625 23.34375 
Q 49.609375 28.765625 49.609375 33.6875 
z
M 21.78125 46.390625 
Q 25.390625 51.125 30.296875 53.5625 
Q 35.203125 56 41.21875 56 
Q 49.609375 56 54.25 50.5 
Q 58.890625 45.015625 58.890625 35.109375 
Q 58.890625 27 56 19.65625 
Q 53.125 12.3125 47.703125 6.5 
Q 44.09375 2.640625 39.546875 0.609375 
Q 35.015625 -1.421875 29.984375 -1.421875 
Q 24.171875 -1.421875 20.21875 1 
Q 16.265625 3.421875 14.3125 8.203125 
L 8.6875 -20.796875 
L -0.296875 -20.796875 
L 14.40625 54.6875 
L 23.390625 54.6875 
z
" id="DejaVuSans-Oblique-112"/>
       <path id="CormorantInfant-Regular-32"/>
       <path d="M 10.203125 7.09375 
Q 13.203125 7.09375 14.890625 4.890625 
Q 16.59375 2.703125 16.59375 -1.59375 
Q 16.59375 -6.09375 14.6875 -10.09375 
Q 12.796875 -14.09375 9.09375 -18.09375 
Q 9 -18.203125 8.796875 -18.203125 
Q 8.5 -18.203125 8.296875 -17.890625 
Q 8.09375 -17.59375 8.296875 -17.40625 
Q 10.5 -14.296875 11.296875 -11.5 
Q 12.09375 -8.703125 12.09375 -5.203125 
Q 12.09375 -2.703125 11.203125 -0.5 
Q 10.5 -0.796875 9.59375 -0.796875 
Q 7.703125 -0.796875 6.640625 0.25 
Q 5.59375 1.296875 5.59375 3.09375 
Q 5.59375 7.09375 10.203125 7.09375 
z
" id="CormorantInfant-Regular-44"/>
       <path d="M 8.796875 71.5 
Q 8.796875 72.203125 8.9375 72.34375 
Q 9.09375 72.5 9.703125 72.5 
L 23.59375 72.5 
Q 23.90625 72.5 23.90625 71.890625 
Q 23.90625 71.296875 23.59375 71.296875 
Q 19.703125 71.296875 17.84375 70.6875 
Q 16 70.09375 15.34375 68.640625 
Q 14.703125 67.203125 14.703125 64.203125 
L 14.703125 -3.40625 
Q 14.703125 -6.40625 15.34375 -7.84375 
Q 16 -9.296875 17.84375 -9.890625 
Q 19.703125 -10.5 23.59375 -10.5 
Q 23.90625 -10.5 23.90625 -11.09375 
Q 23.90625 -11.703125 23.59375 -11.703125 
L 9.703125 -11.703125 
Q 9.09375 -11.703125 8.9375 -11.5 
Q 8.796875 -11.296875 8.796875 -10.59375 
z
" id="CormorantInfant-Regular-91"/>
       <path d="M 10.59375 45.40625 
L 73.1875 45.40625 
L 73.1875 37.203125 
L 10.59375 37.203125 
z
M 10.59375 25.484375 
L 73.1875 25.484375 
L 73.1875 17.1875 
L 10.59375 17.1875 
z
" id="DejaVuSans-61"/>
       <path d="M 12.40625 8.296875 
L 28.515625 8.296875 
L 28.515625 63.921875 
L 10.984375 60.40625 
L 10.984375 69.390625 
L 28.421875 72.90625 
L 38.28125 72.90625 
L 38.28125 8.296875 
L 54.390625 8.296875 
L 54.390625 0 
L 12.40625 0 
z
" id="DejaVuSans-49"/>
       <path d="M 31.78125 66.40625 
Q 24.171875 66.40625 20.328125 58.90625 
Q 16.5 51.421875 16.5 36.375 
Q 16.5 21.390625 20.328125 13.890625 
Q 24.171875 6.390625 31.78125 6.390625 
Q 39.453125 6.390625 43.28125 13.890625 
Q 47.125 21.390625 47.125 36.375 
Q 47.125 51.421875 43.28125 58.90625 
Q 39.453125 66.40625 31.78125 66.40625 
z
M 31.78125 74.21875 
Q 44.046875 74.21875 50.515625 64.515625 
Q 56.984375 54.828125 56.984375 36.375 
Q 56.984375 17.96875 50.515625 8.265625 
Q 44.046875 -1.421875 31.78125 -1.421875 
Q 19.53125 -1.421875 13.0625 8.265625 
Q 6.59375 17.96875 6.59375 36.375 
Q 6.59375 54.828125 13.0625 64.515625 
Q 19.53125 74.21875 31.78125 74.21875 
z
" id="DejaVuSans-48"/>
       <path d="M 31.90625 39.90625 
Q 36 39.90625 39.5 37.703125 
Q 43 35.5 45.09375 31.296875 
Q 47.203125 27.09375 47.203125 21.5 
Q 47.203125 14 43.796875 8.84375 
Q 40.40625 3.703125 35.453125 1.203125 
Q 30.5 -1.296875 25.703125 -1.296875 
Q 22.59375 -1.296875 20.140625 -0.6875 
Q 17.703125 -0.09375 15.09375 1.296875 
L 15.09375 -19.40625 
Q 15.09375 -22.40625 15.84375 -23.796875 
Q 16.59375 -25.203125 18.6875 -25.75 
Q 20.796875 -26.296875 25.09375 -26.296875 
Q 25.296875 -26.296875 25.296875 -26.890625 
Q 25.296875 -27.5 25.09375 -27.5 
Q 21.703125 -27.5 19.703125 -27.40625 
L 12.40625 -27.296875 
L 6.90625 -27.40625 
Q 5.5 -27.5 3.203125 -27.5 
Q 2.90625 -27.5 2.90625 -26.890625 
Q 2.90625 -26.296875 3.203125 -26.296875 
Q 5.90625 -26.296875 7.203125 -25.75 
Q 8.5 -25.203125 9 -23.796875 
Q 9.5 -22.40625 9.5 -19.40625 
L 9.5 27.59375 
Q 9.5 31.203125 8.703125 32.75 
Q 7.90625 34.296875 5.90625 34.296875 
Q 3.703125 34.296875 0.59375 32.90625 
L 0.40625 32.796875 
Q 0 32.796875 -0.140625 33.296875 
Q -0.296875 33.796875 0 34 
L 11.09375 39.296875 
Q 11.296875 39.40625 11.796875 39.40625 
Q 13.203125 39.40625 14.09375 37.296875 
Q 15 35.203125 15.09375 31.296875 
Q 23.59375 39.90625 31.90625 39.90625 
z
M 28.703125 0.796875 
Q 34 0.796875 37.390625 5.4375 
Q 40.796875 10.09375 40.796875 18.40625 
Q 40.796875 26.796875 37.09375 31.4375 
Q 33.40625 36.09375 27.703125 36.09375 
Q 24.203125 36.09375 21.203125 34.390625 
Q 18.203125 32.703125 15.09375 29.59375 
L 15.09375 7.09375 
Q 17.796875 4 21 2.390625 
Q 24.203125 0.796875 28.703125 0.796875 
z
" id="CormorantInfant-Regular-112"/>
       <path d="M 42.703125 1.203125 
Q 42.90625 1.203125 42.90625 0.59375 
Q 42.90625 0 42.703125 0 
L 39.5 0.09375 
Q 38.40625 0.203125 36.296875 0.203125 
L 29.90625 0.09375 
Q 28.40625 0 25.90625 0 
Q 25.59375 0 25.59375 0.59375 
Q 25.59375 1.203125 25.90625 1.203125 
Q 27.703125 1.203125 28.453125 1.453125 
Q 29.203125 1.703125 29.203125 2.40625 
Q 29.203125 3.296875 28 5.09375 
L 20.40625 16.59375 
L 14.40625 8 
Q 12.40625 5 12.40625 3.59375 
Q 12.40625 2.40625 13.75 1.796875 
Q 15.09375 1.203125 18.09375 1.203125 
Q 18.40625 1.203125 18.40625 0.59375 
Q 18.40625 0 18.09375 0 
Q 15.40625 0 14.09375 0.09375 
L 8.09375 0.203125 
L 4.5 0.09375 
Q 3.5 0 1.296875 0 
Q 1.09375 0 1.09375 0.59375 
Q 1.09375 1.203125 1.296875 1.203125 
Q 3.90625 1.203125 6.953125 3.09375 
Q 10 5 12.59375 8.59375 
L 19.40625 18.09375 
L 11.296875 30.296875 
Q 8.90625 34 6.296875 35.703125 
Q 3.703125 37.40625 1.59375 37.40625 
Q 1.40625 37.40625 1.40625 38 
Q 1.40625 38.59375 1.59375 38.59375 
Q 3.703125 38.59375 4.703125 38.5 
L 7.796875 38.40625 
L 14.203125 38.5 
Q 15.59375 38.59375 18.09375 38.59375 
Q 18.296875 38.59375 18.296875 38 
Q 18.296875 37.40625 18.09375 37.40625 
Q 16.40625 37.40625 15.59375 37.15625 
Q 14.796875 36.90625 14.796875 36.203125 
Q 14.796875 35.5 16.09375 33.5 
L 23 23.09375 
L 28.09375 30.59375 
Q 30.203125 33.703125 30.203125 35.09375 
Q 30.203125 36.296875 28.84375 36.84375 
Q 27.5 37.40625 24.40625 37.40625 
Q 24.203125 37.40625 24.203125 38 
Q 24.203125 38.59375 24.40625 38.59375 
Q 27.09375 38.59375 28.5 38.5 
L 34.5 38.40625 
L 38.09375 38.5 
Q 39.09375 38.59375 41.296875 38.59375 
Q 41.5 38.59375 41.5 38 
Q 41.5 37.40625 41.296875 37.40625 
Q 38.59375 37.40625 35.640625 35.546875 
Q 32.703125 33.703125 30 30 
L 23.90625 21.703125 
L 32.796875 8.296875 
Q 35.296875 4.5 37.9375 2.84375 
Q 40.59375 1.203125 42.703125 1.203125 
z
" id="CormorantInfant-Regular-120"/>
       <path d="M 18.59375 -10.59375 
Q 18.59375 -11.296875 18.4375 -11.5 
Q 18.296875 -11.703125 17.703125 -11.703125 
L 3.796875 -11.703125 
Q 3.5 -11.703125 3.5 -11.09375 
Q 3.5 -10.5 3.796875 -10.5 
Q 7.703125 -10.5 9.546875 -9.890625 
Q 11.40625 -9.296875 12.046875 -7.84375 
Q 12.703125 -6.40625 12.703125 -3.40625 
L 12.703125 64.203125 
Q 12.703125 67.203125 12.046875 68.640625 
Q 11.40625 70.09375 9.546875 70.6875 
Q 7.703125 71.296875 3.796875 71.296875 
Q 3.5 71.296875 3.5 71.890625 
Q 3.5 72.5 3.796875 72.5 
L 17.703125 72.5 
Q 18.296875 72.5 18.4375 72.34375 
Q 18.59375 72.203125 18.59375 71.5 
L 18.59375 -10.59375 
z
" id="CormorantInfant-Regular-93"/>
      </defs>
      <use transform="translate(0 0.78125)" xlink:href="#DejaVuSans-Oblique-82"/>
      <use transform="translate(69.482422 0.78125)" xlink:href="#DejaVuSans-47"/>
      <use transform="translate(103.173828 0.78125)" xlink:href="#DejaVuSans-Oblique-82"/>
      <use transform="translate(172.65625 -15.625)scale(0.7)" xlink:href="#DejaVuSans-Oblique-112"/>
      <use transform="translate(219.824219 0.78125)" xlink:href="#CormorantInfant-Regular-32"/>
      <use transform="translate(243.224213 0.78125)" xlink:href="#CormorantInfant-Regular-32"/>
      <use transform="translate(266.624207 0.78125)" xlink:href="#CormorantInfant-Regular-32"/>
      <use transform="translate(290.0242 0.78125)" xlink:href="#CormorantInfant-Regular-44"/>
      <use transform="translate(312.224197 0.78125)" xlink:href="#CormorantInfant-Regular-32"/>
      <use transform="translate(335.624191 0.78125)" xlink:href="#CormorantInfant-Regular-91"/>
      <use transform="translate(363.024185 0.78125)" xlink:href="#DejaVuSans-Oblique-82"/>
      <use transform="translate(432.506607 -15.625)scale(0.7)" xlink:href="#DejaVuSans-Oblique-112"/>
      <use transform="translate(499.156998 0.78125)" xlink:href="#DejaVuSans-61"/>
      <use transform="translate(602.428482 0.78125)" xlink:href="#DejaVuSans-49"/>
      <use transform="translate(666.051529 0.78125)" xlink:href="#DejaVuSans-48"/>
      <use transform="translate(729.674576 0.78125)" xlink:href="#DejaVuSans-49"/>
      <use transform="translate(793.297623 0.78125)" xlink:href="#CormorantInfant-Regular-112"/>
      <use transform="translate(844.397614 0.78125)" xlink:href="#CormorantInfant-Regular-120"/>
      <use transform="translate(888.297607 0.78125)" xlink:href="#CormorantInfant-Regular-93"/>
     </g>
    </g>
   </g>
   <g id="matplotlib.axis_2">
    <g id="ytick_1">
     <g id="line2d_11">
      <path clip-path="url(#pc9ce352508)" d="M 55.6375 199.140582 
L 443.602645 199.140582 
" style="fill:none;stroke:#808080;stroke-dasharray:4.144,1.792;stroke-dashoffset:0;stroke-opacity:0.2;stroke-width:1.12;"/>
     </g>
     <g id="line2d_12">
      <defs>
       <path d="M 0 0 
L -6 0 
" id="mc3151e9990" style="stroke:#3f3d46;stroke-width:0.8;"/>
      </defs>
      <g>
       <use style="fill:#3f3d46;stroke:#3f3d46;stroke-width:0.8;" x="55.6375" xlink:href="#mc3151e9990" y="199.140582"/>
      </g>
     </g>
     <g id="text_7">
      <!-- 0 -->
      <g style="fill:#3f3d46;" transform="translate(34.01875 206.390582)scale(0.2 -0.2)">
       <use xlink:href="#CormorantInfant-Regular-48"/>
      </g>
     </g>
    </g>
    <g id="ytick_2">
     <g id="line2d_13">
      <path clip-path="url(#pc9ce352508)" d="M 55.6375 113.55318 
L 443.602645 113.55318 
" style="fill:none;stroke:#808080;stroke-dasharray:4.144,1.792;stroke-dashoffset:0;stroke-opacity:0.2;stroke-width:1.12;"/>
     </g>
     <g id="line2d_14">
      <g>
       <use style="fill:#3f3d46;stroke:#3f3d46;stroke-width:0.8;" x="55.6375" xlink:href="#mc3151e9990" y="113.55318"/>
      </g>
     </g>
     <g id="text_8">
      <!-- 5 -->
      <g style="fill:#3f3d46;" transform="translate(35.1375 120.80318)scale(0.2 -0.2)">
       <use xlink:href="#CormorantInfant-Regular-53"/>
      </g>
     </g>
    </g>
    <g id="ytick_3">
     <g id="line2d_15">
      <path clip-path="url(#pc9ce352508)" d="M 55.6375 27.965777 
L 443.602645 27.965777 
" style="fill:none;stroke:#808080;stroke-dasharray:4.144,1.792;stroke-dashoffset:0;stroke-opacity:0.2;stroke-width:1.12;"/>
     </g>
     <g id="line2d_16">
      <g>
       <use style="fill:#3f3d46;stroke:#3f3d46;stroke-width:0.8;" x="55.6375" xlink:href="#mc3151e9990" y="27.965777"/>
      </g>
     </g>
     <g id="text_9">
      <!-- 10 -->
      <g style="fill:#3f3d46;" transform="translate(26.2 35.215777)scale(0.2 -0.2)">
       <use xlink:href="#CormorantInfant-Regular-49"/>
       <use x="39.099991" xlink:href="#CormorantInfant-Regular-48"/>
      </g>
     </g>
    </g>
    <g id="text_10">
     <!-- $\widetilde{\kappa}(R)$ -->
     <g style="fill:#3f3d46;" transform="translate(18.075 137.97476)rotate(-90)scale(0.15 -0.15)">
      <defs>
       <path d="M -19.90625 76 
L -17.296875 76 
Q -20 60.796875 -40 60.796875 
Q -44.703125 60.796875 -48.390625 61.1875 
Q -52.09375 61.59375 -54.4375 62.09375 
Q -56.796875 62.59375 -63.1875 64.09375 
Q -69.59375 65.59375 -75.09375 66.796875 
Q -89.703125 69.90625 -95.203125 69.90625 
Q -109.703125 69.90625 -112.59375 60.796875 
L -115.203125 60.796875 
Q -112.5 76 -93.703125 76 
Q -84.59375 76 -58.09375 69.90625 
Q -44.40625 66.703125 -37.5 66.703125 
Q -22.203125 66.703125 -19.90625 76 
z
" id="STIXSizeTwoSym-Regular-771"/>
       <path d="M 14.65625 54.6875 
L 23.921875 54.6875 
L 19.484375 31.984375 
L 47.515625 54.6875 
L 58.453125 54.6875 
L 32.90625 34.078125 
L 51.171875 0 
L 40.1875 0 
L 25.4375 28.21875 
L 17.53125 21.921875 
L 13.28125 0 
L 4 0 
z
" id="DejaVuSans-Oblique-954"/>
       <path d="M 31 75.875 
Q 24.46875 64.65625 21.28125 53.65625 
Q 18.109375 42.671875 18.109375 31.390625 
Q 18.109375 20.125 21.3125 9.0625 
Q 24.515625 -2 31 -13.1875 
L 23.1875 -13.1875 
Q 15.875 -1.703125 12.234375 9.375 
Q 8.59375 20.453125 8.59375 31.390625 
Q 8.59375 42.28125 12.203125 53.3125 
Q 15.828125 64.359375 23.1875 75.875 
z
" id="DejaVuSans-40"/>
       <path d="M 8.015625 75.875 
L 15.828125 75.875 
Q 23.140625 64.359375 26.78125 53.3125 
Q 30.421875 42.28125 30.421875 31.390625 
Q 30.421875 20.453125 26.78125 9.375 
Q 23.140625 -1.703125 15.828125 -13.1875 
L 8.015625 -13.1875 
Q 14.5 -2 17.703125 9.0625 
Q 20.90625 20.125 20.90625 31.390625 
Q 20.90625 42.671875 17.703125 53.65625 
Q 14.5 64.65625 8.015625 75.875 
z
" id="DejaVuSans-41"/>
      </defs>
      <use transform="translate(77.140137 31.40625)scale(0.601959)" xlink:href="#STIXSizeTwoSym-Regular-771"/>
      <use transform="translate(0 0.703125)" xlink:href="#DejaVuSans-Oblique-954"/>
      <use transform="translate(58.935547 0.703125)" xlink:href="#DejaVuSans-40"/>
      <use transform="translate(97.949219 0.703125)" xlink:href="#DejaVuSans-Oblique-82"/>
      <use transform="translate(167.431641 0.703125)" xlink:href="#DejaVuSans-41"/>
     </g>
    </g>
   </g>
   <g id="LineCollection_1">
    <path clip-path="url(#pc9ce352508)" d="M 109.414847 198.065416 
L 109.414847 71.180194 
" style="fill:none;stroke:#8172b2;stroke-width:1.2;"/>
   </g>
   <g id="LineCollection_2">
    <path clip-path="url(#pc9ce352508)" d="M 93.84618 134.622805 
L 119.628996 134.622805 
" style="fill:none;stroke:#800080;stroke-width:1.2;"/>
   </g>
   <g id="line2d_17">
    <path clip-path="url(#pc9ce352508)" d="M 55.6375 237.69952 
L 55.6375 7.2 
" style="fill:none;stroke:#ffffff;stroke-dasharray:2,3.3;stroke-dashoffset:0;stroke-width:2;"/>
   </g>
   <g id="line2d_18">
    <path clip-path="url(#pc9ce352508)" d="M 93.84618 237.69952 
L 93.84618 7.2 
" style="fill:none;stroke:#ffc0cb;stroke-linecap:square;stroke-opacity:0.75;"/>
   </g>
   <g id="line2d_19">
    <path clip-path="url(#pc9ce352508)" d="M 119.628996 237.69952 
L 119.628996 7.2 
" style="fill:none;stroke:#ffc0cb;stroke-linecap:square;stroke-opacity:0.75;"/>
   </g>
   <g id="line2d_20">
    <path clip-path="url(#pc9ce352508)" d="M 109.414847 237.69952 
L 109.414847 7.2 
" style="fill:none;stroke:#ffffff;stroke-dasharray:2,3.3;stroke-dashoffset:0;stroke-width:2;"/>
   </g>
   <g id="line2d_21">
    <defs>
     <path d="M -10 10 
L 10 -10 
M -10 -10 
L 10 10 
" id="m036d81eda9"/>
    </defs>
    <g clip-path="url(#pc9ce352508)">
     <use style="fill:#3572c6;" x="109.414847" xlink:href="#m036d81eda9" y="71.180194"/>
    </g>
   </g>
   <g id="line2d_22">
    <path clip-path="url(#pc9ce352508)" d="M 59.478739 198.065416 
L 63.319978 196.454595 
L 67.161217 194.808767 
L 71.002456 192.74594 
L 74.843695 189.534869 
L 78.684934 185.092509 
L 82.526173 178.129476 
L 86.367412 168.123644 
L 90.208652 153.428561 
L 94.049891 133.569634 
L 97.89113 109.958447 
L 101.732369 86.082619 
L 105.573608 71.879315 
L 109.414847 71.180194 
L 113.256086 88.62174 
L 117.097325 114.562801 
L 120.938564 144.999322 
L 124.779803 170.564242 
L 128.621042 191.221592 
L 132.462281 204.120204 
L 136.30352 211.835645 
L 140.144759 214.576052 
L 143.985998 214.445763 
L 147.827237 212.415614 
L 151.668476 209.331805 
L 155.509716 206.163367 
L 159.350955 202.872812 
L 163.192194 200.243286 
L 167.033433 197.888518 
L 170.874672 196.349303 
L 174.715911 195.236426 
L 178.55715 194.840281 
L 182.398389 194.914667 
L 186.239628 195.537667 
L 190.080867 196.61488 
L 193.922106 198.070742 
L 197.763345 199.895188 
L 201.604584 201.913263 
L 205.445823 204.119099 
L 209.287062 206.292083 
L 213.128301 208.394288 
L 216.96954 210.224269 
L 220.81078 211.732457 
L 224.652019 212.796485 
L 228.493258 213.394348 
L 232.334497 213.505059 
L 236.175736 213.150243 
L 240.016975 212.387196 
L 243.858214 211.269083 
L 247.699453 209.888317 
L 251.540692 208.310064 
L 255.381931 206.626788 
L 259.22317 204.90356 
L 263.064409 203.214896 
L 266.905648 201.620255 
L 270.746887 200.169306 
L 274.588126 198.909636 
L 278.429365 197.862481 
L 282.270605 197.052729 
L 286.111844 196.471071 
L 289.953083 196.107599 
L 293.794322 195.926208 
L 297.635561 195.876839 
L 301.4768 195.911095 
L 305.318039 195.946329 
L 309.159278 195.944966 
L 313.000517 195.81162 
L 316.841756 195.540182 
L 320.682995 195.049086 
L 324.524234 194.368462 
L 328.365473 193.459342 
L 332.206712 192.370088 
L 336.047951 191.133601 
L 339.88919 189.778725 
L 343.730429 188.435461 
" style="fill:none;stroke:#83a83b;stroke-linecap:square;stroke-opacity:0.6;stroke-width:3.5;"/>
    <defs>
     <path d="M 0 2.5 
C 0.663008 2.5 1.29895 2.236584 1.767767 1.767767 
C 2.236584 1.29895 2.5 0.663008 2.5 0 
C 2.5 -0.663008 2.236584 -1.29895 1.767767 -1.767767 
C 1.29895 -2.236584 0.663008 -2.5 0 -2.5 
C -0.663008 -2.5 -1.29895 -2.236584 -1.767767 -1.767767 
C -2.236584 -1.29895 -2.5 -0.663008 -2.5 0 
C -2.5 0.663008 -2.236584 1.29895 -1.767767 1.767767 
C -1.29895 2.236584 -0.663008 2.5 0 2.5 
z
" id="m70b116fb93"/>
    </defs>
    <g clip-path="url(#pc9ce352508)">
     <use style="fill:#83a83b;fill-opacity:0.6;" x="59.478739" xlink:href="#m70b116fb93" y="198.065416"/>
     <use style="fill:#83a83b;fill-opacity:0.6;" x="63.319978" xlink:href="#m70b116fb93" y="196.454595"/>
     <use style="fill:#83a83b;fill-opacity:0.6;" x="67.161217" xlink:href="#m70b116fb93" y="194.808767"/>
     <use style="fill:#83a83b;fill-opacity:0.6;" x="71.002456" xlink:href="#m70b116fb93" y="192.74594"/>
     <use style="fill:#83a83b;fill-opacity:0.6;" x="74.843695" xlink:href="#m70b116fb93" y="189.534869"/>
     <use style="fill:#83a83b;fill-opacity:0.6;" x="78.684934" xlink:href="#m70b116fb93" y="185.092509"/>
     <use style="fill:#83a83b;fill-opacity:0.6;" x="82.526173" xlink:href="#m70b116fb93" y="178.129476"/>
     <use style="fill:#83a83b;fill-opacity:0.6;" x="86.367412" xlink:href="#m70b116fb93" y="168.123644"/>
     <use style="fill:#83a83b;fill-opacity:0.6;" x="90.208652" xlink:href="#m70b116fb93" y="153.428561"/>
     <use style="fill:#83a83b;fill-opacity:0.6;" x="94.049891" xlink:href="#m70b116fb93" y="133.569634"/>
     <use style="fill:#83a83b;fill-opacity:0.6;" x="97.89113" xlink:href="#m70b116fb93" y="109.958447"/>
     <use style="fill:#83a83b;fill-opacity:0.6;" x="101.732369" xlink:href="#m70b116fb93" y="86.082619"/>
     <use style="fill:#83a83b;fill-opacity:0.6;" x="105.573608" xlink:href="#m70b116fb93" y="71.879315"/>
     <use style="fill:#83a83b;fill-opacity:0.6;" x="109.414847" xlink:href="#m70b116fb93" y="71.180194"/>
     <use style="fill:#83a83b;fill-opacity:0.6;" x="113.256086" xlink:href="#m70b116fb93" y="88.62174"/>
     <use style="fill:#83a83b;fill-opacity:0.6;" x="117.097325" xlink:href="#m70b116fb93" y="114.562801"/>
     <use style="fill:#83a83b;fill-opacity:0.6;" x="120.938564" xlink:href="#m70b116fb93" y="144.999322"/>
     <use style="fill:#83a83b;fill-opacity:0.6;" x="124.779803" xlink:href="#m70b116fb93" y="170.564242"/>
     <use style="fill:#83a83b;fill-opacity:0.6;" x="128.621042" xlink:href="#m70b116fb93" y="191.221592"/>
     <use style="fill:#83a83b;fill-opacity:0.6;" x="132.462281" xlink:href="#m70b116fb93" y="204.120204"/>
     <use style="fill:#83a83b;fill-opacity:0.6;" x="136.30352" xlink:href="#m70b116fb93" y="211.835645"/>
     <use style="fill:#83a83b;fill-opacity:0.6;" x="140.144759" xlink:href="#m70b116fb93" y="214.576052"/>
     <use style="fill:#83a83b;fill-opacity:0.6;" x="143.985998" xlink:href="#m70b116fb93" y="214.445763"/>
     <use style="fill:#83a83b;fill-opacity:0.6;" x="147.827237" xlink:href="#m70b116fb93" y="212.415614"/>
     <use style="fill:#83a83b;fill-opacity:0.6;" x="151.668476" xlink:href="#m70b116fb93" y="209.331805"/>
     <use style="fill:#83a83b;fill-opacity:0.6;" x="155.509716" xlink:href="#m70b116fb93" y="206.163367"/>
     <use style="fill:#83a83b;fill-opacity:0.6;" x="159.350955" xlink:href="#m70b116fb93" y="202.872812"/>
     <use style="fill:#83a83b;fill-opacity:0.6;" x="163.192194" xlink:href="#m70b116fb93" y="200.243286"/>
     <use style="fill:#83a83b;fill-opacity:0.6;" x="167.033433" xlink:href="#m70b116fb93" y="197.888518"/>
     <use style="fill:#83a83b;fill-opacity:0.6;" x="170.874672" xlink:href="#m70b116fb93" y="196.349303"/>
     <use style="fill:#83a83b;fill-opacity:0.6;" x="174.715911" xlink:href="#m70b116fb93" y="195.236426"/>
     <use style="fill:#83a83b;fill-opacity:0.6;" x="178.55715" xlink:href="#m70b116fb93" y="194.840281"/>
     <use style="fill:#83a83b;fill-opacity:0.6;" x="182.398389" xlink:href="#m70b116fb93" y="194.914667"/>
     <use style="fill:#83a83b;fill-opacity:0.6;" x="186.239628" xlink:href="#m70b116fb93" y="195.537667"/>
     <use style="fill:#83a83b;fill-opacity:0.6;" x="190.080867" xlink:href="#m70b116fb93" y="196.61488"/>
     <use style="fill:#83a83b;fill-opacity:0.6;" x="193.922106" xlink:href="#m70b116fb93" y="198.070742"/>
     <use style="fill:#83a83b;fill-opacity:0.6;" x="197.763345" xlink:href="#m70b116fb93" y="199.895188"/>
     <use style="fill:#83a83b;fill-opacity:0.6;" x="201.604584" xlink:href="#m70b116fb93" y="201.913263"/>
     <use style="fill:#83a83b;fill-opacity:0.6;" x="205.445823" xlink:href="#m70b116fb93" y="204.119099"/>
     <use style="fill:#83a83b;fill-opacity:0.6;" x="209.287062" xlink:href="#m70b116fb93" y="206.292083"/>
     <use style="fill:#83a83b;fill-opacity:0.6;" x="213.128301" xlink:href="#m70b116fb93" y="208.394288"/>
     <use style="fill:#83a83b;fill-opacity:0.6;" x="216.96954" xlink:href="#m70b116fb93" y="210.224269"/>
     <use style="fill:#83a83b;fill-opacity:0.6;" x="220.81078" xlink:href="#m70b116fb93" y="211.732457"/>
     <use style="fill:#83a83b;fill-opacity:0.6;" x="224.652019" xlink:href="#m70b116fb93" y="212.796485"/>
     <use style="fill:#83a83b;fill-opacity:0.6;" x="228.493258" xlink:href="#m70b116fb93" y="213.394348"/>
     <use style="fill:#83a83b;fill-opacity:0.6;" x="232.334497" xlink:href="#m70b116fb93" y="213.505059"/>
     <use style="fill:#83a83b;fill-opacity:0.6;" x="236.175736" xlink:href="#m70b116fb93" y="213.150243"/>
     <use style="fill:#83a83b;fill-opacity:0.6;" x="240.016975" xlink:href="#m70b116fb93" y="212.387196"/>
     <use style="fill:#83a83b;fill-opacity:0.6;" x="243.858214" xlink:href="#m70b116fb93" y="211.269083"/>
     <use style="fill:#83a83b;fill-opacity:0.6;" x="247.699453" xlink:href="#m70b116fb93" y="209.888317"/>
     <use style="fill:#83a83b;fill-opacity:0.6;" x="251.540692" xlink:href="#m70b116fb93" y="208.310064"/>
     <use style="fill:#83a83b;fill-opacity:0.6;" x="255.381931" xlink:href="#m70b116fb93" y="206.626788"/>
     <use style="fill:#83a83b;fill-opacity:0.6;" x="259.22317" xlink:href="#m70b116fb93" y="204.90356"/>
     <use style="fill:#83a83b;fill-opacity:0.6;" x="263.064409" xlink:href="#m70b116fb93" y="203.214896"/>
     <use style="fill:#83a83b;fill-opacity:0.6;" x="266.905648" xlink:href="#m70b116fb93" y="201.620255"/>
     <use style="fill:#83a83b;fill-opacity:0.6;" x="270.746887" xlink:href="#m70b116fb93" y="200.169306"/>
     <use style="fill:#83a83b;fill-opacity:0.6;" x="274.588126" xlink:href="#m70b116fb93" y="198.909636"/>
     <use style="fill:#83a83b;fill-opacity:0.6;" x="278.429365" xlink:href="#m70b116fb93" y="197.862481"/>
     <use style="fill:#83a83b;fill-opacity:0.6;" x="282.270605" xlink:href="#m70b116fb93" y="197.052729"/>
     <use style="fill:#83a83b;fill-opacity:0.6;" x="286.111844" xlink:href="#m70b116fb93" y="196.471071"/>
     <use style="fill:#83a83b;fill-opacity:0.6;" x="289.953083" xlink:href="#m70b116fb93" y="196.107599"/>
     <use style="fill:#83a83b;fill-opacity:0.6;" x="293.794322" xlink:href="#m70b116fb93" y="195.926208"/>
     <use style="fill:#83a83b;fill-opacity:0.6;" x="297.635561" xlink:href="#m70b116fb93" y="195.876839"/>
     <use style="fill:#83a83b;fill-opacity:0.6;" x="301.4768" xlink:href="#m70b116fb93" y="195.911095"/>
     <use style="fill:#83a83b;fill-opacity:0.6;" x="305.318039" xlink:href="#m70b116fb93" y="195.946329"/>
     <use style="fill:#83a83b;fill-opacity:0.6;" x="309.159278" xlink:href="#m70b116fb93" y="195.944966"/>
     <use style="fill:#83a83b;fill-opacity:0.6;" x="313.000517" xlink:href="#m70b116fb93" y="195.81162"/>
     <use style="fill:#83a83b;fill-opacity:0.6;" x="316.841756" xlink:href="#m70b116fb93" y="195.540182"/>
     <use style="fill:#83a83b;fill-opacity:0.6;" x="320.682995" xlink:href="#m70b116fb93" y="195.049086"/>
     <use style="fill:#83a83b;fill-opacity:0.6;" x="324.524234" xlink:href="#m70b116fb93" y="194.368462"/>
     <use style="fill:#83a83b;fill-opacity:0.6;" x="328.365473" xlink:href="#m70b116fb93" y="193.459342"/>
     <use style="fill:#83a83b;fill-opacity:0.6;" x="332.206712" xlink:href="#m70b116fb93" y="192.370088"/>
     <use style="fill:#83a83b;fill-opacity:0.6;" x="336.047951" xlink:href="#m70b116fb93" y="191.133601"/>
     <use style="fill:#83a83b;fill-opacity:0.6;" x="339.88919" xlink:href="#m70b116fb93" y="189.778725"/>
     <use style="fill:#83a83b;fill-opacity:0.6;" x="343.730429" xlink:href="#m70b116fb93" y="188.435461"/>
    </g>
   </g>
   <g id="line2d_23">
    <path clip-path="url(#pc9ce352508)" d="M 55.6375 199.140582 
L 443.602645 199.140582 
" style="fill:none;stroke:#ffffff;stroke-linecap:square;stroke-width:0.5;"/>
   </g>
   <g id="patch_3">
    <path d="M 55.6375 237.69952 
L 55.6375 7.2 
" style="fill:none;stroke:#6a737d;stroke-linecap:square;stroke-linejoin:miter;stroke-width:1.12;"/>
   </g>
   <g id="patch_4">
    <path d="M 443.602645 237.69952 
L 443.602645 7.2 
" style="fill:none;stroke:#6a737d;stroke-linecap:square;stroke-linejoin:miter;stroke-width:1.12;"/>
   </g>
   <g id="patch_5">
    <path d="M 55.6375 237.69952 
L 443.602645 237.69952 
" style="fill:none;stroke:#6a737d;stroke-linecap:square;stroke-linejoin:miter;stroke-width:1.12;"/>
   </g>
   <g id="patch_6">
    <path d="M 55.6375 7.2 
L 443.602645 7.2 
" style="fill:none;stroke:#6a737d;stroke-linecap:square;stroke-linejoin:miter;stroke-width:1.12;"/>
   </g>
  </g>
  <g id="axes_2">
   <g id="matplotlib.axis_3">
    <g id="ytick_4">
     <g id="line2d_24">
      <defs>
       <path d="M 0 0 
L 6 0 
" id="m34e351e995" style="stroke:#3f3d46;stroke-width:0.8;"/>
      </defs>
      <g>
       <use style="fill:#3f3d46;stroke:#3f3d46;stroke-width:0.8;" x="443.602645" xlink:href="#m34e351e995" y="218.491227"/>
      </g>
     </g>
     <g id="text_11">
      <!-- 0.00 -->
      <g style="fill:#3f3d46;" transform="translate(455.202645 225.741227)scale(0.2 -0.2)">
       <use xlink:href="#CormorantInfant-Regular-48"/>
       <use x="50.099991" xlink:href="#CormorantInfant-Regular-46"/>
       <use x="69.799988" xlink:href="#CormorantInfant-Regular-48"/>
       <use x="119.899979" xlink:href="#CormorantInfant-Regular-48"/>
      </g>
     </g>
    </g>
    <g id="ytick_5">
     <g id="line2d_25">
      <g>
       <use style="fill:#3f3d46;stroke:#3f3d46;stroke-width:0.8;" x="443.602645" xlink:href="#m34e351e995" y="170.470493"/>
      </g>
     </g>
     <g id="text_12">
      <!-- 0.25 -->
      <g style="fill:#3f3d46;" transform="translate(455.202645 177.720493)scale(0.2 -0.2)">
       <use xlink:href="#CormorantInfant-Regular-48"/>
       <use x="50.099991" xlink:href="#CormorantInfant-Regular-46"/>
       <use x="69.799988" xlink:href="#CormorantInfant-Regular-50"/>
       <use x="114.599976" xlink:href="#CormorantInfant-Regular-53"/>
      </g>
     </g>
    </g>
    <g id="ytick_6">
     <g id="line2d_26">
      <g>
       <use style="fill:#3f3d46;stroke:#3f3d46;stroke-width:0.8;" x="443.602645" xlink:href="#m34e351e995" y="122.44976"/>
      </g>
     </g>
     <g id="text_13">
      <!-- 0.50 -->
      <g style="fill:#3f3d46;" transform="translate(455.202645 129.69976)scale(0.2 -0.2)">
       <use xlink:href="#CormorantInfant-Regular-48"/>
       <use x="50.099991" xlink:href="#CormorantInfant-Regular-46"/>
       <use x="69.799988" xlink:href="#CormorantInfant-Regular-53"/>
       <use x="114.299973" xlink:href="#CormorantInfant-Regular-48"/>
      </g>
     </g>
    </g>
    <g id="ytick_7">
     <g id="line2d_27">
      <g>
       <use style="fill:#3f3d46;stroke:#3f3d46;stroke-width:0.8;" x="443.602645" xlink:href="#m34e351e995" y="74.429027"/>
      </g>
     </g>
     <g id="text_14">
      <!-- 0.75 -->
      <g style="fill:#3f3d46;" transform="translate(455.202645 81.679027)scale(0.2 -0.2)">
       <defs>
        <path d="M 17.703125 2.203125 
Q 17.203125 0.90625 16.796875 0.453125 
Q 16.40625 0 15.59375 0 
L 11.203125 0 
Q 10.796875 0 10.5 0.296875 
Q 10.203125 0.59375 10.40625 1 
L 35.09375 56.5 
Q 35.5 57.203125 34.59375 57.203125 
Q 19.703125 57.203125 13.953125 56.796875 
Q 8.203125 56.40625 6.453125 55.15625 
Q 4.703125 53.90625 3.59375 50.40625 
Q 3.59375 50.09375 3.09375 50.09375 
Q 2.90625 50.09375 2.65625 50.25 
Q 2.40625 50.40625 2.5 50.59375 
L 5.90625 65.09375 
Q 6 65.40625 6.59375 65.34375 
Q 7.203125 65.296875 7.09375 65 
Q 7 64.59375 7 64 
Q 7 63.09375 7.953125 62.796875 
Q 8.90625 62.5 11.796875 62.5 
L 38.296875 62.5 
Q 38.703125 62.5 39.046875 62 
Q 39.40625 61.5 39.203125 61.203125 
L 17.703125 2.203125 
z
" id="CormorantInfant-Regular-55"/>
       </defs>
       <use xlink:href="#CormorantInfant-Regular-48"/>
       <use x="50.099991" xlink:href="#CormorantInfant-Regular-46"/>
       <use x="69.799988" xlink:href="#CormorantInfant-Regular-55"/>
       <use x="112.699982" xlink:href="#CormorantInfant-Regular-53"/>
      </g>
     </g>
    </g>
    <g id="ytick_8">
     <g id="line2d_28">
      <g>
       <use style="fill:#3f3d46;stroke:#3f3d46;stroke-width:0.8;" x="443.602645" xlink:href="#m34e351e995" y="26.408293"/>
      </g>
     </g>
     <g id="text_15">
      <!-- 1.00 -->
      <g style="fill:#3f3d46;" transform="translate(455.202645 33.658293)scale(0.2 -0.2)">
       <use xlink:href="#CormorantInfant-Regular-49"/>
       <use x="39.099991" xlink:href="#CormorantInfant-Regular-46"/>
       <use x="58.799988" xlink:href="#CormorantInfant-Regular-48"/>
       <use x="108.899979" xlink:href="#CormorantInfant-Regular-48"/>
      </g>
     </g>
    </g>
    <g id="text_16">
     <!-- $\nu(R)$ -->
     <g style="fill:#3f3d46;" transform="translate(501.89952 134.68976)rotate(-90)scale(0.12 -0.12)">
      <defs>
       <path d="M 14.984375 0 
L 8.9375 54.6875 
L 18.609375 54.6875 
L 23.78125 8.796875 
Q 30.8125 14.84375 37.359375 23.25 
Q 42.28125 29.546875 43.5625 35.015625 
Q 44.140625 37.59375 43.890625 42.484375 
Q 43.65625 48.296875 39.75 54.6875 
L 48.828125 54.6875 
L 48.828125 54.6875 
Q 51.375 50.34375 52.390625 44.28125 
Q 53.375 38.71875 52.640625 34.90625 
Q 50.78125 25.34375 42.484375 16.796875 
Q 31.640625 5.671875 24.5625 0 
z
" id="DejaVuSans-Oblique-957"/>
      </defs>
      <use transform="translate(0 0.125)" xlink:href="#DejaVuSans-Oblique-957"/>
      <use transform="translate(55.859375 0.125)" xlink:href="#DejaVuSans-40"/>
      <use transform="translate(94.873047 0.125)" xlink:href="#DejaVuSans-Oblique-82"/>
      <use transform="translate(164.355469 0.125)" xlink:href="#DejaVuSans-41"/>
     </g>
    </g>
   </g>
   <g id="line2d_29">
    <path clip-path="url(#pc9ce352508)" d="M 55.6375 26.408293 
L 59.478739 37.175974 
L 63.319978 50.050392 
L 67.161217 61.080065 
L 71.002456 70.357067 
L 74.843695 78.786385 
L 78.684934 85.826206 
L 82.526173 91.7104 
L 86.367412 96.477851 
L 90.208652 100.691133 
L 94.049891 104.046536 
L 97.89113 106.865423 
L 101.732369 109.291155 
L 105.573608 111.490886 
L 109.414847 113.51746 
L 113.256086 115.252794 
L 117.097325 116.833482 
L 120.938564 118.351857 
L 124.779803 119.67762 
L 128.621042 120.778377 
L 132.462281 121.919469 
L 136.30352 122.955199 
L 140.144759 123.974707 
L 143.985998 124.919234 
L 147.827237 125.958124 
L 151.668476 126.987925 
L 155.509716 127.880751 
L 159.350955 128.913896 
L 163.192194 129.900316 
L 167.033433 130.998185 
L 170.874672 132.165858 
L 174.715911 133.096196 
L 178.55715 134.098429 
L 182.398389 135.243677 
L 186.239628 136.224925 
L 190.080867 137.25734 
L 193.922106 138.360794 
L 197.763345 139.560175 
L 201.604584 140.652281 
L 205.445823 141.724412 
L 209.287062 142.542441 
L 213.128301 143.584195 
L 216.96954 144.505611 
L 220.81078 145.492062 
L 224.652019 146.634625 
L 228.493258 147.601856 
L 232.334497 149.178288 
L 236.175736 150.286626 
L 240.016975 151.583365 
L 243.858214 152.664357 
L 247.699453 154.115586 
L 251.540692 155.286495 
L 255.381931 156.60133 
L 259.22317 157.950721 
L 263.064409 159.227359 
L 266.905648 160.998398 
L 270.746887 162.196025 
L 274.588126 163.573199 
L 278.429365 164.818131 
L 282.270605 166.438922 
L 286.111844 167.661679 
L 289.953083 169.036086 
L 293.794322 170.62834 
L 297.635561 171.825456 
L 301.4768 173.105176 
L 305.318039 174.126644 
L 309.159278 175.441814 
L 313.000517 176.496476 
L 316.841756 177.937643 
L 320.682995 179.374061 
L 324.524234 180.745406 
L 328.365473 182.42498 
L 332.206712 183.160192 
L 336.047951 184.47382 
L 339.88919 185.353346 
L 343.730429 187.316758 
L 347.571669 188.737694 
L 351.412908 189.752935 
L 355.254147 189.987481 
L 359.095386 191.677075 
L 362.936625 194.474147 
L 366.777864 194.224297 
L 370.619103 195.561581 
L 374.460342 196.730739 
L 378.301581 197.900192 
L 382.14282 199.823797 
L 385.984059 199.058495 
L 389.825298 201.943988 
L 393.666537 200.879847 
L 397.507776 200.100547 
L 401.349015 198.889418 
L 405.190254 201.842267 
L 409.031493 203.425654 
L 412.872733 204.905065 
L 416.713972 208.764931 
L 420.555211 206.514164 
L 424.39645 207.820794 
L 428.237689 210.287325 
L 432.078928 212.143178 
L 435.920167 213.890787 
L 439.761406 218.491227 
L 443.602645 215.662948 
" style="fill:none;stroke:#c44e52;stroke-linecap:square;stroke-width:3.5;"/>
    <defs>
     <path d="M 0 2.5 
C 0.663008 2.5 1.29895 2.236584 1.767767 1.767767 
C 2.236584 1.29895 2.5 0.663008 2.5 0 
C 2.5 -0.663008 2.236584 -1.29895 1.767767 -1.767767 
C 1.29895 -2.236584 0.663008 -2.5 0 -2.5 
C -0.663008 -2.5 -1.29895 -2.236584 -1.767767 -1.767767 
C -2.236584 -1.29895 -2.5 -0.663008 -2.5 0 
C -2.5 0.663008 -2.236584 1.29895 -1.767767 1.767767 
C -1.29895 2.236584 -0.663008 2.5 0 2.5 
z
" id="m3eaeaa158c"/>
    </defs>
    <g clip-path="url(#pc9ce352508)">
     <use style="fill:#c44e52;" x="55.6375" xlink:href="#m3eaeaa158c" y="26.408293"/>
     <use style="fill:#c44e52;" x="59.478739" xlink:href="#m3eaeaa158c" y="37.175974"/>
     <use style="fill:#c44e52;" x="63.319978" xlink:href="#m3eaeaa158c" y="50.050392"/>
     <use style="fill:#c44e52;" x="67.161217" xlink:href="#m3eaeaa158c" y="61.080065"/>
     <use style="fill:#c44e52;" x="71.002456" xlink:href="#m3eaeaa158c" y="70.357067"/>
     <use style="fill:#c44e52;" x="74.843695" xlink:href="#m3eaeaa158c" y="78.786385"/>
     <use style="fill:#c44e52;" x="78.684934" xlink:href="#m3eaeaa158c" y="85.826206"/>
     <use style="fill:#c44e52;" x="82.526173" xlink:href="#m3eaeaa158c" y="91.7104"/>
     <use style="fill:#c44e52;" x="86.367412" xlink:href="#m3eaeaa158c" y="96.477851"/>
     <use style="fill:#c44e52;" x="90.208652" xlink:href="#m3eaeaa158c" y="100.691133"/>
     <use style="fill:#c44e52;" x="94.049891" xlink:href="#m3eaeaa158c" y="104.046536"/>
     <use style="fill:#c44e52;" x="97.89113" xlink:href="#m3eaeaa158c" y="106.865423"/>
     <use style="fill:#c44e52;" x="101.732369" xlink:href="#m3eaeaa158c" y="109.291155"/>
     <use style="fill:#c44e52;" x="105.573608" xlink:href="#m3eaeaa158c" y="111.490886"/>
     <use style="fill:#c44e52;" x="109.414847" xlink:href="#m3eaeaa158c" y="113.51746"/>
     <use style="fill:#c44e52;" x="113.256086" xlink:href="#m3eaeaa158c" y="115.252794"/>
     <use style="fill:#c44e52;" x="117.097325" xlink:href="#m3eaeaa158c" y="116.833482"/>
     <use style="fill:#c44e52;" x="120.938564" xlink:href="#m3eaeaa158c" y="118.351857"/>
     <use style="fill:#c44e52;" x="124.779803" xlink:href="#m3eaeaa158c" y="119.67762"/>
     <use style="fill:#c44e52;" x="128.621042" xlink:href="#m3eaeaa158c" y="120.778377"/>
     <use style="fill:#c44e52;" x="132.462281" xlink:href="#m3eaeaa158c" y="121.919469"/>
     <use style="fill:#c44e52;" x="136.30352" xlink:href="#m3eaeaa158c" y="122.955199"/>
     <use style="fill:#c44e52;" x="140.144759" xlink:href="#m3eaeaa158c" y="123.974707"/>
     <use style="fill:#c44e52;" x="143.985998" xlink:href="#m3eaeaa158c" y="124.919234"/>
     <use style="fill:#c44e52;" x="147.827237" xlink:href="#m3eaeaa158c" y="125.958124"/>
     <use style="fill:#c44e52;" x="151.668476" xlink:href="#m3eaeaa158c" y="126.987925"/>
     <use style="fill:#c44e52;" x="155.509716" xlink:href="#m3eaeaa158c" y="127.880751"/>
     <use style="fill:#c44e52;" x="159.350955" xlink:href="#m3eaeaa158c" y="128.913896"/>
     <use style="fill:#c44e52;" x="163.192194" xlink:href="#m3eaeaa158c" y="129.900316"/>
     <use style="fill:#c44e52;" x="167.033433" xlink:href="#m3eaeaa158c" y="130.998185"/>
     <use style="fill:#c44e52;" x="170.874672" xlink:href="#m3eaeaa158c" y="132.165858"/>
     <use style="fill:#c44e52;" x="174.715911" xlink:href="#m3eaeaa158c" y="133.096196"/>
     <use style="fill:#c44e52;" x="178.55715" xlink:href="#m3eaeaa158c" y="134.098429"/>
     <use style="fill:#c44e52;" x="182.398389" xlink:href="#m3eaeaa158c" y="135.243677"/>
     <use style="fill:#c44e52;" x="186.239628" xlink:href="#m3eaeaa158c" y="136.224925"/>
     <use style="fill:#c44e52;" x="190.080867" xlink:href="#m3eaeaa158c" y="137.25734"/>
     <use style="fill:#c44e52;" x="193.922106" xlink:href="#m3eaeaa158c" y="138.360794"/>
     <use style="fill:#c44e52;" x="197.763345" xlink:href="#m3eaeaa158c" y="139.560175"/>
     <use style="fill:#c44e52;" x="201.604584" xlink:href="#m3eaeaa158c" y="140.652281"/>
     <use style="fill:#c44e52;" x="205.445823" xlink:href="#m3eaeaa158c" y="141.724412"/>
     <use style="fill:#c44e52;" x="209.287062" xlink:href="#m3eaeaa158c" y="142.542441"/>
     <use style="fill:#c44e52;" x="213.128301" xlink:href="#m3eaeaa158c" y="143.584195"/>
     <use style="fill:#c44e52;" x="216.96954" xlink:href="#m3eaeaa158c" y="144.505611"/>
     <use style="fill:#c44e52;" x="220.81078" xlink:href="#m3eaeaa158c" y="145.492062"/>
     <use style="fill:#c44e52;" x="224.652019" xlink:href="#m3eaeaa158c" y="146.634625"/>
     <use style="fill:#c44e52;" x="228.493258" xlink:href="#m3eaeaa158c" y="147.601856"/>
     <use style="fill:#c44e52;" x="232.334497" xlink:href="#m3eaeaa158c" y="149.178288"/>
     <use style="fill:#c44e52;" x="236.175736" xlink:href="#m3eaeaa158c" y="150.286626"/>
     <use style="fill:#c44e52;" x="240.016975" xlink:href="#m3eaeaa158c" y="151.583365"/>
     <use style="fill:#c44e52;" x="243.858214" xlink:href="#m3eaeaa158c" y="152.664357"/>
     <use style="fill:#c44e52;" x="247.699453" xlink:href="#m3eaeaa158c" y="154.115586"/>
     <use style="fill:#c44e52;" x="251.540692" xlink:href="#m3eaeaa158c" y="155.286495"/>
     <use style="fill:#c44e52;" x="255.381931" xlink:href="#m3eaeaa158c" y="156.60133"/>
     <use style="fill:#c44e52;" x="259.22317" xlink:href="#m3eaeaa158c" y="157.950721"/>
     <use style="fill:#c44e52;" x="263.064409" xlink:href="#m3eaeaa158c" y="159.227359"/>
     <use style="fill:#c44e52;" x="266.905648" xlink:href="#m3eaeaa158c" y="160.998398"/>
     <use style="fill:#c44e52;" x="270.746887" xlink:href="#m3eaeaa158c" y="162.196025"/>
     <use style="fill:#c44e52;" x="274.588126" xlink:href="#m3eaeaa158c" y="163.573199"/>
     <use style="fill:#c44e52;" x="278.429365" xlink:href="#m3eaeaa158c" y="164.818131"/>
     <use style="fill:#c44e52;" x="282.270605" xlink:href="#m3eaeaa158c" y="166.438922"/>
     <use style="fill:#c44e52;" x="286.111844" xlink:href="#m3eaeaa158c" y="167.661679"/>
     <use style="fill:#c44e52;" x="289.953083" xlink:href="#m3eaeaa158c" y="169.036086"/>
     <use style="fill:#c44e52;" x="293.794322" xlink:href="#m3eaeaa158c" y="170.62834"/>
     <use style="fill:#c44e52;" x="297.635561" xlink:href="#m3eaeaa158c" y="171.825456"/>
     <use style="fill:#c44e52;" x="301.4768" xlink:href="#m3eaeaa158c" y="173.105176"/>
     <use style="fill:#c44e52;" x="305.318039" xlink:href="#m3eaeaa158c" y="174.126644"/>
     <use style="fill:#c44e52;" x="309.159278" xlink:href="#m3eaeaa158c" y="175.441814"/>
     <use style="fill:#c44e52;" x="313.000517" xlink:href="#m3eaeaa158c" y="176.496476"/>
     <use style="fill:#c44e52;" x="316.841756" xlink:href="#m3eaeaa158c" y="177.937643"/>
     <use style="fill:#c44e52;" x="320.682995" xlink:href="#m3eaeaa158c" y="179.374061"/>
     <use style="fill:#c44e52;" x="324.524234" xlink:href="#m3eaeaa158c" y="180.745406"/>
     <use style="fill:#c44e52;" x="328.365473" xlink:href="#m3eaeaa158c" y="182.42498"/>
     <use style="fill:#c44e52;" x="332.206712" xlink:href="#m3eaeaa158c" y="183.160192"/>
     <use style="fill:#c44e52;" x="336.047951" xlink:href="#m3eaeaa158c" y="184.47382"/>
     <use style="fill:#c44e52;" x="339.88919" xlink:href="#m3eaeaa158c" y="185.353346"/>
     <use style="fill:#c44e52;" x="343.730429" xlink:href="#m3eaeaa158c" y="187.316758"/>
     <use style="fill:#c44e52;" x="347.571669" xlink:href="#m3eaeaa158c" y="188.737694"/>
     <use style="fill:#c44e52;" x="351.412908" xlink:href="#m3eaeaa158c" y="189.752935"/>
     <use style="fill:#c44e52;" x="355.254147" xlink:href="#m3eaeaa158c" y="189.987481"/>
     <use style="fill:#c44e52;" x="359.095386" xlink:href="#m3eaeaa158c" y="191.677075"/>
     <use style="fill:#c44e52;" x="362.936625" xlink:href="#m3eaeaa158c" y="194.474147"/>
     <use style="fill:#c44e52;" x="366.777864" xlink:href="#m3eaeaa158c" y="194.224297"/>
     <use style="fill:#c44e52;" x="370.619103" xlink:href="#m3eaeaa158c" y="195.561581"/>
     <use style="fill:#c44e52;" x="374.460342" xlink:href="#m3eaeaa158c" y="196.730739"/>
     <use style="fill:#c44e52;" x="378.301581" xlink:href="#m3eaeaa158c" y="197.900192"/>
     <use style="fill:#c44e52;" x="382.14282" xlink:href="#m3eaeaa158c" y="199.823797"/>
     <use style="fill:#c44e52;" x="385.984059" xlink:href="#m3eaeaa158c" y="199.058495"/>
     <use style="fill:#c44e52;" x="389.825298" xlink:href="#m3eaeaa158c" y="201.943988"/>
     <use style="fill:#c44e52;" x="393.666537" xlink:href="#m3eaeaa158c" y="200.879847"/>
     <use style="fill:#c44e52;" x="397.507776" xlink:href="#m3eaeaa158c" y="200.100547"/>
     <use style="fill:#c44e52;" x="401.349015" xlink:href="#m3eaeaa158c" y="198.889418"/>
     <use style="fill:#c44e52;" x="405.190254" xlink:href="#m3eaeaa158c" y="201.842267"/>
     <use style="fill:#c44e52;" x="409.031493" xlink:href="#m3eaeaa158c" y="203.425654"/>
     <use style="fill:#c44e52;" x="412.872733" xlink:href="#m3eaeaa158c" y="204.905065"/>
     <use style="fill:#c44e52;" x="416.713972" xlink:href="#m3eaeaa158c" y="208.764931"/>
     <use style="fill:#c44e52;" x="420.555211" xlink:href="#m3eaeaa158c" y="206.514164"/>
     <use style="fill:#c44e52;" x="424.39645" xlink:href="#m3eaeaa158c" y="207.820794"/>
     <use style="fill:#c44e52;" x="428.237689" xlink:href="#m3eaeaa158c" y="210.287325"/>
     <use style="fill:#c44e52;" x="432.078928" xlink:href="#m3eaeaa158c" y="212.143178"/>
     <use style="fill:#c44e52;" x="435.920167" xlink:href="#m3eaeaa158c" y="213.890787"/>
     <use style="fill:#c44e52;" x="439.761406" xlink:href="#m3eaeaa158c" y="218.491227"/>
     <use style="fill:#c44e52;" x="443.602645" xlink:href="#m3eaeaa158c" y="215.662948"/>
    </g>
   </g>
   <g id="patch_7">
    <path d="M 55.6375 237.69952 
L 55.6375 7.2 
" style="fill:none;stroke:#6a737d;stroke-linecap:square;stroke-linejoin:miter;stroke-width:1.12;"/>
   </g>
   <g id="patch_8">
    <path d="M 443.602645 237.69952 
L 443.602645 7.2 
" style="fill:none;stroke:#6a737d;stroke-linecap:square;stroke-linejoin:miter;stroke-width:1.12;"/>
   </g>
   <g id="patch_9">
    <path d="M 55.6375 237.69952 
L 443.602645 237.69952 
" style="fill:none;stroke:#6a737d;stroke-linecap:square;stroke-linejoin:miter;stroke-width:1.12;"/>
   </g>
   <g id="patch_10">
    <path d="M 55.6375 7.2 
L 443.602645 7.2 
" style="fill:none;stroke:#6a737d;stroke-linecap:square;stroke-linejoin:miter;stroke-width:1.12;"/>
   </g>
   <g id="legend_1">
    <g id="patch_11">
     <path d="M 383.902645 45.2 
L 436.602645 45.2 
Q 438.602645 45.2 438.602645 43.2 
L 438.602645 14.2 
Q 438.602645 12.2 436.602645 12.2 
L 383.902645 12.2 
Q 381.902645 12.2 381.902645 14.2 
L 381.902645 43.2 
Q 381.902645 45.2 383.902645 45.2 
z
" style="fill:#ffffff;opacity:0.8;stroke:#cccccc;stroke-linejoin:miter;stroke-width:0.16;"/>
    </g>
    <g id="line2d_30">
     <path d="M 385.902645 19.95 
L 405.902645 19.95 
" style="fill:none;stroke:#83a83b;stroke-linecap:square;stroke-opacity:0.6;stroke-width:3.5;"/>
    </g>
    <g id="line2d_31">
     <g>
      <use style="fill:#83a83b;fill-opacity:0.6;" x="395.902645" xlink:href="#m70b116fb93" y="19.95"/>
     </g>
    </g>
    <g id="text_17">
     <!-- $\widetilde{\kappa}(R)$ -->
     <g style="fill:#3f3d46;" transform="translate(413.902645 23.45)scale(0.1 -0.1)">
      <use transform="translate(77.140137 31.40625)scale(0.601959)" xlink:href="#STIXSizeTwoSym-Regular-771"/>
      <use transform="translate(0 0.703125)" xlink:href="#DejaVuSans-Oblique-954"/>
      <use transform="translate(58.935547 0.703125)" xlink:href="#DejaVuSans-40"/>
      <use transform="translate(97.949219 0.703125)" xlink:href="#DejaVuSans-Oblique-82"/>
      <use transform="translate(167.431641 0.703125)" xlink:href="#DejaVuSans-41"/>
     </g>
    </g>
    <g id="line2d_32">
     <path d="M 385.902645 34.95 
L 405.902645 34.95 
" style="fill:none;stroke:#c44e52;stroke-linecap:square;stroke-width:3.5;"/>
    </g>
    <g id="line2d_33">
     <g>
      <use style="fill:#c44e52;" x="395.902645" xlink:href="#m3eaeaa158c" y="34.95"/>
     </g>
    </g>
    <g id="text_18">
     <!-- $\nu(R)$ -->
     <g style="fill:#3f3d46;" transform="translate(413.902645 38.45)scale(0.1 -0.1)">
      <use transform="translate(0 0.125)" xlink:href="#DejaVuSans-Oblique-957"/>
      <use transform="translate(55.859375 0.125)" xlink:href="#DejaVuSans-40"/>
      <use transform="translate(94.873047 0.125)" xlink:href="#DejaVuSans-Oblique-82"/>
      <use transform="translate(164.355469 0.125)" xlink:href="#DejaVuSans-41"/>
     </g>
    </g>
   </g>
  </g>
 </g>
 <defs>
  <clipPath id="pc9ce352508">
   <rect height="230.49952" width="387.965145" x="55.6375" y="7.2"/>
  </clipPath>
 </defs>
</svg>
