<?xml version="1.0" encoding="utf-8" standalone="no"?>
<!DOCTYPE svg PUBLIC "-//W3C//DTD SVG 1.1//EN"
  "http://www.w3.org/Graphics/SVG/1.1/DTD/svg11.dtd">
<!-- Created with matplotlib (https://matplotlib.org/) -->
<svg height="375.44pt" version="1.1" viewBox="0 0 425.498125 375.44" width="425.498125pt" xmlns="http://www.w3.org/2000/svg" xmlns:xlink="http://www.w3.org/1999/xlink">
 <metadata>
  <rdf:RDF xmlns:cc="http://creativecommons.org/ns#" xmlns:dc="http://purl.org/dc/elements/1.1/" xmlns:rdf="http://www.w3.org/1999/02/22-rdf-syntax-ns#">
   <cc:Work>
    <dc:type rdf:resource="http://purl.org/dc/dcmitype/StillImage"/>
    <dc:date>2020-07-27T02:07:37.774842</dc:date>
    <dc:format>image/svg+xml</dc:format>
    <dc:creator>
     <cc:Agent>
      <dc:title>Matplotlib v3.3.0, https://matplotlib.org/</dc:title>
     </cc:Agent>
    </dc:creator>
   </cc:Work>
  </rdf:RDF>
 </metadata>
 <defs>
  <style type="text/css">*{stroke-linecap:butt;stroke-linejoin:round;}</style>
 </defs>
 <g id="figure_1">
  <g id="patch_1">
   <path d="M 0 375.44 
L 425.498125 375.44 
L 425.498125 0 
L 0 0 
z
" style="fill:#ffffff;"/>
  </g>
  <g id="axes_1">
   <g id="patch_2">
    <path d="M 61.178125 317.664 
L 418.298125 317.664 
L 418.298125 7.2 
L 61.178125 7.2 
z
" style="fill:#ffffff;"/>
   </g>
   <g id="matplotlib.axis_1">
    <g id="xtick_1">
     <g id="line2d_1">
      <path clip-path="url(#p64478e714e)" d="M 75.274967 317.664 
L 75.274967 7.2 
" style="fill:none;stroke:#808080;stroke-dasharray:4.144,1.792;stroke-dashoffset:0;stroke-opacity:0.5;stroke-width:1.12;"/>
     </g>
     <g id="line2d_2">
      <defs>
       <path d="M 0 0 
L 0 6 
" id="m318c82b8da" style="stroke:#3f3d46;stroke-width:0.8;"/>
      </defs>
      <g>
       <use style="fill:#3f3d46;stroke:#3f3d46;stroke-width:0.8;" x="75.274967" xlink:href="#m318c82b8da" y="317.664"/>
      </g>
     </g>
     <g id="text_1">
      <!-- 0.0 -->
      <g style="fill:#3f3d46;" transform="translate(63.285905 343.764)scale(0.2 -0.2)">
       <defs>
        <path d="M 25.09375 -1.296875 
Q 19.09375 -1.296875 14.4375 2.796875 
Q 9.796875 6.90625 7.25 14.296875 
Q 4.703125 21.703125 4.703125 31.296875 
Q 4.703125 40.796875 7.296875 48.140625 
Q 9.90625 55.5 14.546875 59.59375 
Q 19.203125 63.703125 25.296875 63.703125 
Q 31.203125 63.703125 35.75 59.59375 
Q 40.296875 55.5 42.796875 48.046875 
Q 45.296875 40.59375 45.296875 31 
Q 45.296875 21.5 42.75 14.140625 
Q 40.203125 6.796875 35.59375 2.75 
Q 31 -1.296875 25.09375 -1.296875 
z
M 26.296875 0.09375 
Q 32.296875 0.09375 35.25 7.84375 
Q 38.203125 15.59375 38.203125 29.796875 
Q 38.203125 45.796875 34.296875 54.09375 
Q 30.40625 62.40625 24.203125 62.40625 
Q 18.203125 62.40625 14.953125 54.203125 
Q 11.703125 46 11.703125 32 
Q 11.703125 17.296875 15.59375 8.6875 
Q 19.5 0.09375 26.296875 0.09375 
z
" id="CormorantInfant-Regular-48"/>
        <path d="M 9.90625 -1.09375 
Q 7.90625 -1.09375 6.703125 0.09375 
Q 5.5 1.296875 5.5 3.203125 
Q 5.5 5.09375 6.703125 6.25 
Q 7.90625 7.40625 9.90625 7.40625 
Q 12 7.40625 13.140625 6.296875 
Q 14.296875 5.203125 14.296875 3.203125 
Q 14.296875 1.203125 13.140625 0.046875 
Q 12 -1.09375 9.90625 -1.09375 
z
" id="CormorantInfant-Regular-46"/>
       </defs>
       <use xlink:href="#CormorantInfant-Regular-48"/>
       <use x="50.099991" xlink:href="#CormorantInfant-Regular-46"/>
       <use x="69.799988" xlink:href="#CormorantInfant-Regular-48"/>
      </g>
     </g>
    </g>
    <g id="xtick_2">
     <g id="line2d_3">
      <path clip-path="url(#p64478e714e)" d="M 183.137168 317.664 
L 183.137168 7.2 
" style="fill:none;stroke:#808080;stroke-dasharray:4.144,1.792;stroke-dashoffset:0;stroke-opacity:0.5;stroke-width:1.12;"/>
     </g>
     <g id="line2d_4">
      <g>
       <use style="fill:#3f3d46;stroke:#3f3d46;stroke-width:0.8;" x="183.137168" xlink:href="#m318c82b8da" y="317.664"/>
      </g>
     </g>
     <g id="text_2">
      <!-- 0.5 -->
      <g style="fill:#3f3d46;" transform="translate(171.707481 343.764)scale(0.2 -0.2)">
       <defs>
        <path d="M 20.796875 37.5 
Q 29.59375 37.5 34.640625 32.640625 
Q 39.703125 27.796875 39.703125 18.796875 
Q 39.703125 9.296875 34.203125 4.046875 
Q 28.703125 -1.203125 20.203125 -1.203125 
Q 15.5 -1.203125 11.796875 0.640625 
Q 8.09375 2.5 4.90625 6.296875 
L 4.796875 6.5 
Q 4.796875 6.90625 5.1875 7.15625 
Q 5.59375 7.40625 5.796875 7.09375 
Q 8.203125 4.296875 11.546875 2.890625 
Q 14.90625 1.5 18.703125 1.5 
Q 25.796875 1.5 29.296875 5.953125 
Q 32.796875 10.40625 32.796875 17.703125 
Q 32.796875 25.5 28.890625 30.046875 
Q 25 34.59375 16.90625 34.59375 
Q 14.703125 34.59375 12.140625 34.25 
Q 9.59375 33.90625 8 33.296875 
Q 7.5 33.296875 7.203125 33.640625 
Q 6.90625 34 7 34.5 
L 10.203125 61.296875 
Q 10.296875 62 10.5 62.25 
Q 10.703125 62.5 11.5 62.5 
Q 25 62.5 29.453125 62.640625 
Q 33.90625 62.796875 35.25 63.296875 
Q 36.59375 63.796875 37.40625 65.40625 
Q 37.40625 65.59375 37.796875 65.59375 
Q 38.09375 65.59375 38.34375 65.4375 
Q 38.59375 65.296875 38.5 65.09375 
L 37.203125 58.5 
Q 36.90625 57.40625 36.34375 57.046875 
Q 35.796875 56.703125 34.5 56.703125 
L 13.796875 57.203125 
Q 12.5 57.203125 12.296875 55.796875 
L 9.90625 35.90625 
Q 15.40625 37.5 20.796875 37.5 
z
" id="CormorantInfant-Regular-53"/>
       </defs>
       <use xlink:href="#CormorantInfant-Regular-48"/>
       <use x="50.099991" xlink:href="#CormorantInfant-Regular-46"/>
       <use x="69.799988" xlink:href="#CormorantInfant-Regular-53"/>
      </g>
     </g>
    </g>
    <g id="xtick_3">
     <g id="line2d_5">
      <path clip-path="url(#p64478e714e)" d="M 290.999369 317.664 
L 290.999369 7.2 
" style="fill:none;stroke:#808080;stroke-dasharray:4.144,1.792;stroke-dashoffset:0;stroke-opacity:0.5;stroke-width:1.12;"/>
     </g>
     <g id="line2d_6">
      <g>
       <use style="fill:#3f3d46;stroke:#3f3d46;stroke-width:0.8;" x="290.999369" xlink:href="#m318c82b8da" y="317.664"/>
      </g>
     </g>
     <g id="text_3">
      <!-- 1.0 -->
      <g style="fill:#3f3d46;" transform="translate(280.110307 343.764)scale(0.2 -0.2)">
       <defs>
        <path d="M 7.09375 0 
Q 6.90625 0 6.90625 0.59375 
Q 6.90625 1.203125 7.09375 1.203125 
Q 11.796875 1.203125 14.09375 1.75 
Q 16.40625 2.296875 17.34375 3.6875 
Q 18.296875 5.09375 18.296875 8.09375 
L 18.296875 49.296875 
Q 18.296875 54.59375 15.59375 54.59375 
Q 13.09375 54.59375 6.703125 49.796875 
L 6.5 49.703125 
Q 6.09375 49.703125 5.890625 50.203125 
Q 5.703125 50.703125 6.09375 50.90625 
L 22.796875 63.203125 
Q 23.296875 63.5 23.5 63.5 
Q 23.703125 63.5 23.890625 63.296875 
Q 24.09375 63.09375 24.09375 62.90625 
L 24.09375 8.09375 
Q 24.09375 5.09375 24.890625 3.640625 
Q 25.703125 2.203125 28 1.703125 
Q 30.296875 1.203125 35.203125 1.203125 
Q 35.40625 1.203125 35.40625 0.59375 
Q 35.40625 0 35.203125 0 
Q 31.5 0 29.40625 0.09375 
L 21.203125 0.203125 
L 13.09375 0.09375 
Q 10.90625 0 7.09375 0 
z
" id="CormorantInfant-Regular-49"/>
       </defs>
       <use xlink:href="#CormorantInfant-Regular-49"/>
       <use x="39.099991" xlink:href="#CormorantInfant-Regular-46"/>
       <use x="58.799988" xlink:href="#CormorantInfant-Regular-48"/>
      </g>
     </g>
    </g>
    <g id="xtick_4">
     <g id="line2d_7">
      <path clip-path="url(#p64478e714e)" d="M 398.86157 317.664 
L 398.86157 7.2 
" style="fill:none;stroke:#808080;stroke-dasharray:4.144,1.792;stroke-dashoffset:0;stroke-opacity:0.5;stroke-width:1.12;"/>
     </g>
     <g id="line2d_8">
      <g>
       <use style="fill:#3f3d46;stroke:#3f3d46;stroke-width:0.8;" x="398.86157" xlink:href="#m318c82b8da" y="317.664"/>
      </g>
     </g>
     <g id="text_4">
      <!-- 1.5 -->
      <g style="fill:#3f3d46;" transform="translate(388.531882 343.764)scale(0.2 -0.2)">
       <use xlink:href="#CormorantInfant-Regular-49"/>
       <use x="39.099991" xlink:href="#CormorantInfant-Regular-46"/>
       <use x="58.799988" xlink:href="#CormorantInfant-Regular-53"/>
      </g>
     </g>
    </g>
    <g id="text_5">
     <!-- $R/R_p$ -->
     <g style="fill:#3f3d46;" transform="translate(223.898125 363.776)scale(0.144 -0.144)">
      <defs>
       <path d="M 25.203125 64.796875 
L 20.21875 38.921875 
L 32.90625 38.921875 
Q 40.375 38.921875 44.984375 43.046875 
Q 49.609375 47.171875 49.609375 53.8125 
Q 49.609375 59.125 46.5 61.953125 
Q 43.40625 64.796875 37.59375 64.796875 
z
M 43.3125 35.015625 
Q 46.4375 34.28125 48.515625 31.390625 
Q 50.59375 28.515625 53.328125 19.921875 
L 59.515625 0 
L 49.125 0 
L 43.40625 18.703125 
Q 41.21875 25.921875 38.328125 28.359375 
Q 35.453125 30.8125 29.5 30.8125 
L 18.609375 30.8125 
L 12.59375 0 
L 2.6875 0 
L 16.890625 72.90625 
L 39.109375 72.90625 
Q 49.21875 72.90625 54.609375 68.328125 
Q 60.015625 63.765625 60.015625 55.171875 
Q 60.015625 47.5625 55.421875 41.984375 
Q 50.828125 36.421875 43.3125 35.015625 
z
" id="DejaVuSans-Oblique-82"/>
       <path d="M 25.390625 72.90625 
L 33.6875 72.90625 
L 8.296875 -9.28125 
L 0 -9.28125 
z
" id="DejaVuSans-47"/>
       <path d="M 49.609375 33.6875 
Q 49.609375 40.875 46.484375 44.671875 
Q 43.359375 48.484375 37.5 48.484375 
Q 33.5 48.484375 29.859375 46.4375 
Q 26.21875 44.390625 23.390625 40.484375 
Q 20.609375 36.625 18.9375 31.15625 
Q 17.28125 25.6875 17.28125 20.3125 
Q 17.28125 13.484375 20.40625 9.796875 
Q 23.53125 6.109375 29.296875 6.109375 
Q 33.546875 6.109375 37.1875 8.109375 
Q 40.828125 10.109375 43.40625 13.921875 
Q 46.1875 17.921875 47.890625 23.34375 
Q 49.609375 28.765625 49.609375 33.6875 
z
M 21.78125 46.390625 
Q 25.390625 51.125 30.296875 53.5625 
Q 35.203125 56 41.21875 56 
Q 49.609375 56 54.25 50.5 
Q 58.890625 45.015625 58.890625 35.109375 
Q 58.890625 27 56 19.65625 
Q 53.125 12.3125 47.703125 6.5 
Q 44.09375 2.640625 39.546875 0.609375 
Q 35.015625 -1.421875 29.984375 -1.421875 
Q 24.171875 -1.421875 20.21875 1 
Q 16.265625 3.421875 14.3125 8.203125 
L 8.6875 -20.796875 
L -0.296875 -20.796875 
L 14.40625 54.6875 
L 23.390625 54.6875 
z
" id="DejaVuSans-Oblique-112"/>
      </defs>
      <use transform="translate(0 0.09375)" xlink:href="#DejaVuSans-Oblique-82"/>
      <use transform="translate(69.482422 0.09375)" xlink:href="#DejaVuSans-47"/>
      <use transform="translate(103.173828 0.09375)" xlink:href="#DejaVuSans-Oblique-82"/>
      <use transform="translate(172.65625 -16.3125)scale(0.7)" xlink:href="#DejaVuSans-Oblique-112"/>
     </g>
    </g>
   </g>
   <g id="matplotlib.axis_2">
    <g id="ytick_1">
     <g id="line2d_9">
      <path clip-path="url(#p64478e714e)" d="M 61.178125 306.787444 
L 418.298125 306.787444 
" style="fill:none;stroke:#808080;stroke-dasharray:4.144,1.792;stroke-dashoffset:0;stroke-opacity:0.5;stroke-width:1.12;"/>
     </g>
     <g id="line2d_10">
      <defs>
       <path d="M 0 0 
L -6 0 
" id="m06ba64017d" style="stroke:#3f3d46;stroke-width:0.8;"/>
      </defs>
      <g>
       <use style="fill:#3f3d46;stroke:#3f3d46;stroke-width:0.8;" x="61.178125" xlink:href="#m06ba64017d" y="306.787444"/>
      </g>
     </g>
     <g id="text_6">
      <!-- 0.0 -->
      <g style="fill:#3f3d46;" transform="translate(25.6 314.037444)scale(0.2 -0.2)">
       <use xlink:href="#CormorantInfant-Regular-48"/>
       <use x="50.099991" xlink:href="#CormorantInfant-Regular-46"/>
       <use x="69.799988" xlink:href="#CormorantInfant-Regular-48"/>
      </g>
     </g>
    </g>
    <g id="ytick_2">
     <g id="line2d_11">
      <path clip-path="url(#p64478e714e)" d="M 61.178125 245.114781 
L 418.298125 245.114781 
" style="fill:none;stroke:#808080;stroke-dasharray:4.144,1.792;stroke-dashoffset:0;stroke-opacity:0.5;stroke-width:1.12;"/>
     </g>
     <g id="line2d_12">
      <g>
       <use style="fill:#3f3d46;stroke:#3f3d46;stroke-width:0.8;" x="61.178125" xlink:href="#m06ba64017d" y="245.114781"/>
      </g>
     </g>
     <g id="text_7">
      <!-- 0.2 -->
      <g style="fill:#3f3d46;" transform="translate(26.659375 252.364781)scale(0.2 -0.2)">
       <defs>
        <path d="M 4 0 
Q 3.5 0 3.140625 0.5 
Q 2.796875 1 3.203125 1.296875 
Q 7 6.09375 9 8.40625 
Q 16.296875 17.296875 20.5 23.09375 
Q 24.703125 28.90625 27.59375 35.046875 
Q 30.5 41.203125 30.5 46.796875 
Q 30.5 52.703125 27.390625 56.046875 
Q 24.296875 59.40625 18.703125 59.40625 
Q 13.703125 59.40625 10.203125 56.546875 
Q 6.703125 53.703125 5 48.40625 
Q 5 48.296875 4.59375 48.296875 
Q 3.796875 48.296875 3.90625 48.703125 
Q 5.296875 55.796875 10 59.6875 
Q 14.703125 63.59375 21.59375 63.59375 
Q 28.796875 63.59375 32.9375 59.4375 
Q 37.09375 55.296875 37.09375 48.796875 
Q 37.09375 43 33.890625 36.796875 
Q 30.703125 30.59375 26.5 25.390625 
Q 22.296875 20.203125 16.09375 13.40625 
Q 15.203125 12.40625 12.953125 9.953125 
Q 10.703125 7.5 9.59375 5.90625 
Q 9.09375 5.203125 10 5.203125 
Q 23 5.203125 28.390625 5.546875 
Q 33.796875 5.90625 36 7.34375 
Q 38.203125 8.796875 38.296875 12.09375 
Q 38.296875 12.296875 38.84375 12.296875 
Q 39.40625 12.296875 39.40625 12.09375 
L 39.296875 1.09375 
Q 39.296875 0.703125 39.046875 0.34375 
Q 38.796875 0 38.40625 0 
L 4 0 
z
" id="CormorantInfant-Regular-50"/>
       </defs>
       <use xlink:href="#CormorantInfant-Regular-48"/>
       <use x="50.099991" xlink:href="#CormorantInfant-Regular-46"/>
       <use x="69.799988" xlink:href="#CormorantInfant-Regular-50"/>
      </g>
     </g>
    </g>
    <g id="ytick_3">
     <g id="line2d_13">
      <path clip-path="url(#p64478e714e)" d="M 61.178125 183.442118 
L 418.298125 183.442118 
" style="fill:none;stroke:#808080;stroke-dasharray:4.144,1.792;stroke-dashoffset:0;stroke-opacity:0.5;stroke-width:1.12;"/>
     </g>
     <g id="line2d_14">
      <g>
       <use style="fill:#3f3d46;stroke:#3f3d46;stroke-width:0.8;" x="61.178125" xlink:href="#m06ba64017d" y="183.442118"/>
      </g>
     </g>
     <g id="text_8">
      <!-- 0.4 -->
      <g style="fill:#3f3d46;" transform="translate(26.2375 190.692118)scale(0.2 -0.2)">
       <defs>
        <path d="M 41.796875 21.90625 
Q 42.203125 21.90625 42.203125 19.796875 
Q 42.203125 17.703125 41.796875 17.703125 
L 33.5 18 
L 33.5 8.09375 
Q 33.5 5.09375 34 3.640625 
Q 34.5 2.203125 36 1.703125 
Q 37.5 1.203125 40.796875 1.203125 
Q 41 1.203125 41 0.59375 
Q 41 0 40.796875 0 
Q 38.203125 0 36.703125 0.09375 
L 30.40625 0.203125 
L 22.90625 0.09375 
Q 21 0 17.703125 0 
Q 17.40625 0 17.40625 0.59375 
Q 17.40625 1.203125 17.703125 1.203125 
Q 22.40625 1.203125 24.296875 1.640625 
Q 26.203125 2.09375 26.796875 3.4375 
Q 27.40625 4.796875 27.40625 8.09375 
L 27.40625 18.203125 
Q 13.796875 18.40625 2.203125 18.40625 
Q 1.703125 18.40625 1.453125 18.75 
Q 1.203125 19.09375 1.5 19.5 
L 31.90625 63 
Q 32.09375 63.203125 32.5 63.203125 
Q 33.5 63.203125 33.5 62.59375 
L 33.5 21.59375 
L 41.796875 21.90625 
z
M 7 21.296875 
Q 15.796875 21.296875 27.40625 21.5 
L 27.40625 52.5 
L 6.5 22 
Q 6.09375 21.296875 7 21.296875 
z
" id="CormorantInfant-Regular-52"/>
       </defs>
       <use xlink:href="#CormorantInfant-Regular-48"/>
       <use x="50.099991" xlink:href="#CormorantInfant-Regular-46"/>
       <use x="69.799988" xlink:href="#CormorantInfant-Regular-52"/>
      </g>
     </g>
    </g>
    <g id="ytick_4">
     <g id="line2d_15">
      <path clip-path="url(#p64478e714e)" d="M 61.178125 121.769455 
L 418.298125 121.769455 
" style="fill:none;stroke:#808080;stroke-dasharray:4.144,1.792;stroke-dashoffset:0;stroke-opacity:0.5;stroke-width:1.12;"/>
     </g>
     <g id="line2d_16">
      <g>
       <use style="fill:#3f3d46;stroke:#3f3d46;stroke-width:0.8;" x="61.178125" xlink:href="#m06ba64017d" y="121.769455"/>
      </g>
     </g>
     <g id="text_9">
      <!-- 0.6 -->
      <g style="fill:#3f3d46;" transform="translate(25.81875 129.019455)scale(0.2 -0.2)">
       <defs>
        <path d="M 29.40625 34 
Q 34 34 37.34375 31.703125 
Q 40.703125 29.40625 42.5 25.59375 
Q 44.296875 21.796875 44.296875 17.40625 
Q 44.296875 12.09375 41.796875 7.84375 
Q 39.296875 3.59375 34.890625 1.140625 
Q 30.5 -1.296875 25 -1.296875 
Q 15.59375 -1.296875 10.796875 5.25 
Q 6 11.796875 6 22.703125 
Q 6 32.59375 9.84375 41.796875 
Q 13.703125 51 20.890625 57.046875 
Q 28.09375 63.09375 37.796875 63.59375 
Q 38.09375 63.59375 38.25 63.140625 
Q 38.40625 62.703125 38 62.59375 
Q 29.90625 60.90625 24.15625 55.09375 
Q 18.40625 49.296875 15.546875 41.09375 
Q 12.703125 32.90625 12.703125 24.203125 
Q 12.703125 14.203125 16.390625 7.390625 
Q 20.09375 0.59375 27.59375 0.59375 
Q 32.703125 0.59375 35.203125 4.296875 
Q 37.703125 8 37.703125 14.59375 
Q 37.703125 22.09375 34.75 26.546875 
Q 31.796875 31 26.703125 31 
Q 22 31 18 27 
L 17.796875 26.90625 
Q 17.40625 26.90625 17.09375 27.25 
Q 16.796875 27.59375 16.90625 27.796875 
Q 19.296875 30.796875 22.546875 32.390625 
Q 25.796875 34 29.40625 34 
z
" id="CormorantInfant-Regular-54"/>
       </defs>
       <use xlink:href="#CormorantInfant-Regular-48"/>
       <use x="50.099991" xlink:href="#CormorantInfant-Regular-46"/>
       <use x="69.799988" xlink:href="#CormorantInfant-Regular-54"/>
      </g>
     </g>
    </g>
    <g id="ytick_5">
     <g id="line2d_17">
      <path clip-path="url(#p64478e714e)" d="M 61.178125 60.096793 
L 418.298125 60.096793 
" style="fill:none;stroke:#808080;stroke-dasharray:4.144,1.792;stroke-dashoffset:0;stroke-opacity:0.5;stroke-width:1.12;"/>
     </g>
     <g id="line2d_18">
      <g>
       <use style="fill:#3f3d46;stroke:#3f3d46;stroke-width:0.8;" x="61.178125" xlink:href="#m06ba64017d" y="60.096793"/>
      </g>
     </g>
     <g id="text_10">
      <!-- 0.8 -->
      <g style="fill:#3f3d46;" transform="translate(25.81875 67.346793)scale(0.2 -0.2)">
       <defs>
        <path d="M 31.09375 35.40625 
Q 37.796875 31.40625 41.4375 27.15625 
Q 45.09375 22.90625 45.09375 16.09375 
Q 45.09375 10.796875 42.34375 6.84375 
Q 39.59375 2.90625 34.9375 0.796875 
Q 30.296875 -1.296875 24.59375 -1.296875 
Q 18.5 -1.296875 14 0.953125 
Q 9.5 3.203125 7.09375 7.09375 
Q 4.703125 11 4.703125 15.796875 
Q 4.703125 22 8.75 27.390625 
Q 12.796875 32.796875 18.703125 35.796875 
Q 14.59375 38.796875 12.4375 42 
Q 10.296875 45.203125 10.296875 49.703125 
Q 10.296875 54 12.59375 57.140625 
Q 14.90625 60.296875 18.59375 61.9375 
Q 22.296875 63.59375 26.203125 63.59375 
Q 30.40625 63.59375 33.703125 61.890625 
Q 37 60.203125 38.84375 57.296875 
Q 40.703125 54.40625 40.703125 51 
Q 40.703125 46.5 38.09375 42.546875 
Q 35.5 38.59375 31.09375 35.40625 
z
M 24.09375 61.90625 
Q 20.296875 61.90625 17.890625 59.40625 
Q 15.5 56.90625 15.5 53.09375 
Q 15.5 49.203125 17.390625 46.25 
Q 19.296875 43.296875 22 41.296875 
Q 24.703125 39.296875 29.703125 36.296875 
L 29.796875 36.296875 
Q 34.796875 41.90625 34.796875 49.796875 
Q 34.796875 55.59375 31.75 58.75 
Q 28.703125 61.90625 24.09375 61.90625 
z
M 27.09375 0.5 
Q 32.796875 0.5 36.140625 3.890625 
Q 39.5 7.296875 39.5 13.40625 
Q 39.5 18 37.390625 21.390625 
Q 35.296875 24.796875 32.34375 27 
Q 29.40625 29.203125 24.09375 32.40625 
Q 23.296875 32.90625 22.25 33.546875 
Q 21.203125 34.203125 20 35 
Q 15.796875 32.203125 13.640625 27.796875 
Q 11.5 23.40625 11.5 18.09375 
Q 11.5 10.5 15.796875 5.5 
Q 20.09375 0.5 27.09375 0.5 
z
" id="CormorantInfant-Regular-56"/>
       </defs>
       <use xlink:href="#CormorantInfant-Regular-48"/>
       <use x="50.099991" xlink:href="#CormorantInfant-Regular-46"/>
       <use x="69.799988" xlink:href="#CormorantInfant-Regular-56"/>
      </g>
     </g>
    </g>
    <g id="text_11">
     <!-- $L_T/L_{\rm total}$ -->
     <g style="fill:#3f3d46;" transform="translate(17.64 187.92)rotate(-90)scale(0.144 -0.144)">
      <defs>
       <path d="M 16.796875 72.90625 
L 26.703125 72.90625 
L 14.203125 8.203125 
L 49.703125 8.203125 
L 48.09375 0 
L 2.6875 0 
z
" id="DejaVuSans-Oblique-76"/>
       <path d="M 5.90625 72.90625 
L 67.578125 72.90625 
L 66.015625 64.59375 
L 39.984375 64.59375 
L 27.484375 0 
L 17.578125 0 
L 30.078125 64.59375 
L 4.296875 64.59375 
z
" id="DejaVuSans-Oblique-84"/>
       <path d="M 18.3125 70.21875 
L 18.3125 54.6875 
L 36.8125 54.6875 
L 36.8125 47.703125 
L 18.3125 47.703125 
L 18.3125 18.015625 
Q 18.3125 11.328125 20.140625 9.421875 
Q 21.96875 7.515625 27.59375 7.515625 
L 36.8125 7.515625 
L 36.8125 0 
L 27.59375 0 
Q 17.1875 0 13.234375 3.875 
Q 9.28125 7.765625 9.28125 18.015625 
L 9.28125 47.703125 
L 2.6875 47.703125 
L 2.6875 54.6875 
L 9.28125 54.6875 
L 9.28125 70.21875 
z
" id="DejaVuSans-116"/>
       <path d="M 30.609375 48.390625 
Q 23.390625 48.390625 19.1875 42.75 
Q 14.984375 37.109375 14.984375 27.296875 
Q 14.984375 17.484375 19.15625 11.84375 
Q 23.34375 6.203125 30.609375 6.203125 
Q 37.796875 6.203125 41.984375 11.859375 
Q 46.1875 17.53125 46.1875 27.296875 
Q 46.1875 37.015625 41.984375 42.703125 
Q 37.796875 48.390625 30.609375 48.390625 
z
M 30.609375 56 
Q 42.328125 56 49.015625 48.375 
Q 55.71875 40.765625 55.71875 27.296875 
Q 55.71875 13.875 49.015625 6.21875 
Q 42.328125 -1.421875 30.609375 -1.421875 
Q 18.84375 -1.421875 12.171875 6.21875 
Q 5.515625 13.875 5.515625 27.296875 
Q 5.515625 40.765625 12.171875 48.375 
Q 18.84375 56 30.609375 56 
z
" id="DejaVuSans-111"/>
       <path d="M 34.28125 27.484375 
Q 23.390625 27.484375 19.1875 25 
Q 14.984375 22.515625 14.984375 16.5 
Q 14.984375 11.71875 18.140625 8.90625 
Q 21.296875 6.109375 26.703125 6.109375 
Q 34.1875 6.109375 38.703125 11.40625 
Q 43.21875 16.703125 43.21875 25.484375 
L 43.21875 27.484375 
z
M 52.203125 31.203125 
L 52.203125 0 
L 43.21875 0 
L 43.21875 8.296875 
Q 40.140625 3.328125 35.546875 0.953125 
Q 30.953125 -1.421875 24.3125 -1.421875 
Q 15.921875 -1.421875 10.953125 3.296875 
Q 6 8.015625 6 15.921875 
Q 6 25.140625 12.171875 29.828125 
Q 18.359375 34.515625 30.609375 34.515625 
L 43.21875 34.515625 
L 43.21875 35.40625 
Q 43.21875 41.609375 39.140625 45 
Q 35.0625 48.390625 27.6875 48.390625 
Q 23 48.390625 18.546875 47.265625 
Q 14.109375 46.140625 10.015625 43.890625 
L 10.015625 52.203125 
Q 14.9375 54.109375 19.578125 55.046875 
Q 24.21875 56 28.609375 56 
Q 40.484375 56 46.34375 49.84375 
Q 52.203125 43.703125 52.203125 31.203125 
z
" id="DejaVuSans-97"/>
       <path d="M 9.421875 75.984375 
L 18.40625 75.984375 
L 18.40625 0 
L 9.421875 0 
z
" id="DejaVuSans-108"/>
      </defs>
      <use transform="translate(0 0.09375)" xlink:href="#DejaVuSans-Oblique-76"/>
      <use transform="translate(55.712891 -16.3125)scale(0.7)" xlink:href="#DejaVuSans-Oblique-84"/>
      <use transform="translate(101.206055 0.09375)" xlink:href="#DejaVuSans-47"/>
      <use transform="translate(134.897461 0.09375)" xlink:href="#DejaVuSans-Oblique-76"/>
      <use transform="translate(190.610352 -16.3125)scale(0.7)" xlink:href="#DejaVuSans-116"/>
      <use transform="translate(218.056641 -16.3125)scale(0.7)" xlink:href="#DejaVuSans-111"/>
      <use transform="translate(260.883789 -16.3125)scale(0.7)" xlink:href="#DejaVuSans-116"/>
      <use transform="translate(288.330078 -16.3125)scale(0.7)" xlink:href="#DejaVuSans-97"/>
      <use transform="translate(331.225586 -16.3125)scale(0.7)" xlink:href="#DejaVuSans-108"/>
     </g>
    </g>
   </g>
   <g id="line2d_19">
    <path clip-path="url(#p64478e714e)" d="M 77.410852 303.552 
L 81.682623 285.679975 
L 85.954393 266.144189 
L 90.226163 250.97701 
L 94.497934 238.095538 
L 98.769704 227.903791 
L 103.041474 219.64414 
L 107.313245 212.289879 
L 111.585015 206.135053 
L 115.856785 200.556446 
L 120.128556 195.409138 
L 124.400326 190.363585 
L 128.672096 185.618734 
L 132.943867 181.130959 
L 137.215637 176.750783 
" style="fill:none;stroke:#3572c6;stroke-linecap:square;stroke-width:1.2;"/>
   </g>
   <g id="line2d_20">
    <path clip-path="url(#p64478e714e)" d="M 93.759983 317.664 
L 93.759983 7.2 
" style="fill:none;stroke:#8b008b;stroke-linecap:square;stroke-width:1.2;"/>
   </g>
   <g id="line2d_21">
    <path clip-path="url(#p64478e714e)" d="M 137.215637 176.750783 
L 141.487407 172.412516 
L 145.759178 168.15615 
L 150.030948 164.012525 
L 154.302718 159.88287 
L 158.574489 155.746178 
L 162.846259 151.67505 
L 167.118029 147.644638 
L 171.3898 143.623671 
L 175.66157 139.518876 
L 179.93334 135.506266 
L 184.205111 131.552455 
L 188.476881 127.644429 
L 192.748651 123.713573 
L 197.020422 119.92457 
L 201.292192 116.048524 
L 205.563962 110.984164 
L 209.835733 106.863452 
L 214.107503 103.261646 
L 218.379273 99.776183 
L 222.651044 96.37282 
L 226.922814 92.849554 
L 231.194584 89.338602 
L 235.466355 86.193771 
L 239.738125 83.10553 
L 244.009895 80.088687 
L 248.281666 77.199288 
L 252.553436 74.320967 
L 256.825206 71.488305 
L 261.096977 68.699751 
L 265.368747 65.998134 
L 269.640517 63.359056 
L 273.912288 60.889079 
L 278.184058 58.524241 
L 282.455828 56.236748 
L 286.727599 54.050624 
L 290.999369 51.941615 
L 295.271139 49.78965 
L 299.54291 47.866728 
L 303.81468 46.051269 
L 308.08645 44.276944 
L 312.358221 42.630167 
L 316.629991 41.073239 
L 320.901761 39.56819 
L 325.173532 38.154497 
L 329.445302 36.8037 
L 333.717072 35.515461 
L 337.988843 34.281614 
L 342.260613 33.132506 
L 346.532383 32.0145 
L 350.804154 30.987097 
L 355.075924 29.991236 
L 359.347694 28.969027 
L 363.619465 27.964369 
L 367.891235 27.041811 
L 372.163005 26.195217 
L 376.434776 25.376394 
L 380.706546 24.654898 
L 384.978316 23.964482 
L 389.250087 23.27103 
L 393.521857 22.539689 
L 397.793627 21.894785 
L 402.065398 21.312 
" style="fill:none;stroke:#83a83b;stroke-linecap:square;stroke-width:1.2;"/>
   </g>
   <g id="line2d_22">
    <path clip-path="url(#p64478e714e)" d="M 219.312757 317.664 
L 219.312757 7.2 
" style="fill:none;stroke:#8b008b;stroke-linecap:square;stroke-width:1.2;"/>
   </g>
   <g id="line2d_23">
    <path clip-path="url(#p64478e714e)" d="M 219.312757 317.664 
L 219.312757 7.2 
" style="fill:none;stroke:#8b008b;stroke-linecap:square;stroke-width:1.2;"/>
   </g>
   <g id="patch_3">
    <path d="M 61.178125 317.664 
L 61.178125 7.2 
" style="fill:none;stroke:#6a737d;stroke-linecap:square;stroke-linejoin:miter;stroke-width:1.12;"/>
   </g>
   <g id="patch_4">
    <path d="M 418.298125 317.664 
L 418.298125 7.2 
" style="fill:none;stroke:#6a737d;stroke-linecap:square;stroke-linejoin:miter;stroke-width:1.12;"/>
   </g>
   <g id="patch_5">
    <path d="M 61.178125 317.664 
L 418.298125 317.664 
" style="fill:none;stroke:#6a737d;stroke-linecap:square;stroke-linejoin:miter;stroke-width:1.12;"/>
   </g>
   <g id="patch_6">
    <path d="M 61.178125 7.2 
L 418.298125 7.2 
" style="fill:none;stroke:#6a737d;stroke-linecap:square;stroke-linejoin:miter;stroke-width:1.12;"/>
   </g>
   <g id="legend_1">
    <g id="patch_7">
     <path d="M 258.404125 311.364 
L 409.478125 311.364 
Q 411.998125 311.364 411.998125 308.844 
L 411.998125 252.648 
Q 411.998125 250.128 409.478125 250.128 
L 258.404125 250.128 
Q 255.884125 250.128 255.884125 252.648 
L 255.884125 308.844 
Q 255.884125 311.364 258.404125 311.364 
z
" style="fill:#ffffff;opacity:0.8;stroke:#cccccc;stroke-linejoin:miter;stroke-width:0.16;"/>
    </g>
    <g id="line2d_24">
     <path d="M 260.924125 259.956 
L 286.124125 259.956 
" style="fill:none;stroke:#3572c6;stroke-linecap:square;stroke-width:1.2;"/>
    </g>
    <g id="line2d_25"/>
    <g id="text_12">
     <!-- Component $1$ -->
     <g style="fill:#3f3d46;" transform="translate(296.204125 264.366)scale(0.126 -0.126)">
      <defs>
       <path d="M 41.09375 63.59375 
Q 47.40625 63.59375 51.703125 62.6875 
Q 56 61.796875 60.296875 59.59375 
Q 61 59.203125 61.09375 58.890625 
Q 61.203125 58.59375 61.40625 57.40625 
L 62.59375 45.5 
Q 62.59375 45.203125 62.046875 45.140625 
Q 61.5 45.09375 61.40625 45.40625 
Q 56.796875 62.09375 40.796875 62.09375 
Q 32.40625 62.09375 26 58.390625 
Q 19.59375 54.703125 16.09375 47.84375 
Q 12.59375 41 12.59375 31.90625 
Q 12.59375 23.203125 16.4375 15.953125 
Q 20.296875 8.703125 26.84375 4.5 
Q 33.40625 0.296875 41.09375 0.296875 
Q 49.296875 0.296875 54.390625 4.296875 
Q 59.5 8.296875 62.203125 16.5 
Q 62.203125 16.703125 62.703125 16.703125 
Q 63.40625 16.703125 63.40625 16.40625 
L 62.40625 5.40625 
Q 62.296875 4.203125 62.09375 3.890625 
Q 61.90625 3.59375 61.296875 3.203125 
Q 56.09375 0.703125 51.546875 -0.296875 
Q 47 -1.296875 41.09375 -1.296875 
Q 30.59375 -1.296875 22.34375 2.84375 
Q 14.09375 7 9.5 14.5 
Q 4.90625 22 4.90625 31.703125 
Q 4.90625 41.09375 9.59375 48.34375 
Q 14.296875 55.59375 22.546875 59.59375 
Q 30.796875 63.59375 41.09375 63.59375 
z
" id="CormorantInfant-Regular-67"/>
       <path d="M 23.09375 -1.296875 
Q 17.296875 -1.296875 12.84375 1.546875 
Q 8.40625 4.40625 6 9.25 
Q 3.59375 14.09375 3.59375 19.796875 
Q 3.59375 26.296875 6.75 30.84375 
Q 9.90625 35.40625 14.84375 37.65625 
Q 19.796875 39.90625 24.90625 39.90625 
Q 30.796875 39.90625 35.1875 37 
Q 39.59375 34.09375 41.9375 29.34375 
Q 44.296875 24.59375 44.296875 19.296875 
Q 44.296875 13.09375 41.390625 8.4375 
Q 38.5 3.796875 33.640625 1.25 
Q 28.796875 -1.296875 23.09375 -1.296875 
z
M 26 0.59375 
Q 31.5 0.59375 34.5 4.5 
Q 37.5 8.40625 37.5 16.5 
Q 37.5 22.703125 35.453125 27.59375 
Q 33.40625 32.5 29.796875 35.25 
Q 26.203125 38 21.59375 38 
Q 16.203125 38 13.25 34.09375 
Q 10.296875 30.203125 10.296875 22.90625 
Q 10.296875 16.796875 12.296875 11.6875 
Q 14.296875 6.59375 17.890625 3.59375 
Q 21.5 0.59375 26 0.59375 
z
" id="CormorantInfant-Regular-111"/>
       <path d="M 74.203125 1.203125 
Q 74.5 1.203125 74.5 0.59375 
Q 74.5 0 74.203125 0 
Q 71.90625 0 70.5 0.09375 
L 65.09375 0.203125 
L 59.703125 0.09375 
Q 58.296875 0 56 0 
Q 55.703125 0 55.703125 0.59375 
Q 55.703125 1.203125 56 1.203125 
Q 58.703125 1.203125 60 1.75 
Q 61.296875 2.296875 61.796875 3.75 
Q 62.296875 5.203125 62.296875 8.09375 
L 62.296875 24 
Q 62.296875 29.90625 60.1875 32.75 
Q 58.09375 35.59375 53.703125 35.59375 
Q 50.703125 35.59375 47.640625 33.9375 
Q 44.59375 32.296875 42 29.296875 
Q 42.09375 28.796875 42.09375 27.703125 
L 42.09375 8.09375 
Q 42.09375 5.09375 42.59375 3.6875 
Q 43.09375 2.296875 44.390625 1.75 
Q 45.703125 1.203125 48.40625 1.203125 
Q 48.703125 1.203125 48.703125 0.59375 
Q 48.703125 0 48.40625 0 
Q 46.09375 0 44.703125 0.09375 
L 39.296875 0.203125 
L 33.796875 0.09375 
Q 32.5 0 30.203125 0 
Q 29.90625 0 29.90625 0.59375 
Q 29.90625 1.203125 30.203125 1.203125 
Q 32.90625 1.203125 34.203125 1.75 
Q 35.5 2.296875 35.953125 3.6875 
Q 36.40625 5.09375 36.40625 8.09375 
L 36.40625 24 
Q 36.40625 29.90625 34.296875 32.75 
Q 32.203125 35.59375 27.90625 35.59375 
Q 24.90625 35.59375 21.90625 34 
Q 18.90625 32.40625 16.40625 29.5 
L 16.40625 8.09375 
Q 16.40625 5.09375 16.84375 3.6875 
Q 17.296875 2.296875 18.59375 1.75 
Q 19.90625 1.203125 22.59375 1.203125 
Q 22.90625 1.203125 22.90625 0.59375 
Q 22.90625 0 22.59375 0 
Q 20.296875 0 19 0.09375 
L 13.59375 0.203125 
L 8.09375 0.09375 
Q 6.796875 0 4.5 0 
Q 4.203125 0 4.203125 0.59375 
Q 4.203125 1.203125 4.5 1.203125 
Q 7.203125 1.203125 8.5 1.75 
Q 9.796875 2.296875 10.25 3.6875 
Q 10.703125 5.09375 10.703125 8.09375 
L 10.703125 27.90625 
Q 10.703125 31.296875 9.890625 32.796875 
Q 9.09375 34.296875 7.203125 34.296875 
Q 5.59375 34.296875 1.796875 32.796875 
L 1.59375 32.796875 
Q 1.203125 32.796875 1.046875 33.25 
Q 0.90625 33.703125 1.296875 33.90625 
L 12.90625 39.40625 
Q 13.09375 39.5 13.5 39.5 
Q 14.40625 39.5 15.40625 37.203125 
Q 16.40625 34.90625 16.40625 31.296875 
L 16.40625 31.203125 
Q 20 35.59375 23.59375 37.59375 
Q 27.203125 39.59375 31.09375 39.59375 
Q 35.59375 39.59375 38.390625 37.390625 
Q 41.203125 35.203125 41.90625 30.796875 
Q 45.59375 35.296875 49.296875 37.4375 
Q 53 39.59375 57 39.59375 
Q 62.296875 39.59375 65.140625 36.546875 
Q 68 33.5 68 27.5 
L 68 8.09375 
Q 68 5.09375 68.453125 3.6875 
Q 68.90625 2.296875 70.203125 1.75 
Q 71.5 1.203125 74.203125 1.203125 
z
" id="CormorantInfant-Regular-109"/>
       <path d="M 31.90625 39.90625 
Q 36 39.90625 39.5 37.703125 
Q 43 35.5 45.09375 31.296875 
Q 47.203125 27.09375 47.203125 21.5 
Q 47.203125 14 43.796875 8.84375 
Q 40.40625 3.703125 35.453125 1.203125 
Q 30.5 -1.296875 25.703125 -1.296875 
Q 22.59375 -1.296875 20.140625 -0.6875 
Q 17.703125 -0.09375 15.09375 1.296875 
L 15.09375 -19.40625 
Q 15.09375 -22.40625 15.84375 -23.796875 
Q 16.59375 -25.203125 18.6875 -25.75 
Q 20.796875 -26.296875 25.09375 -26.296875 
Q 25.296875 -26.296875 25.296875 -26.890625 
Q 25.296875 -27.5 25.09375 -27.5 
Q 21.703125 -27.5 19.703125 -27.40625 
L 12.40625 -27.296875 
L 6.90625 -27.40625 
Q 5.5 -27.5 3.203125 -27.5 
Q 2.90625 -27.5 2.90625 -26.890625 
Q 2.90625 -26.296875 3.203125 -26.296875 
Q 5.90625 -26.296875 7.203125 -25.75 
Q 8.5 -25.203125 9 -23.796875 
Q 9.5 -22.40625 9.5 -19.40625 
L 9.5 27.59375 
Q 9.5 31.203125 8.703125 32.75 
Q 7.90625 34.296875 5.90625 34.296875 
Q 3.703125 34.296875 0.59375 32.90625 
L 0.40625 32.796875 
Q 0 32.796875 -0.140625 33.296875 
Q -0.296875 33.796875 0 34 
L 11.09375 39.296875 
Q 11.296875 39.40625 11.796875 39.40625 
Q 13.203125 39.40625 14.09375 37.296875 
Q 15 35.203125 15.09375 31.296875 
Q 23.59375 39.90625 31.90625 39.90625 
z
M 28.703125 0.796875 
Q 34 0.796875 37.390625 5.4375 
Q 40.796875 10.09375 40.796875 18.40625 
Q 40.796875 26.796875 37.09375 31.4375 
Q 33.40625 36.09375 27.703125 36.09375 
Q 24.203125 36.09375 21.203125 34.390625 
Q 18.203125 32.703125 15.09375 29.59375 
L 15.09375 7.09375 
Q 17.796875 4 21 2.390625 
Q 24.203125 0.796875 28.703125 0.796875 
z
" id="CormorantInfant-Regular-112"/>
       <path d="M 49.5 1.203125 
Q 49.796875 1.203125 49.796875 0.59375 
Q 49.796875 0 49.5 0 
Q 47.203125 0 45.90625 0.09375 
L 40.5 0.203125 
L 35 0.09375 
Q 33.703125 0 31.40625 0 
Q 31.09375 0 31.09375 0.59375 
Q 31.09375 1.203125 31.40625 1.203125 
Q 34.09375 1.203125 35.390625 1.75 
Q 36.703125 2.296875 37.140625 3.6875 
Q 37.59375 5.09375 37.59375 8.09375 
L 37.59375 24.296875 
Q 37.59375 30.203125 35.34375 33 
Q 33.09375 35.796875 28.40625 35.796875 
Q 25.296875 35.796875 22.140625 34.140625 
Q 19 32.5 16.40625 29.59375 
L 16.40625 8.09375 
Q 16.40625 5.09375 16.84375 3.6875 
Q 17.296875 2.296875 18.59375 1.75 
Q 19.90625 1.203125 22.59375 1.203125 
Q 22.90625 1.203125 22.90625 0.59375 
Q 22.90625 0 22.59375 0 
Q 20.296875 0 19 0.09375 
L 13.59375 0.203125 
L 8.09375 0.09375 
Q 6.796875 0 4.5 0 
Q 4.203125 0 4.203125 0.59375 
Q 4.203125 1.203125 4.5 1.203125 
Q 7.203125 1.203125 8.5 1.75 
Q 9.796875 2.296875 10.25 3.6875 
Q 10.703125 5.09375 10.703125 8.09375 
L 10.703125 27.90625 
Q 10.703125 31.296875 9.890625 32.796875 
Q 9.09375 34.296875 7.203125 34.296875 
Q 5.59375 34.296875 1.796875 32.796875 
L 1.59375 32.796875 
Q 1.203125 32.796875 1.046875 33.25 
Q 0.90625 33.703125 1.296875 33.90625 
L 12.90625 39.40625 
Q 13.09375 39.5 13.5 39.5 
Q 14.40625 39.5 15.40625 37.203125 
Q 16.40625 34.90625 16.40625 31.296875 
Q 20.203125 35.703125 23.953125 37.796875 
Q 27.703125 39.90625 31.703125 39.90625 
Q 37.296875 39.90625 40.296875 36.796875 
Q 43.296875 33.703125 43.296875 27.703125 
L 43.296875 8.09375 
Q 43.296875 5.09375 43.75 3.6875 
Q 44.203125 2.296875 45.5 1.75 
Q 46.796875 1.203125 49.5 1.203125 
z
" id="CormorantInfant-Regular-110"/>
       <path d="M 35.90625 5.59375 
Q 36.203125 5.59375 36.453125 5.25 
Q 36.703125 4.90625 36.5 4.59375 
Q 29.90625 -1.203125 21.90625 -1.203125 
Q 16.09375 -1.203125 12 1.5 
Q 7.90625 4.203125 5.75 8.59375 
Q 3.59375 13 3.59375 18 
Q 3.59375 23.90625 6.390625 28.84375 
Q 9.203125 33.796875 14.046875 36.640625 
Q 18.90625 39.5 24.703125 39.5 
Q 30.296875 39.5 33.296875 36.5 
Q 36.296875 33.5 36.296875 28.09375 
Q 36.296875 26.703125 36.046875 26.09375 
Q 35.796875 25.5 35.203125 25.5 
L 10.40625 25.40625 
Q 10.203125 23.203125 10.203125 21.796875 
Q 10.203125 13.09375 14.296875 7.6875 
Q 18.40625 2.296875 25.796875 2.296875 
Q 28.796875 2.296875 30.9375 3.09375 
Q 33.09375 3.90625 35.796875 5.59375 
z
M 21.40625 37.5 
Q 17.09375 37.5 14.296875 34.640625 
Q 11.5 31.796875 10.59375 26.703125 
L 29.59375 27.09375 
Q 29.59375 32.203125 27.390625 34.84375 
Q 25.203125 37.5 21.40625 37.5 
z
" id="CormorantInfant-Regular-101"/>
       <path d="M 31.09375 5.203125 
Q 31.5 5.203125 31.703125 4.75 
Q 31.90625 4.296875 31.59375 4.09375 
Q 27.90625 1.203125 24.953125 0 
Q 22 -1.203125 18.796875 -1.203125 
Q 14.59375 -1.203125 11.890625 0.6875 
Q 9.203125 2.59375 9.203125 7 
L 9.203125 30.5 
Q 9.203125 33.09375 8.84375 34.1875 
Q 8.5 35.296875 7.5 35.640625 
Q 6.5 36 4.09375 36 
Q 3.703125 36 3.703125 36.640625 
Q 3.703125 37.296875 4.09375 37.296875 
Q 8.09375 37.40625 10.59375 39.453125 
Q 13.09375 41.5 13.5 44.90625 
Q 13.5 45.203125 14.296875 45.203125 
Q 15 45.203125 15 44.90625 
L 15 37.5 
Q 20 37.59375 28.90625 38.5 
Q 29.09375 38.5 29.34375 37.75 
Q 29.59375 37 29.59375 36.09375 
Q 29.59375 35.296875 29.25 34.4375 
Q 28.90625 33.59375 28.5 33.703125 
Q 23 35.09375 15 35.296875 
L 15 10.40625 
Q 15 6.296875 17.046875 4.296875 
Q 19.09375 2.296875 22.90625 2.296875 
Q 27.5 2.296875 30.90625 5.09375 
z
" id="CormorantInfant-Regular-116"/>
       <path id="CormorantInfant-Regular-32"/>
       <path d="M 12.40625 8.296875 
L 28.515625 8.296875 
L 28.515625 63.921875 
L 10.984375 60.40625 
L 10.984375 69.390625 
L 28.421875 72.90625 
L 38.28125 72.90625 
L 38.28125 8.296875 
L 54.390625 8.296875 
L 54.390625 0 
L 12.40625 0 
z
" id="DejaVuSans-49"/>
      </defs>
      <use transform="translate(0 0.09375)" xlink:href="#CormorantInfant-Regular-67"/>
      <use transform="translate(68.599991 0.09375)" xlink:href="#CormorantInfant-Regular-111"/>
      <use transform="translate(116.499985 0.09375)" xlink:href="#CormorantInfant-Regular-109"/>
      <use transform="translate(192.799973 0.09375)" xlink:href="#CormorantInfant-Regular-112"/>
      <use transform="translate(243.899963 0.09375)" xlink:href="#CormorantInfant-Regular-111"/>
      <use transform="translate(291.799957 0.09375)" xlink:href="#CormorantInfant-Regular-110"/>
      <use transform="translate(343.499954 0.09375)" xlink:href="#CormorantInfant-Regular-101"/>
      <use transform="translate(384.299942 0.09375)" xlink:href="#CormorantInfant-Regular-110"/>
      <use transform="translate(435.999939 0.09375)" xlink:href="#CormorantInfant-Regular-116"/>
      <use transform="translate(469.799927 0.09375)" xlink:href="#CormorantInfant-Regular-32"/>
      <use transform="translate(493.199921 0.09375)" xlink:href="#DejaVuSans-49"/>
     </g>
    </g>
    <g id="line2d_26">
     <path d="M 260.924125 279.234 
L 286.124125 279.234 
" style="fill:none;stroke:#83a83b;stroke-linecap:square;stroke-width:1.2;"/>
    </g>
    <g id="line2d_27"/>
    <g id="text_13">
     <!-- Component $2$ -->
     <g style="fill:#3f3d46;" transform="translate(296.204125 283.644)scale(0.126 -0.126)">
      <defs>
       <path d="M 19.1875 8.296875 
L 53.609375 8.296875 
L 53.609375 0 
L 7.328125 0 
L 7.328125 8.296875 
Q 12.9375 14.109375 22.625 23.890625 
Q 32.328125 33.6875 34.8125 36.53125 
Q 39.546875 41.84375 41.421875 45.53125 
Q 43.3125 49.21875 43.3125 52.78125 
Q 43.3125 58.59375 39.234375 62.25 
Q 35.15625 65.921875 28.609375 65.921875 
Q 23.96875 65.921875 18.8125 64.3125 
Q 13.671875 62.703125 7.8125 59.421875 
L 7.8125 69.390625 
Q 13.765625 71.78125 18.9375 73 
Q 24.125 74.21875 28.421875 74.21875 
Q 39.75 74.21875 46.484375 68.546875 
Q 53.21875 62.890625 53.21875 53.421875 
Q 53.21875 48.921875 51.53125 44.890625 
Q 49.859375 40.875 45.40625 35.40625 
Q 44.1875 33.984375 37.640625 27.21875 
Q 31.109375 20.453125 19.1875 8.296875 
z
" id="DejaVuSans-50"/>
      </defs>
      <use transform="translate(0 0.78125)" xlink:href="#CormorantInfant-Regular-67"/>
      <use transform="translate(68.599991 0.78125)" xlink:href="#CormorantInfant-Regular-111"/>
      <use transform="translate(116.499985 0.78125)" xlink:href="#CormorantInfant-Regular-109"/>
      <use transform="translate(192.799973 0.78125)" xlink:href="#CormorantInfant-Regular-112"/>
      <use transform="translate(243.899963 0.78125)" xlink:href="#CormorantInfant-Regular-111"/>
      <use transform="translate(291.799957 0.78125)" xlink:href="#CormorantInfant-Regular-110"/>
      <use transform="translate(343.499954 0.78125)" xlink:href="#CormorantInfant-Regular-101"/>
      <use transform="translate(384.299942 0.78125)" xlink:href="#CormorantInfant-Regular-110"/>
      <use transform="translate(435.999939 0.78125)" xlink:href="#CormorantInfant-Regular-116"/>
      <use transform="translate(469.799927 0.78125)" xlink:href="#CormorantInfant-Regular-32"/>
      <use transform="translate(493.199921 0.78125)" xlink:href="#DejaVuSans-50"/>
     </g>
    </g>
    <g id="line2d_28">
     <path d="M 260.924125 298.26 
L 286.124125 298.26 
" style="fill:none;stroke:#8b008b;stroke-linecap:square;stroke-width:1.2;"/>
    </g>
    <g id="line2d_29"/>
    <g id="text_14">
     <!-- $R_{eff}$ - - Half light radii -->
     <g style="fill:#3f3d46;" transform="translate(296.204125 302.67)scale(0.126 -0.126)">
      <defs>
       <path d="M 48.09375 32.234375 
Q 48.25 33.015625 48.3125 33.84375 
Q 48.390625 34.671875 48.390625 35.5 
Q 48.390625 41.453125 44.890625 44.921875 
Q 41.40625 48.390625 35.40625 48.390625 
Q 28.71875 48.390625 23.578125 44.15625 
Q 18.453125 39.9375 15.828125 32.171875 
z
M 55.90625 25.203125 
L 14.109375 25.203125 
Q 13.8125 23.34375 13.71875 22.265625 
Q 13.625 21.1875 13.625 20.40625 
Q 13.625 13.625 17.796875 9.90625 
Q 21.96875 6.203125 29.59375 6.203125 
Q 35.453125 6.203125 40.671875 7.515625 
Q 45.90625 8.84375 50.390625 11.375 
L 48.6875 2.484375 
Q 43.84375 0.53125 38.6875 -0.4375 
Q 33.546875 -1.421875 28.21875 -1.421875 
Q 16.84375 -1.421875 10.71875 4.015625 
Q 4.59375 9.46875 4.59375 19.484375 
Q 4.59375 28.03125 7.640625 35.375 
Q 10.6875 42.71875 16.609375 48.484375 
Q 20.40625 52.09375 25.65625 54.046875 
Q 30.90625 56 36.8125 56 
Q 46.09375 56 51.578125 50.4375 
Q 57.078125 44.875 57.078125 35.5 
Q 57.078125 33.25 56.78125 30.6875 
Q 56.5 28.125 55.90625 25.203125 
z
" id="DejaVuSans-Oblique-101"/>
       <path d="M 47.796875 75.984375 
L 46.390625 68.5 
L 37.796875 68.5 
Q 32.90625 68.5 30.6875 66.578125 
Q 28.46875 64.65625 27.390625 59.515625 
L 26.421875 54.6875 
L 41.21875 54.6875 
L 39.890625 47.703125 
L 25.09375 47.703125 
L 15.828125 0 
L 6.78125 0 
L 16.109375 47.703125 
L 7.515625 47.703125 
L 8.796875 54.6875 
L 17.390625 54.6875 
L 18.109375 58.5 
Q 19.96875 68.171875 24.625 72.078125 
Q 29.296875 75.984375 39.3125 75.984375 
z
" id="DejaVuSans-Oblique-102"/>
       <path d="M 3.203125 16.5 
Q 3 16.40625 2.84375 17.203125 
Q 2.703125 18 2.703125 18.796875 
Q 2.703125 20.703125 3 20.703125 
L 29.09375 25.40625 
Q 29.296875 25.5 29.4375 24.84375 
Q 29.59375 24.203125 29.59375 23.40625 
Q 29.59375 21.40625 29.09375 21.203125 
L 3.203125 16.5 
z
" id="CormorantInfant-Regular-45"/>
       <path d="M 72.203125 1.203125 
Q 72.5 1.203125 72.5 0.59375 
Q 72.5 0 72.203125 0 
Q 69.09375 0 67.296875 0.09375 
L 60.40625 0.203125 
L 53.09375 0.09375 
Q 51.296875 0 48.296875 0 
Q 48 0 48 0.59375 
Q 48 1.203125 48.296875 1.203125 
Q 52.203125 1.203125 54 1.703125 
Q 55.796875 2.203125 56.4375 3.640625 
Q 57.09375 5.09375 57.09375 8.09375 
L 57.09375 31.5 
L 18.703125 31.5 
L 18.703125 8.09375 
Q 18.703125 5.09375 19.34375 3.640625 
Q 20 2.203125 21.796875 1.703125 
Q 23.59375 1.203125 27.5 1.203125 
Q 27.703125 1.203125 27.703125 0.59375 
Q 27.703125 0 27.5 0 
Q 24.40625 0 22.59375 0.09375 
L 15.40625 0.203125 
L 8.5 0.09375 
Q 6.703125 0 3.5 0 
Q 3.296875 0 3.296875 0.59375 
Q 3.296875 1.203125 3.5 1.203125 
Q 7.296875 1.203125 9.140625 1.703125 
Q 11 2.203125 11.640625 3.640625 
Q 12.296875 5.09375 12.296875 8.09375 
L 12.296875 54.40625 
Q 12.296875 57.40625 11.640625 58.796875 
Q 11 60.203125 9.203125 60.75 
Q 7.40625 61.296875 3.59375 61.296875 
Q 3.40625 61.296875 3.40625 61.890625 
Q 3.40625 62.5 3.59375 62.5 
L 8.703125 62.40625 
Q 12.90625 62.203125 15.40625 62.203125 
Q 18.296875 62.203125 22.703125 62.40625 
L 27.5 62.5 
Q 27.703125 62.5 27.703125 61.890625 
Q 27.703125 61.296875 27.5 61.296875 
Q 23.703125 61.296875 21.84375 60.6875 
Q 20 60.09375 19.34375 58.640625 
Q 18.703125 57.203125 18.703125 54.203125 
L 18.703125 33.59375 
L 57.09375 33.59375 
L 57.09375 54.203125 
Q 57.09375 57.203125 56.4375 58.640625 
Q 55.796875 60.09375 54 60.6875 
Q 52.203125 61.296875 48.296875 61.296875 
Q 48 61.296875 48 61.890625 
Q 48 62.5 48.296875 62.5 
L 53.09375 62.40625 
Q 57.5 62.203125 60.40625 62.203125 
Q 63.09375 62.203125 67.296875 62.40625 
L 72.203125 62.5 
Q 72.5 62.5 72.5 61.890625 
Q 72.5 61.296875 72.203125 61.296875 
Q 68.40625 61.296875 66.59375 60.75 
Q 64.796875 60.203125 64.140625 58.796875 
Q 63.5 57.40625 63.5 54.40625 
L 63.5 8.09375 
Q 63.5 5.09375 64.140625 3.640625 
Q 64.796875 2.203125 66.59375 1.703125 
Q 68.40625 1.203125 72.203125 1.203125 
z
" id="CormorantInfant-Regular-72"/>
       <path d="M 48.296875 5.796875 
Q 48.703125 5.796875 48.84375 5.34375 
Q 49 4.90625 48.59375 4.796875 
L 37 -0.796875 
Q 36.796875 -0.90625 36.5 -0.90625 
Q 35.59375 -0.90625 34.75 1.4375 
Q 33.90625 3.796875 33.796875 7.40625 
Q 30.09375 3.59375 26.296875 1.296875 
Q 22.5 -1 18 -1 
Q 11.90625 -1 7.75 3.5 
Q 3.59375 8 3.59375 16.09375 
Q 3.59375 23.296875 7 28.6875 
Q 10.40625 34.09375 15.546875 37 
Q 20.703125 39.90625 25.90625 39.90625 
Q 31.5 39.90625 35.59375 36.90625 
Q 37.40625 37.90625 38.40625 39.5 
Q 38.5 39.703125 38.890625 39.546875 
Q 39.296875 39.40625 39.296875 39.203125 
L 39.296875 10.703125 
Q 39.296875 7.296875 40.09375 5.84375 
Q 40.90625 4.40625 42.796875 4.40625 
Q 44.5 4.40625 48.09375 5.796875 
z
M 21.40625 2.296875 
Q 24.703125 2.296875 27.75 4.140625 
Q 30.796875 6 33.796875 9 
L 33.796875 29.40625 
Q 33.796875 33.09375 30.59375 35.5 
Q 27.40625 37.90625 23.40625 37.90625 
Q 17.5 37.90625 13.84375 32.65625 
Q 10.203125 27.40625 10.203125 19 
Q 10.203125 11.5 13.25 6.890625 
Q 16.296875 2.296875 21.40625 2.296875 
z
" id="CormorantInfant-Regular-97"/>
       <path d="M 4 0 
Q 3.703125 0 3.703125 0.59375 
Q 3.703125 1.203125 4 1.203125 
Q 6.703125 1.203125 8 1.75 
Q 9.296875 2.296875 9.796875 3.75 
Q 10.296875 5.203125 10.296875 8.09375 
L 10.296875 59.796875 
Q 10.296875 63.40625 9.59375 65 
Q 8.90625 66.59375 7.09375 66.59375 
Q 5.59375 66.59375 2.5 65.203125 
L 2.296875 65.203125 
Q 2 65.203125 1.84375 65.703125 
Q 1.703125 66.203125 2 66.296875 
L 14.796875 72.40625 
Q 15 72.5 15.296875 72.5 
Q 15.5 72.5 15.84375 72.25 
Q 16.203125 72 16.203125 71.703125 
L 16.203125 8.09375 
Q 16.203125 5.203125 16.640625 3.796875 
Q 17.09375 2.40625 18.390625 1.796875 
Q 19.703125 1.203125 22.40625 1.203125 
Q 22.703125 1.203125 22.703125 0.59375 
Q 22.703125 0 22.40625 0 
Q 20.203125 0 18.796875 0.09375 
L 13.203125 0.203125 
L 7.796875 0.09375 
Q 6.40625 0 4 0 
z
" id="CormorantInfant-Regular-108"/>
       <path d="M 31.90625 72.59375 
Q 37 72.59375 40.25 71.046875 
Q 43.5 69.5 43.5 67.296875 
Q 43.5 65.796875 42.453125 64.9375 
Q 41.40625 64.09375 40 64.09375 
Q 38.796875 64.09375 37.890625 64.6875 
Q 37 65.296875 36 66.703125 
Q 34.5 68.796875 32.75 69.84375 
Q 31 70.90625 28.40625 70.90625 
Q 22.59375 70.90625 19.1875 64.203125 
Q 15.796875 57.5 15.796875 43.90625 
L 15.796875 37.5 
Q 20.40625 37.59375 28.59375 38.5 
Q 28.90625 38.5 29.09375 37.796875 
Q 29.296875 37.09375 29.296875 36.09375 
Q 29.296875 35.296875 29 34.4375 
Q 28.703125 33.59375 28.296875 33.703125 
Q 22.5 35.09375 15.796875 35.296875 
L 15.796875 8.09375 
Q 15.796875 5 16.5 3.59375 
Q 17.203125 2.203125 19.203125 1.703125 
Q 21.203125 1.203125 25.59375 1.203125 
Q 25.90625 1.203125 25.90625 0.59375 
Q 25.90625 0 25.59375 0 
L 19.203125 0.09375 
Q 17.09375 0.203125 12.796875 0.203125 
L 7.203125 0.09375 
Q 5.796875 0 3.203125 0 
Q 2.90625 0 2.90625 0.59375 
Q 2.90625 1.203125 3.203125 1.203125 
Q 6.203125 1.203125 7.59375 1.75 
Q 9 2.296875 9.546875 3.6875 
Q 10.09375 5.09375 10.09375 8.09375 
L 10.09375 30.59375 
Q 10.09375 33.203125 9.59375 34.25 
Q 9.09375 35.296875 7.640625 35.640625 
Q 6.203125 36 2.796875 36 
Q 2.5 36 2.5 36.640625 
Q 2.5 37.296875 2.796875 37.296875 
Q 6.90625 37.296875 8.34375 38.25 
Q 9.796875 39.203125 9.90625 41.796875 
Q 10.40625 58 15.84375 65.296875 
Q 21.296875 72.59375 31.90625 72.59375 
z
" id="CormorantInfant-Regular-102"/>
       <path d="M 13.703125 51.203125 
Q 11.59375 51.203125 10.4375 52.296875 
Q 9.296875 53.40625 9.296875 55.40625 
Q 9.296875 57.40625 10.4375 58.5 
Q 11.59375 59.59375 13.703125 59.59375 
Q 15.703125 59.59375 16.796875 58.5 
Q 17.90625 57.40625 17.90625 55.40625 
Q 17.90625 53.40625 16.796875 52.296875 
Q 15.703125 51.203125 13.703125 51.203125 
z
M 5.296875 0 
Q 5.09375 0 5.09375 0.59375 
Q 5.09375 1.203125 5.296875 1.203125 
Q 8 1.203125 9.34375 1.75 
Q 10.703125 2.296875 11.203125 3.75 
Q 11.703125 5.203125 11.703125 8.09375 
L 11.703125 26.796875 
Q 11.703125 30.40625 10.953125 32 
Q 10.203125 33.59375 8.40625 33.59375 
Q 6.59375 33.59375 3.90625 32.203125 
L 3.796875 32.203125 
Q 3.40625 32.203125 3.203125 32.703125 
Q 3 33.203125 3.296875 33.40625 
L 16.296875 39.40625 
L 16.703125 39.5 
Q 16.90625 39.5 17.203125 39.25 
Q 17.5 39 17.5 38.703125 
Q 17.5 38 17.390625 34.703125 
Q 17.296875 31.40625 17.296875 26.90625 
L 17.296875 8.09375 
Q 17.296875 5.09375 17.796875 3.6875 
Q 18.296875 2.296875 19.59375 1.75 
Q 20.90625 1.203125 23.59375 1.203125 
Q 23.90625 1.203125 23.90625 0.59375 
Q 23.90625 0 23.59375 0 
Q 21.296875 0 19.90625 0.09375 
L 14.5 0.203125 
L 9.09375 0.09375 
Q 7.703125 0 5.296875 0 
z
" id="CormorantInfant-Regular-105"/>
       <path d="M 38.40625 39.5 
Q 38.5 39.703125 38.890625 39.546875 
Q 39.296875 39.40625 39.296875 39.203125 
L 39.296875 -7 
Q 39.296875 -16.59375 34.046875 -22.34375 
Q 28.796875 -28.09375 19.40625 -28.09375 
Q 13.40625 -28.09375 9.59375 -25.9375 
Q 5.796875 -23.796875 5.796875 -20.59375 
Q 5.796875 -18.90625 6.6875 -18.09375 
Q 7.59375 -17.296875 8.796875 -17.296875 
Q 10.203125 -17.296875 11.09375 -18.046875 
Q 12 -18.796875 13.296875 -20.5 
Q 15.203125 -23.09375 17.203125 -24.546875 
Q 19.203125 -26 23.203125 -26 
Q 28 -26 30.890625 -22.5 
Q 33.796875 -19 33.796875 -9.40625 
L 33.796875 7.40625 
Q 30.09375 3.59375 26.296875 1.296875 
Q 22.5 -1 18 -1 
Q 11.90625 -1 7.75 3.5 
Q 3.59375 8 3.59375 16.09375 
Q 3.59375 23.296875 7 28.6875 
Q 10.40625 34.09375 15.546875 37 
Q 20.703125 39.90625 25.90625 39.90625 
Q 31.5 39.90625 35.59375 36.90625 
Q 37.40625 37.90625 38.40625 39.5 
z
M 21.40625 2.296875 
Q 24.703125 2.296875 27.75 4.140625 
Q 30.796875 6 33.796875 9 
L 33.796875 29.40625 
Q 33.796875 33.09375 30.59375 35.5 
Q 27.40625 37.90625 23.40625 37.90625 
Q 17.5 37.90625 13.84375 32.65625 
Q 10.203125 27.40625 10.203125 19 
Q 10.203125 11.5 13.25 6.890625 
Q 16.296875 2.296875 21.40625 2.296875 
z
" id="CormorantInfant-Regular-103"/>
       <path d="M 47.703125 1.203125 
Q 48 1.203125 48 0.59375 
Q 48 0 47.703125 0 
Q 45.40625 0 44 0.09375 
L 38.59375 0.203125 
L 33.203125 0.09375 
Q 31.796875 0 29.5 0 
Q 29.203125 0 29.203125 0.59375 
Q 29.203125 1.203125 29.5 1.203125 
Q 32.203125 1.203125 33.5 1.75 
Q 34.796875 2.296875 35.296875 3.75 
Q 35.796875 5.203125 35.796875 8.09375 
L 35.796875 24 
Q 35.796875 29.90625 33.546875 32.75 
Q 31.296875 35.59375 26.59375 35.59375 
Q 23.5 35.59375 20.296875 33.9375 
Q 17.09375 32.296875 14.5 29.40625 
L 14.5 8.09375 
Q 14.5 5.203125 15 3.75 
Q 15.5 2.296875 16.796875 1.75 
Q 18.09375 1.203125 20.796875 1.203125 
Q 21.09375 1.203125 21.09375 0.59375 
Q 21.09375 0 20.796875 0 
Q 18.5 0 17.09375 0.09375 
L 11.703125 0.203125 
L 6.296875 0.09375 
Q 4.90625 0 2.59375 0 
Q 2.296875 0 2.296875 0.59375 
Q 2.296875 1.203125 2.59375 1.203125 
Q 5.296875 1.203125 6.59375 1.75 
Q 7.90625 2.296875 8.40625 3.75 
Q 8.90625 5.203125 8.90625 8.09375 
L 8.90625 59.796875 
Q 8.90625 63.40625 8.203125 65 
Q 7.5 66.59375 5.703125 66.59375 
Q 4.203125 66.59375 1.09375 65.203125 
L 0.90625 65.203125 
Q 0.59375 65.203125 0.390625 65.703125 
Q 0.203125 66.203125 0.59375 66.296875 
L 13.296875 72.5 
L 13.59375 72.5 
Q 14 72.5 14.25 72.25 
Q 14.5 72 14.5 71.703125 
L 14.5 31.09375 
Q 18.296875 35.5 22.046875 37.546875 
Q 25.796875 39.59375 29.90625 39.59375 
Q 35.40625 39.59375 38.40625 36.5 
Q 41.40625 33.40625 41.40625 27.5 
L 41.40625 8.09375 
Q 41.40625 5.203125 41.90625 3.75 
Q 42.40625 2.296875 43.703125 1.75 
Q 45 1.203125 47.703125 1.203125 
z
" id="CormorantInfant-Regular-104"/>
       <path d="M 27.5 39.5 
Q 29.703125 39.5 31.703125 38.296875 
Q 33.703125 37.09375 33.703125 35.40625 
Q 33.703125 34.09375 32.84375 33.1875 
Q 32 32.296875 30.40625 32.296875 
Q 29.5 32.296875 28.84375 32.640625 
Q 28.203125 33 27.296875 33.703125 
Q 26.40625 34.5 25.59375 34.890625 
Q 24.796875 35.296875 23.703125 35.296875 
Q 22.40625 35.296875 20.953125 34.25 
Q 19.5 33.203125 16.40625 29.59375 
L 16.40625 8.09375 
Q 16.40625 5.09375 17.15625 3.6875 
Q 17.90625 2.296875 19.90625 1.75 
Q 21.90625 1.203125 26.09375 1.203125 
Q 26.5 1.203125 26.5 0.59375 
Q 26.5 0 26.09375 0 
Q 22.90625 0 21 0.09375 
L 13.59375 0.203125 
L 8.09375 0.09375 
Q 6.796875 0 4.5 0 
Q 4.203125 0 4.203125 0.59375 
Q 4.203125 1.203125 4.5 1.203125 
Q 7.203125 1.203125 8.5 1.75 
Q 9.796875 2.296875 10.25 3.6875 
Q 10.703125 5.09375 10.703125 8.09375 
L 10.703125 27.90625 
Q 10.703125 31.296875 9.890625 32.796875 
Q 9.09375 34.296875 7.203125 34.296875 
Q 5.59375 34.296875 1.796875 32.796875 
L 1.59375 32.796875 
Q 1.203125 32.796875 1.046875 33.25 
Q 0.90625 33.703125 1.296875 33.90625 
L 12.90625 39.40625 
Q 13.09375 39.5 13.5 39.5 
Q 14.40625 39.5 15.40625 37.203125 
Q 16.40625 34.90625 16.40625 31.296875 
L 16.40625 31.203125 
Q 20.5 36 22.890625 37.75 
Q 25.296875 39.5 27.5 39.5 
z
" id="CormorantInfant-Regular-114"/>
       <path d="M 50.59375 5.703125 
Q 51 5.703125 51.140625 5.203125 
Q 51.296875 4.703125 51 4.5 
L 40 -0.703125 
Q 39.40625 -0.90625 39.203125 -0.90625 
Q 37.90625 -0.90625 37 1.296875 
Q 36.09375 3.5 36 7.40625 
Q 32.296875 3.5 28.25 1.09375 
Q 24.203125 -1.296875 19.203125 -1.296875 
Q 15 -1.296875 11.453125 1.09375 
Q 7.90625 3.5 5.75 7.84375 
Q 3.59375 12.203125 3.59375 17.796875 
Q 3.59375 24.90625 7.09375 29.90625 
Q 10.59375 34.90625 15.890625 37.40625 
Q 21.203125 39.90625 26.40625 39.90625 
Q 31.703125 39.90625 36 37.296875 
L 36 59.703125 
Q 36 63.296875 35.25 64.890625 
Q 34.5 66.5 32.703125 66.5 
Q 31.40625 66.5 28.09375 65.09375 
L 27.90625 65.09375 
Q 27.5 65.09375 27.34375 65.546875 
Q 27.203125 66 27.5 66.203125 
L 40.203125 72.40625 
Q 40.40625 72.5 40.703125 72.5 
Q 40.90625 72.5 41.25 72.25 
Q 41.59375 72 41.59375 71.703125 
L 41.59375 11 
Q 41.59375 7.40625 42.4375 5.796875 
Q 43.296875 4.203125 45.203125 4.203125 
Q 48.09375 4.203125 50.40625 5.59375 
z
M 23.09375 2.296875 
Q 26.703125 2.296875 29.796875 4.046875 
Q 32.90625 5.796875 36 9 
L 36 31 
Q 33.59375 34.296875 30.6875 36.09375 
Q 27.796875 37.90625 23.703125 37.90625 
Q 17.40625 37.90625 13.75 33.453125 
Q 10.09375 29 10.09375 20.796875 
Q 10.09375 15.296875 11.796875 11.09375 
Q 13.5 6.90625 16.453125 4.59375 
Q 19.40625 2.296875 23.09375 2.296875 
z
" id="CormorantInfant-Regular-100"/>
      </defs>
      <use transform="translate(0 0.09375)" xlink:href="#DejaVuSans-Oblique-82"/>
      <use transform="translate(69.482422 -16.3125)scale(0.7)" xlink:href="#DejaVuSans-Oblique-101"/>
      <use transform="translate(112.548828 -16.3125)scale(0.7)" xlink:href="#DejaVuSans-Oblique-102"/>
      <use transform="translate(137.192383 -16.3125)scale(0.7)" xlink:href="#DejaVuSans-Oblique-102"/>
      <use transform="translate(164.570312 0.09375)" xlink:href="#CormorantInfant-Regular-32"/>
      <use transform="translate(187.970306 0.09375)" xlink:href="#CormorantInfant-Regular-45"/>
      <use transform="translate(220.270294 0.09375)" xlink:href="#CormorantInfant-Regular-45"/>
      <use transform="translate(252.570282 0.09375)" xlink:href="#CormorantInfant-Regular-32"/>
      <use transform="translate(275.970276 0.09375)" xlink:href="#CormorantInfant-Regular-72"/>
      <use transform="translate(351.87027 0.09375)" xlink:href="#CormorantInfant-Regular-97"/>
      <use transform="translate(400.870255 0.09375)" xlink:href="#CormorantInfant-Regular-108"/>
      <use transform="translate(426.670242 0.09375)" xlink:href="#CormorantInfant-Regular-102"/>
      <use transform="translate(457.170227 0.09375)" xlink:href="#CormorantInfant-Regular-32"/>
      <use transform="translate(480.570221 0.09375)" xlink:href="#CormorantInfant-Regular-108"/>
      <use transform="translate(506.370209 0.09375)" xlink:href="#CormorantInfant-Regular-105"/>
      <use transform="translate(533.670197 0.09375)" xlink:href="#CormorantInfant-Regular-103"/>
      <use transform="translate(580.270187 0.09375)" xlink:href="#CormorantInfant-Regular-104"/>
      <use transform="translate(630.170181 0.09375)" xlink:href="#CormorantInfant-Regular-116"/>
      <use transform="translate(663.970169 0.09375)" xlink:href="#CormorantInfant-Regular-32"/>
      <use transform="translate(687.370163 0.09375)" xlink:href="#CormorantInfant-Regular-114"/>
      <use transform="translate(723.770157 0.09375)" xlink:href="#CormorantInfant-Regular-97"/>
      <use transform="translate(772.770142 0.09375)" xlink:href="#CormorantInfant-Regular-100"/>
      <use transform="translate(823.970139 0.09375)" xlink:href="#CormorantInfant-Regular-105"/>
      <use transform="translate(851.270126 0.09375)" xlink:href="#CormorantInfant-Regular-105"/>
     </g>
    </g>
   </g>
  </g>
 </g>
 <defs>
  <clipPath id="p64478e714e">
   <rect height="310.464" width="357.12" x="61.178125" y="7.2"/>
  </clipPath>
 </defs>
</svg>
