<?xml version="1.0" encoding="utf-8" standalone="no"?>
<!DOCTYPE svg PUBLIC "-//W3C//DTD SVG 1.1//EN"
  "http://www.w3.org/Graphics/SVG/1.1/DTD/svg11.dtd">
<!-- Created with matplotlib (https://matplotlib.org/) -->
<svg height="411.59952pt" version="1.1" viewBox="0 0 469.19952 411.59952" width="469.19952pt" xmlns="http://www.w3.org/2000/svg" xmlns:xlink="http://www.w3.org/1999/xlink">
 <metadata>
  <rdf:RDF xmlns:cc="http://creativecommons.org/ns#" xmlns:dc="http://purl.org/dc/elements/1.1/" xmlns:rdf="http://www.w3.org/1999/02/22-rdf-syntax-ns#">
   <cc:Work>
    <dc:type rdf:resource="http://purl.org/dc/dcmitype/StillImage"/>
    <dc:date>2020-07-27T02:06:28.759671</dc:date>
    <dc:format>image/svg+xml</dc:format>
    <dc:creator>
     <cc:Agent>
      <dc:title>Matplotlib v3.3.0, https://matplotlib.org/</dc:title>
     </cc:Agent>
    </dc:creator>
   </cc:Work>
  </rdf:RDF>
 </metadata>
 <defs>
  <style type="text/css">*{stroke-linecap:butt;stroke-linejoin:round;}</style>
 </defs>
 <g id="figure_1">
  <g id="patch_1">
   <path d="M 0 411.59952 
L 469.19952 411.59952 
L 469.19952 0 
L 0 0 
z
" style="fill:#ffffff;"/>
  </g>
  <g id="axes_1">
   <g id="patch_2">
    <path d="M 42.778125 372.79952 
L 461.99952 372.79952 
L 461.99952 23.64 
L 42.778125 23.64 
z
" style="fill:#ffffff;"/>
   </g>
   <g id="matplotlib.axis_1">
    <g id="xtick_1">
     <g id="line2d_1">
      <defs>
       <path d="M 0 0 
L 0 6 
" id="m1edf39f870" style="stroke:#3f3d46;stroke-width:0.8;"/>
      </defs>
      <g>
       <use style="fill:#3f3d46;stroke:#3f3d46;stroke-width:0.8;" x="69.233844" xlink:href="#m1edf39f870" y="372.79952"/>
      </g>
     </g>
     <g id="text_1">
      <!-- 0.0 -->
      <g style="fill:#3f3d46;" transform="translate(57.244782 398.89952)scale(0.2 -0.2)">
       <defs>
        <path d="M 25.09375 -1.296875 
Q 19.09375 -1.296875 14.4375 2.796875 
Q 9.796875 6.90625 7.25 14.296875 
Q 4.703125 21.703125 4.703125 31.296875 
Q 4.703125 40.796875 7.296875 48.140625 
Q 9.90625 55.5 14.546875 59.59375 
Q 19.203125 63.703125 25.296875 63.703125 
Q 31.203125 63.703125 35.75 59.59375 
Q 40.296875 55.5 42.796875 48.046875 
Q 45.296875 40.59375 45.296875 31 
Q 45.296875 21.5 42.75 14.140625 
Q 40.203125 6.796875 35.59375 2.75 
Q 31 -1.296875 25.09375 -1.296875 
z
M 26.296875 0.09375 
Q 32.296875 0.09375 35.25 7.84375 
Q 38.203125 15.59375 38.203125 29.796875 
Q 38.203125 45.796875 34.296875 54.09375 
Q 30.40625 62.40625 24.203125 62.40625 
Q 18.203125 62.40625 14.953125 54.203125 
Q 11.703125 46 11.703125 32 
Q 11.703125 17.296875 15.59375 8.6875 
Q 19.5 0.09375 26.296875 0.09375 
z
" id="CormorantInfant-Regular-48"/>
        <path d="M 9.90625 -1.09375 
Q 7.90625 -1.09375 6.703125 0.09375 
Q 5.5 1.296875 5.5 3.203125 
Q 5.5 5.09375 6.703125 6.25 
Q 7.90625 7.40625 9.90625 7.40625 
Q 12 7.40625 13.140625 6.296875 
Q 14.296875 5.203125 14.296875 3.203125 
Q 14.296875 1.203125 13.140625 0.046875 
Q 12 -1.09375 9.90625 -1.09375 
z
" id="CormorantInfant-Regular-46"/>
       </defs>
       <use xlink:href="#CormorantInfant-Regular-48"/>
       <use x="50.099991" xlink:href="#CormorantInfant-Regular-46"/>
       <use x="69.799988" xlink:href="#CormorantInfant-Regular-48"/>
      </g>
     </g>
    </g>
    <g id="xtick_2">
     <g id="line2d_2">
      <g>
       <use style="fill:#3f3d46;stroke:#3f3d46;stroke-width:0.8;" x="143.975876" xlink:href="#m1edf39f870" y="372.79952"/>
      </g>
     </g>
     <g id="text_2">
      <!-- 0.2 -->
      <g style="fill:#3f3d46;" transform="translate(132.516501 398.89952)scale(0.2 -0.2)">
       <defs>
        <path d="M 4 0 
Q 3.5 0 3.140625 0.5 
Q 2.796875 1 3.203125 1.296875 
Q 7 6.09375 9 8.40625 
Q 16.296875 17.296875 20.5 23.09375 
Q 24.703125 28.90625 27.59375 35.046875 
Q 30.5 41.203125 30.5 46.796875 
Q 30.5 52.703125 27.390625 56.046875 
Q 24.296875 59.40625 18.703125 59.40625 
Q 13.703125 59.40625 10.203125 56.546875 
Q 6.703125 53.703125 5 48.40625 
Q 5 48.296875 4.59375 48.296875 
Q 3.796875 48.296875 3.90625 48.703125 
Q 5.296875 55.796875 10 59.6875 
Q 14.703125 63.59375 21.59375 63.59375 
Q 28.796875 63.59375 32.9375 59.4375 
Q 37.09375 55.296875 37.09375 48.796875 
Q 37.09375 43 33.890625 36.796875 
Q 30.703125 30.59375 26.5 25.390625 
Q 22.296875 20.203125 16.09375 13.40625 
Q 15.203125 12.40625 12.953125 9.953125 
Q 10.703125 7.5 9.59375 5.90625 
Q 9.09375 5.203125 10 5.203125 
Q 23 5.203125 28.390625 5.546875 
Q 33.796875 5.90625 36 7.34375 
Q 38.203125 8.796875 38.296875 12.09375 
Q 38.296875 12.296875 38.84375 12.296875 
Q 39.40625 12.296875 39.40625 12.09375 
L 39.296875 1.09375 
Q 39.296875 0.703125 39.046875 0.34375 
Q 38.796875 0 38.40625 0 
L 4 0 
z
" id="CormorantInfant-Regular-50"/>
       </defs>
       <use xlink:href="#CormorantInfant-Regular-48"/>
       <use x="50.099991" xlink:href="#CormorantInfant-Regular-46"/>
       <use x="69.799988" xlink:href="#CormorantInfant-Regular-50"/>
      </g>
     </g>
    </g>
    <g id="xtick_3">
     <g id="line2d_3">
      <g>
       <use style="fill:#3f3d46;stroke:#3f3d46;stroke-width:0.8;" x="218.717907" xlink:href="#m1edf39f870" y="372.79952"/>
      </g>
     </g>
     <g id="text_3">
      <!-- 0.4 -->
      <g style="fill:#3f3d46;" transform="translate(207.047595 398.89952)scale(0.2 -0.2)">
       <defs>
        <path d="M 41.796875 21.90625 
Q 42.203125 21.90625 42.203125 19.796875 
Q 42.203125 17.703125 41.796875 17.703125 
L 33.5 18 
L 33.5 8.09375 
Q 33.5 5.09375 34 3.640625 
Q 34.5 2.203125 36 1.703125 
Q 37.5 1.203125 40.796875 1.203125 
Q 41 1.203125 41 0.59375 
Q 41 0 40.796875 0 
Q 38.203125 0 36.703125 0.09375 
L 30.40625 0.203125 
L 22.90625 0.09375 
Q 21 0 17.703125 0 
Q 17.40625 0 17.40625 0.59375 
Q 17.40625 1.203125 17.703125 1.203125 
Q 22.40625 1.203125 24.296875 1.640625 
Q 26.203125 2.09375 26.796875 3.4375 
Q 27.40625 4.796875 27.40625 8.09375 
L 27.40625 18.203125 
Q 13.796875 18.40625 2.203125 18.40625 
Q 1.703125 18.40625 1.453125 18.75 
Q 1.203125 19.09375 1.5 19.5 
L 31.90625 63 
Q 32.09375 63.203125 32.5 63.203125 
Q 33.5 63.203125 33.5 62.59375 
L 33.5 21.59375 
L 41.796875 21.90625 
z
M 7 21.296875 
Q 15.796875 21.296875 27.40625 21.5 
L 27.40625 52.5 
L 6.5 22 
Q 6.09375 21.296875 7 21.296875 
z
" id="CormorantInfant-Regular-52"/>
       </defs>
       <use xlink:href="#CormorantInfant-Regular-48"/>
       <use x="50.099991" xlink:href="#CormorantInfant-Regular-46"/>
       <use x="69.799988" xlink:href="#CormorantInfant-Regular-52"/>
      </g>
     </g>
    </g>
    <g id="xtick_4">
     <g id="line2d_4">
      <g>
       <use style="fill:#3f3d46;stroke:#3f3d46;stroke-width:0.8;" x="293.459939" xlink:href="#m1edf39f870" y="372.79952"/>
      </g>
     </g>
     <g id="text_4">
      <!-- 0.6 -->
      <g style="fill:#3f3d46;" transform="translate(281.580251 398.89952)scale(0.2 -0.2)">
       <defs>
        <path d="M 29.40625 34 
Q 34 34 37.34375 31.703125 
Q 40.703125 29.40625 42.5 25.59375 
Q 44.296875 21.796875 44.296875 17.40625 
Q 44.296875 12.09375 41.796875 7.84375 
Q 39.296875 3.59375 34.890625 1.140625 
Q 30.5 -1.296875 25 -1.296875 
Q 15.59375 -1.296875 10.796875 5.25 
Q 6 11.796875 6 22.703125 
Q 6 32.59375 9.84375 41.796875 
Q 13.703125 51 20.890625 57.046875 
Q 28.09375 63.09375 37.796875 63.59375 
Q 38.09375 63.59375 38.25 63.140625 
Q 38.40625 62.703125 38 62.59375 
Q 29.90625 60.90625 24.15625 55.09375 
Q 18.40625 49.296875 15.546875 41.09375 
Q 12.703125 32.90625 12.703125 24.203125 
Q 12.703125 14.203125 16.390625 7.390625 
Q 20.09375 0.59375 27.59375 0.59375 
Q 32.703125 0.59375 35.203125 4.296875 
Q 37.703125 8 37.703125 14.59375 
Q 37.703125 22.09375 34.75 26.546875 
Q 31.796875 31 26.703125 31 
Q 22 31 18 27 
L 17.796875 26.90625 
Q 17.40625 26.90625 17.09375 27.25 
Q 16.796875 27.59375 16.90625 27.796875 
Q 19.296875 30.796875 22.546875 32.390625 
Q 25.796875 34 29.40625 34 
z
" id="CormorantInfant-Regular-54"/>
       </defs>
       <use xlink:href="#CormorantInfant-Regular-48"/>
       <use x="50.099991" xlink:href="#CormorantInfant-Regular-46"/>
       <use x="69.799988" xlink:href="#CormorantInfant-Regular-54"/>
      </g>
     </g>
    </g>
    <g id="xtick_5">
     <g id="line2d_5">
      <g>
       <use style="fill:#3f3d46;stroke:#3f3d46;stroke-width:0.8;" x="368.20197" xlink:href="#m1edf39f870" y="372.79952"/>
      </g>
     </g>
     <g id="text_5">
      <!-- 0.8 -->
      <g style="fill:#3f3d46;" transform="translate(356.322283 398.89952)scale(0.2 -0.2)">
       <defs>
        <path d="M 31.09375 35.40625 
Q 37.796875 31.40625 41.4375 27.15625 
Q 45.09375 22.90625 45.09375 16.09375 
Q 45.09375 10.796875 42.34375 6.84375 
Q 39.59375 2.90625 34.9375 0.796875 
Q 30.296875 -1.296875 24.59375 -1.296875 
Q 18.5 -1.296875 14 0.953125 
Q 9.5 3.203125 7.09375 7.09375 
Q 4.703125 11 4.703125 15.796875 
Q 4.703125 22 8.75 27.390625 
Q 12.796875 32.796875 18.703125 35.796875 
Q 14.59375 38.796875 12.4375 42 
Q 10.296875 45.203125 10.296875 49.703125 
Q 10.296875 54 12.59375 57.140625 
Q 14.90625 60.296875 18.59375 61.9375 
Q 22.296875 63.59375 26.203125 63.59375 
Q 30.40625 63.59375 33.703125 61.890625 
Q 37 60.203125 38.84375 57.296875 
Q 40.703125 54.40625 40.703125 51 
Q 40.703125 46.5 38.09375 42.546875 
Q 35.5 38.59375 31.09375 35.40625 
z
M 24.09375 61.90625 
Q 20.296875 61.90625 17.890625 59.40625 
Q 15.5 56.90625 15.5 53.09375 
Q 15.5 49.203125 17.390625 46.25 
Q 19.296875 43.296875 22 41.296875 
Q 24.703125 39.296875 29.703125 36.296875 
L 29.796875 36.296875 
Q 34.796875 41.90625 34.796875 49.796875 
Q 34.796875 55.59375 31.75 58.75 
Q 28.703125 61.90625 24.09375 61.90625 
z
M 27.09375 0.5 
Q 32.796875 0.5 36.140625 3.890625 
Q 39.5 7.296875 39.5 13.40625 
Q 39.5 18 37.390625 21.390625 
Q 35.296875 24.796875 32.34375 27 
Q 29.40625 29.203125 24.09375 32.40625 
Q 23.296875 32.90625 22.25 33.546875 
Q 21.203125 34.203125 20 35 
Q 15.796875 32.203125 13.640625 27.796875 
Q 11.5 23.40625 11.5 18.09375 
Q 11.5 10.5 15.796875 5.5 
Q 20.09375 0.5 27.09375 0.5 
z
" id="CormorantInfant-Regular-56"/>
       </defs>
       <use xlink:href="#CormorantInfant-Regular-48"/>
       <use x="50.099991" xlink:href="#CormorantInfant-Regular-46"/>
       <use x="69.799988" xlink:href="#CormorantInfant-Regular-56"/>
      </g>
     </g>
    </g>
    <g id="xtick_6">
     <g id="line2d_6">
      <g>
       <use style="fill:#3f3d46;stroke:#3f3d46;stroke-width:0.8;" x="442.944002" xlink:href="#m1edf39f870" y="372.79952"/>
      </g>
     </g>
     <g id="text_6">
      <!-- 1.0 -->
      <g style="fill:#3f3d46;" transform="translate(432.05494 398.89952)scale(0.2 -0.2)">
       <defs>
        <path d="M 7.09375 0 
Q 6.90625 0 6.90625 0.59375 
Q 6.90625 1.203125 7.09375 1.203125 
Q 11.796875 1.203125 14.09375 1.75 
Q 16.40625 2.296875 17.34375 3.6875 
Q 18.296875 5.09375 18.296875 8.09375 
L 18.296875 49.296875 
Q 18.296875 54.59375 15.59375 54.59375 
Q 13.09375 54.59375 6.703125 49.796875 
L 6.5 49.703125 
Q 6.09375 49.703125 5.890625 50.203125 
Q 5.703125 50.703125 6.09375 50.90625 
L 22.796875 63.203125 
Q 23.296875 63.5 23.5 63.5 
Q 23.703125 63.5 23.890625 63.296875 
Q 24.09375 63.09375 24.09375 62.90625 
L 24.09375 8.09375 
Q 24.09375 5.09375 24.890625 3.640625 
Q 25.703125 2.203125 28 1.703125 
Q 30.296875 1.203125 35.203125 1.203125 
Q 35.40625 1.203125 35.40625 0.59375 
Q 35.40625 0 35.203125 0 
Q 31.5 0 29.40625 0.09375 
L 21.203125 0.203125 
L 13.09375 0.09375 
Q 10.90625 0 7.09375 0 
z
" id="CormorantInfant-Regular-49"/>
       </defs>
       <use xlink:href="#CormorantInfant-Regular-49"/>
       <use x="39.099991" xlink:href="#CormorantInfant-Regular-46"/>
       <use x="58.799988" xlink:href="#CormorantInfant-Regular-48"/>
      </g>
     </g>
    </g>
   </g>
   <g id="matplotlib.axis_2">
    <g id="ytick_1">
     <g id="line2d_7">
      <defs>
       <path d="M 0 0 
L -6 0 
" id="m6a18754812" style="stroke:#3f3d46;stroke-width:0.8;"/>
      </defs>
      <g>
       <use style="fill:#3f3d46;stroke:#3f3d46;stroke-width:0.8;" x="42.778125" xlink:href="#m6a18754812" y="352.121238"/>
      </g>
     </g>
     <g id="text_7">
      <!-- 0.0 -->
      <g style="fill:#3f3d46;" transform="translate(7.2 359.371238)scale(0.2 -0.2)">
       <use xlink:href="#CormorantInfant-Regular-48"/>
       <use x="50.099991" xlink:href="#CormorantInfant-Regular-46"/>
       <use x="69.799988" xlink:href="#CormorantInfant-Regular-48"/>
      </g>
     </g>
    </g>
    <g id="ytick_2">
     <g id="line2d_8">
      <g>
       <use style="fill:#3f3d46;stroke:#3f3d46;stroke-width:0.8;" x="42.778125" xlink:href="#m6a18754812" y="296.936381"/>
      </g>
     </g>
     <g id="text_8">
      <!-- 0.2 -->
      <g style="fill:#3f3d46;" transform="translate(8.259375 304.186381)scale(0.2 -0.2)">
       <use xlink:href="#CormorantInfant-Regular-48"/>
       <use x="50.099991" xlink:href="#CormorantInfant-Regular-46"/>
       <use x="69.799988" xlink:href="#CormorantInfant-Regular-50"/>
      </g>
     </g>
    </g>
    <g id="ytick_3">
     <g id="line2d_9">
      <g>
       <use style="fill:#3f3d46;stroke:#3f3d46;stroke-width:0.8;" x="42.778125" xlink:href="#m6a18754812" y="241.751523"/>
      </g>
     </g>
     <g id="text_9">
      <!-- 0.4 -->
      <g style="fill:#3f3d46;" transform="translate(7.8375 249.001523)scale(0.2 -0.2)">
       <use xlink:href="#CormorantInfant-Regular-48"/>
       <use x="50.099991" xlink:href="#CormorantInfant-Regular-46"/>
       <use x="69.799988" xlink:href="#CormorantInfant-Regular-52"/>
      </g>
     </g>
    </g>
    <g id="ytick_4">
     <g id="line2d_10">
      <g>
       <use style="fill:#3f3d46;stroke:#3f3d46;stroke-width:0.8;" x="42.778125" xlink:href="#m6a18754812" y="186.566666"/>
      </g>
     </g>
     <g id="text_10">
      <!-- 0.6 -->
      <g style="fill:#3f3d46;" transform="translate(7.41875 193.816666)scale(0.2 -0.2)">
       <use xlink:href="#CormorantInfant-Regular-48"/>
       <use x="50.099991" xlink:href="#CormorantInfant-Regular-46"/>
       <use x="69.799988" xlink:href="#CormorantInfant-Regular-54"/>
      </g>
     </g>
    </g>
    <g id="ytick_5">
     <g id="line2d_11">
      <g>
       <use style="fill:#3f3d46;stroke:#3f3d46;stroke-width:0.8;" x="42.778125" xlink:href="#m6a18754812" y="131.381808"/>
      </g>
     </g>
     <g id="text_11">
      <!-- 0.8 -->
      <g style="fill:#3f3d46;" transform="translate(7.41875 138.631808)scale(0.2 -0.2)">
       <use xlink:href="#CormorantInfant-Regular-48"/>
       <use x="50.099991" xlink:href="#CormorantInfant-Regular-46"/>
       <use x="69.799988" xlink:href="#CormorantInfant-Regular-56"/>
      </g>
     </g>
    </g>
    <g id="ytick_6">
     <g id="line2d_12">
      <g>
       <use style="fill:#3f3d46;stroke:#3f3d46;stroke-width:0.8;" x="42.778125" xlink:href="#m6a18754812" y="76.19695"/>
      </g>
     </g>
     <g id="text_12">
      <!-- 1.0 -->
      <g style="fill:#3f3d46;" transform="translate(9.4 83.44695)scale(0.2 -0.2)">
       <use xlink:href="#CormorantInfant-Regular-49"/>
       <use x="39.099991" xlink:href="#CormorantInfant-Regular-46"/>
       <use x="58.799988" xlink:href="#CormorantInfant-Regular-48"/>
      </g>
     </g>
    </g>
   </g>
   <g id="line2d_13">
    <path clip-path="url(#p3c1abb4c45)" d="M 69.233844 76.19695 
L 72.933945 91.664565 
L 76.634045 110.158475 
L 80.334146 126.002437 
L 84.034246 139.328713 
L 87.734347 151.437303 
L 91.434448 161.549902 
L 95.134548 170.00246 
L 98.834649 176.850832 
L 102.534749 182.903149 
L 106.23485 187.723136 
L 109.93495 191.772425 
L 113.635051 195.256954 
L 117.335152 198.416834 
L 121.035252 201.327978 
L 124.735353 203.820759 
L 128.435453 206.091395 
L 132.135554 208.272518 
L 135.835654 210.176957 
L 139.535755 211.758178 
L 143.235856 213.397339 
L 146.935956 214.88515 
L 150.636057 216.349657 
L 154.336157 217.706457 
L 158.036258 219.198807 
L 161.736358 220.678102 
L 165.436459 221.960633 
L 169.13656 223.44473 
L 172.83666 224.861707 
L 176.536761 226.438781 
L 180.236861 228.116126 
L 183.936962 229.452542 
L 187.637062 230.892235 
L 191.337163 232.537367 
L 195.037264 233.946915 
L 198.737364 235.429963 
L 202.437465 237.015059 
L 206.137565 238.737951 
L 209.837666 240.306746 
L 213.537766 241.846846 
L 217.237867 243.021933 
L 220.937968 244.518397 
L 224.638068 245.841998 
L 228.338169 247.25902 
L 232.038269 248.900295 
L 235.73837 250.289708 
L 239.43847 252.554229 
L 243.138571 254.146341 
L 246.838672 256.009086 
L 250.538772 257.561915 
L 254.238873 259.646584 
L 257.938973 261.328578 
L 261.639074 263.217319 
L 265.339175 265.155699 
L 269.039275 266.98957 
L 272.739376 269.533641 
L 276.439476 271.254015 
L 280.139577 273.232305 
L 283.839677 275.020631 
L 287.539778 277.348874 
L 291.239879 279.105346 
L 294.939979 281.079661 
L 298.64008 283.366911 
L 302.34018 285.08655 
L 306.040281 286.924849 
L 309.740381 288.392173 
L 313.440482 290.281396 
L 317.140583 291.796401 
L 320.840683 293.866616 
L 324.540784 295.930009 
L 328.240884 297.899926 
L 331.940985 300.312609 
L 335.641085 301.368731 
L 339.341186 303.255738 
L 343.041287 304.519164 
L 346.741387 307.339576 
L 350.441488 309.38073 
L 354.141588 310.839109 
L 357.841689 311.17603 
L 361.541789 313.603107 
L 365.24189 317.621059 
L 368.941991 317.262154 
L 372.642091 319.183143 
L 376.342192 320.862619 
L 380.042292 322.542523 
L 383.742393 325.305753 
L 387.442493 324.206408 
L 391.142594 328.351375 
L 394.842695 326.822752 
L 398.542795 325.703299 
L 402.242896 323.963531 
L 405.942996 328.205254 
L 409.643097 330.479766 
L 413.343197 332.604919 
L 417.043298 338.149559 
L 420.743399 334.916365 
L 424.443499 336.793319 
L 428.1436 340.336455 
L 431.8437 343.002361 
L 435.543801 345.512774 
L 439.243901 352.121238 
L 442.944002 348.058458 
" style="fill:none;stroke:#ff0000;stroke-linecap:square;stroke-width:2;"/>
   </g>
   <g id="line2d_14">
    <path clip-path="url(#p3c1abb4c45)" d="M 61.833643 39.510887 
L 65.533744 60.729336 
L 69.233844 76.19695 
L 72.933945 91.664565 
L 76.634045 110.1575 
L 80.334146 125.979926 
L 84.034246 139.278849 
L 87.734347 151.256948 
L 91.434448 161.313321 
L 95.134548 169.696211 
" style="fill:none;stroke:#3572c6;stroke-linecap:square;stroke-width:1.2;"/>
   </g>
   <g id="line2d_15">
    <path clip-path="url(#p3c1abb4c45)" d="M 69.233844 71.534792 
L 72.933945 88.041327 
L 76.634045 104.309289 
L 80.334146 119.526081 
L 84.034246 133.687491 
L 87.734347 146.531954 
L 91.434448 157.882502 
L 95.134548 167.8574 
L 98.834649 176.269847 
L 102.534749 183.436385 
L 106.23485 189.248903 
L 109.93495 194.068649 
L 113.635051 197.887602 
L 117.335152 201.010254 
L 121.035252 203.50604 
L 124.735353 205.578094 
L 128.435453 207.333457 
L 132.135554 208.874516 
L 135.835654 210.309266 
L 139.535755 211.665674 
L 143.235856 213.029319 
L 146.935956 214.387061 
L 150.636057 215.793258 
L 154.336157 217.221384 
L 158.036258 218.696682 
L 161.736358 220.196191 
L 165.436459 221.723964 
L 169.13656 223.267247 
L 172.83666 224.818254 
L 176.536761 226.374109 
L 180.236861 227.923153 
L 183.936962 229.468929 
L 187.637062 231.001271 
L 191.337163 232.526436 
L 195.037264 234.038489 
L 198.737364 235.543939 
L 202.437465 237.041756 
L 206.137565 238.537722 
L 209.837666 240.034998 
L 213.537766 241.538576 
L 217.237867 243.054265 
L 220.937968 244.58636 
L 224.638068 246.141397 
L 228.338169 247.722772 
L 232.038269 249.335926 
L 235.73837 250.982895 
L 239.43847 252.666751 
L 243.138571 254.387744 
L 246.838672 256.1461 
L 250.538772 257.940146 
L 254.238873 259.767534 
L 257.938973 261.624921 
L 261.639074 263.508172 
L 265.339175 265.412857 
L 269.039275 267.334061 
L 272.739376 269.267064 
L 276.439476 271.207146 
L 280.139577 273.150137 
L 283.839677 275.092238 
L 287.539778 277.030512 
L 291.239879 278.962423 
L 294.939979 280.886602 
L 298.64008 282.80167 
L 302.34018 284.707694 
L 306.040281 286.603999 
L 309.740381 288.491481 
L 313.440482 290.36959 
L 317.140583 292.239101 
L 320.840683 294.099165 
L 324.540784 295.949374 
L 328.240884 297.788548 
L 331.940985 299.614216 
L 335.641085 301.42527 
L 339.341186 303.21681 
L 343.041287 304.988448 
L 346.741387 306.733288 
L 350.441488 308.452108 
L 354.141588 310.137456 
L 357.841689 311.79095 
L 361.541789 313.406988 
L 365.24189 314.986482 
L 368.941991 316.528667 
L 372.642091 318.031002 
L 376.342192 319.500245 
L 380.042292 320.927288 
L 383.742393 322.327405 
L 387.442493 323.68316 
L 391.142594 325.015937 
L 394.842695 326.301869 
L 398.542795 327.561087 
L 402.242896 328.770926 
L 405.942996 329.937494 
L 409.643097 331.053263 
L 413.343197 332.093952 
L 417.043298 333.085201 
L 420.743399 333.957343 
L 424.443499 334.785488 
L 428.1436 335.448914 
L 431.8437 336.077896 
L 435.543801 336.512848 
L 439.243901 336.925274 
L 442.944002 337.150528 
" style="fill:none;stroke:#008000;stroke-linecap:square;stroke-width:2;"/>
   </g>
   <g id="line2d_16">
    <path clip-path="url(#p3c1abb4c45)" d="M 69.233844 347.45908 
L 72.933945 348.498001 
L 76.634045 346.272053 
L 80.334146 345.644882 
L 84.034246 346.480016 
L 87.734347 347.21589 
L 91.434448 348.453838 
L 95.134548 349.976179 
L 98.834649 351.540254 
L 102.534749 352.654475 
L 106.23485 353.647006 
L 109.93495 354.417462 
L 113.635051 354.751887 
L 117.335152 354.714658 
L 121.035252 354.299301 
L 124.735353 353.878574 
L 128.435453 353.363301 
L 132.135554 352.723236 
L 135.835654 352.253547 
L 139.535755 352.028734 
L 143.235856 351.753218 
L 146.935956 351.623149 
L 150.636057 351.564839 
L 154.336157 351.636165 
L 158.036258 351.619113 
L 161.736358 351.639328 
L 165.436459 351.88457 
L 169.13656 351.943756 
L 172.83666 352.077785 
L 176.536761 352.056566 
L 180.236861 351.928266 
L 183.936962 352.137625 
L 187.637062 352.230275 
L 191.337163 352.110308 
L 195.037264 352.212812 
L 198.737364 352.235215 
L 202.437465 352.147935 
L 206.137565 351.921009 
L 209.837666 351.84949 
L 213.537766 351.812968 
L 217.237867 352.153571 
L 220.937968 352.189201 
L 224.638068 352.420638 
L 228.338169 352.584991 
L 232.038269 352.55687 
L 235.73837 352.814425 
L 239.43847 352.233761 
L 243.138571 352.362642 
L 246.838672 352.258252 
L 250.538772 352.499469 
L 254.238873 352.242188 
L 257.938973 352.417582 
L 261.639074 352.412091 
L 265.339175 352.378397 
L 269.039275 352.465729 
L 272.739376 351.854661 
L 276.439476 352.07437 
L 280.139577 352.03907 
L 283.839677 352.192845 
L 287.539778 351.802877 
L 291.239879 351.978315 
L 294.939979 351.92818 
L 298.64008 351.555998 
L 302.34018 351.742381 
L 306.040281 351.800388 
L 309.740381 352.220546 
L 313.440482 352.209433 
L 317.140583 352.563938 
L 320.840683 352.353788 
L 324.540784 352.140604 
L 328.240884 352.00986 
L 331.940985 351.422845 
L 335.641085 352.177778 
L 339.341186 352.08231 
L 343.041287 352.590523 
L 346.741387 351.514949 
L 350.441488 351.192617 
L 354.141588 351.419585 
L 357.841689 352.736159 
L 361.541789 351.92512 
L 365.24189 349.486662 
L 368.941991 351.387752 
L 372.642091 350.969098 
L 376.342192 350.758864 
L 380.042292 350.506003 
L 383.742393 349.142891 
L 387.442493 351.597991 
L 391.142594 348.7858 
L 394.842695 351.600356 
L 398.542795 353.979027 
L 402.242896 356.928633 
L 405.942996 353.853478 
L 409.643097 352.694735 
L 413.343197 351.610271 
L 417.043298 347.05688 
L 420.743399 351.162216 
L 424.443499 350.113407 
L 428.1436 347.233698 
L 431.8437 345.196774 
L 435.543801 343.121312 
L 439.243901 336.925274 
L 442.944002 341.213309 
" style="fill:none;stroke:#83a83b;stroke-linecap:square;stroke-width:2;"/>
   </g>
   <g id="patch_3">
    <path d="M 42.778125 372.79952 
L 42.778125 23.64 
" style="fill:none;stroke:#6a737d;stroke-linecap:square;stroke-linejoin:miter;stroke-width:1.12;"/>
   </g>
   <g id="patch_4">
    <path d="M 461.99952 372.79952 
L 461.99952 23.64 
" style="fill:none;stroke:#6a737d;stroke-linecap:square;stroke-linejoin:miter;stroke-width:1.12;"/>
   </g>
   <g id="patch_5">
    <path d="M 42.778125 372.79952 
L 461.99952 372.79952 
" style="fill:none;stroke:#6a737d;stroke-linecap:square;stroke-linejoin:miter;stroke-width:1.12;"/>
   </g>
   <g id="patch_6">
    <path d="M 42.778125 23.64 
L 461.99952 23.64 
" style="fill:none;stroke:#6a737d;stroke-linecap:square;stroke-linejoin:miter;stroke-width:1.12;"/>
   </g>
   <g id="text_13">
    <!-- Information lost = $3.70\%$ -->
    <g style="fill:#3f3d46;" transform="translate(176.500823 17.64)scale(0.144 -0.144)">
     <defs>
      <path d="M 19.90625 8.09375 
Q 19.90625 5.09375 20.5 3.640625 
Q 21.09375 2.203125 22.84375 1.703125 
Q 24.59375 1.203125 28.40625 1.203125 
Q 28.703125 1.203125 28.703125 0.59375 
Q 28.703125 0 28.40625 0 
Q 25.40625 0 23.59375 0.09375 
L 16.5 0.203125 
L 9.59375 0.09375 
Q 7.796875 0 4.703125 0 
Q 4.40625 0 4.40625 0.59375 
Q 4.40625 1.203125 4.703125 1.203125 
Q 8.5 1.203125 10.25 1.703125 
Q 12 2.203125 12.640625 3.640625 
Q 13.296875 5.09375 13.296875 8.09375 
L 13.296875 54.40625 
Q 13.296875 57.40625 12.640625 58.796875 
Q 12 60.203125 10.25 60.75 
Q 8.5 61.296875 4.703125 61.296875 
Q 4.40625 61.296875 4.40625 61.890625 
Q 4.40625 62.5 4.703125 62.5 
L 9.59375 62.40625 
Q 13.796875 62.203125 16.5 62.203125 
Q 19.5 62.203125 23.703125 62.40625 
L 28.40625 62.5 
Q 28.703125 62.5 28.703125 61.890625 
Q 28.703125 61.296875 28.40625 61.296875 
Q 24.703125 61.296875 22.953125 60.6875 
Q 21.203125 60.09375 20.546875 58.640625 
Q 19.90625 57.203125 19.90625 54.203125 
L 19.90625 8.09375 
z
" id="CormorantInfant-Regular-73"/>
      <path d="M 49.5 1.203125 
Q 49.796875 1.203125 49.796875 0.59375 
Q 49.796875 0 49.5 0 
Q 47.203125 0 45.90625 0.09375 
L 40.5 0.203125 
L 35 0.09375 
Q 33.703125 0 31.40625 0 
Q 31.09375 0 31.09375 0.59375 
Q 31.09375 1.203125 31.40625 1.203125 
Q 34.09375 1.203125 35.390625 1.75 
Q 36.703125 2.296875 37.140625 3.6875 
Q 37.59375 5.09375 37.59375 8.09375 
L 37.59375 24.296875 
Q 37.59375 30.203125 35.34375 33 
Q 33.09375 35.796875 28.40625 35.796875 
Q 25.296875 35.796875 22.140625 34.140625 
Q 19 32.5 16.40625 29.59375 
L 16.40625 8.09375 
Q 16.40625 5.09375 16.84375 3.6875 
Q 17.296875 2.296875 18.59375 1.75 
Q 19.90625 1.203125 22.59375 1.203125 
Q 22.90625 1.203125 22.90625 0.59375 
Q 22.90625 0 22.59375 0 
Q 20.296875 0 19 0.09375 
L 13.59375 0.203125 
L 8.09375 0.09375 
Q 6.796875 0 4.5 0 
Q 4.203125 0 4.203125 0.59375 
Q 4.203125 1.203125 4.5 1.203125 
Q 7.203125 1.203125 8.5 1.75 
Q 9.796875 2.296875 10.25 3.6875 
Q 10.703125 5.09375 10.703125 8.09375 
L 10.703125 27.90625 
Q 10.703125 31.296875 9.890625 32.796875 
Q 9.09375 34.296875 7.203125 34.296875 
Q 5.59375 34.296875 1.796875 32.796875 
L 1.59375 32.796875 
Q 1.203125 32.796875 1.046875 33.25 
Q 0.90625 33.703125 1.296875 33.90625 
L 12.90625 39.40625 
Q 13.09375 39.5 13.5 39.5 
Q 14.40625 39.5 15.40625 37.203125 
Q 16.40625 34.90625 16.40625 31.296875 
Q 20.203125 35.703125 23.953125 37.796875 
Q 27.703125 39.90625 31.703125 39.90625 
Q 37.296875 39.90625 40.296875 36.796875 
Q 43.296875 33.703125 43.296875 27.703125 
L 43.296875 8.09375 
Q 43.296875 5.09375 43.75 3.6875 
Q 44.203125 2.296875 45.5 1.75 
Q 46.796875 1.203125 49.5 1.203125 
z
" id="CormorantInfant-Regular-110"/>
      <path d="M 31.90625 72.59375 
Q 37 72.59375 40.25 71.046875 
Q 43.5 69.5 43.5 67.296875 
Q 43.5 65.796875 42.453125 64.9375 
Q 41.40625 64.09375 40 64.09375 
Q 38.796875 64.09375 37.890625 64.6875 
Q 37 65.296875 36 66.703125 
Q 34.5 68.796875 32.75 69.84375 
Q 31 70.90625 28.40625 70.90625 
Q 22.59375 70.90625 19.1875 64.203125 
Q 15.796875 57.5 15.796875 43.90625 
L 15.796875 37.5 
Q 20.40625 37.59375 28.59375 38.5 
Q 28.90625 38.5 29.09375 37.796875 
Q 29.296875 37.09375 29.296875 36.09375 
Q 29.296875 35.296875 29 34.4375 
Q 28.703125 33.59375 28.296875 33.703125 
Q 22.5 35.09375 15.796875 35.296875 
L 15.796875 8.09375 
Q 15.796875 5 16.5 3.59375 
Q 17.203125 2.203125 19.203125 1.703125 
Q 21.203125 1.203125 25.59375 1.203125 
Q 25.90625 1.203125 25.90625 0.59375 
Q 25.90625 0 25.59375 0 
L 19.203125 0.09375 
Q 17.09375 0.203125 12.796875 0.203125 
L 7.203125 0.09375 
Q 5.796875 0 3.203125 0 
Q 2.90625 0 2.90625 0.59375 
Q 2.90625 1.203125 3.203125 1.203125 
Q 6.203125 1.203125 7.59375 1.75 
Q 9 2.296875 9.546875 3.6875 
Q 10.09375 5.09375 10.09375 8.09375 
L 10.09375 30.59375 
Q 10.09375 33.203125 9.59375 34.25 
Q 9.09375 35.296875 7.640625 35.640625 
Q 6.203125 36 2.796875 36 
Q 2.5 36 2.5 36.640625 
Q 2.5 37.296875 2.796875 37.296875 
Q 6.90625 37.296875 8.34375 38.25 
Q 9.796875 39.203125 9.90625 41.796875 
Q 10.40625 58 15.84375 65.296875 
Q 21.296875 72.59375 31.90625 72.59375 
z
" id="CormorantInfant-Regular-102"/>
      <path d="M 23.09375 -1.296875 
Q 17.296875 -1.296875 12.84375 1.546875 
Q 8.40625 4.40625 6 9.25 
Q 3.59375 14.09375 3.59375 19.796875 
Q 3.59375 26.296875 6.75 30.84375 
Q 9.90625 35.40625 14.84375 37.65625 
Q 19.796875 39.90625 24.90625 39.90625 
Q 30.796875 39.90625 35.1875 37 
Q 39.59375 34.09375 41.9375 29.34375 
Q 44.296875 24.59375 44.296875 19.296875 
Q 44.296875 13.09375 41.390625 8.4375 
Q 38.5 3.796875 33.640625 1.25 
Q 28.796875 -1.296875 23.09375 -1.296875 
z
M 26 0.59375 
Q 31.5 0.59375 34.5 4.5 
Q 37.5 8.40625 37.5 16.5 
Q 37.5 22.703125 35.453125 27.59375 
Q 33.40625 32.5 29.796875 35.25 
Q 26.203125 38 21.59375 38 
Q 16.203125 38 13.25 34.09375 
Q 10.296875 30.203125 10.296875 22.90625 
Q 10.296875 16.796875 12.296875 11.6875 
Q 14.296875 6.59375 17.890625 3.59375 
Q 21.5 0.59375 26 0.59375 
z
" id="CormorantInfant-Regular-111"/>
      <path d="M 27.5 39.5 
Q 29.703125 39.5 31.703125 38.296875 
Q 33.703125 37.09375 33.703125 35.40625 
Q 33.703125 34.09375 32.84375 33.1875 
Q 32 32.296875 30.40625 32.296875 
Q 29.5 32.296875 28.84375 32.640625 
Q 28.203125 33 27.296875 33.703125 
Q 26.40625 34.5 25.59375 34.890625 
Q 24.796875 35.296875 23.703125 35.296875 
Q 22.40625 35.296875 20.953125 34.25 
Q 19.5 33.203125 16.40625 29.59375 
L 16.40625 8.09375 
Q 16.40625 5.09375 17.15625 3.6875 
Q 17.90625 2.296875 19.90625 1.75 
Q 21.90625 1.203125 26.09375 1.203125 
Q 26.5 1.203125 26.5 0.59375 
Q 26.5 0 26.09375 0 
Q 22.90625 0 21 0.09375 
L 13.59375 0.203125 
L 8.09375 0.09375 
Q 6.796875 0 4.5 0 
Q 4.203125 0 4.203125 0.59375 
Q 4.203125 1.203125 4.5 1.203125 
Q 7.203125 1.203125 8.5 1.75 
Q 9.796875 2.296875 10.25 3.6875 
Q 10.703125 5.09375 10.703125 8.09375 
L 10.703125 27.90625 
Q 10.703125 31.296875 9.890625 32.796875 
Q 9.09375 34.296875 7.203125 34.296875 
Q 5.59375 34.296875 1.796875 32.796875 
L 1.59375 32.796875 
Q 1.203125 32.796875 1.046875 33.25 
Q 0.90625 33.703125 1.296875 33.90625 
L 12.90625 39.40625 
Q 13.09375 39.5 13.5 39.5 
Q 14.40625 39.5 15.40625 37.203125 
Q 16.40625 34.90625 16.40625 31.296875 
L 16.40625 31.203125 
Q 20.5 36 22.890625 37.75 
Q 25.296875 39.5 27.5 39.5 
z
" id="CormorantInfant-Regular-114"/>
      <path d="M 74.203125 1.203125 
Q 74.5 1.203125 74.5 0.59375 
Q 74.5 0 74.203125 0 
Q 71.90625 0 70.5 0.09375 
L 65.09375 0.203125 
L 59.703125 0.09375 
Q 58.296875 0 56 0 
Q 55.703125 0 55.703125 0.59375 
Q 55.703125 1.203125 56 1.203125 
Q 58.703125 1.203125 60 1.75 
Q 61.296875 2.296875 61.796875 3.75 
Q 62.296875 5.203125 62.296875 8.09375 
L 62.296875 24 
Q 62.296875 29.90625 60.1875 32.75 
Q 58.09375 35.59375 53.703125 35.59375 
Q 50.703125 35.59375 47.640625 33.9375 
Q 44.59375 32.296875 42 29.296875 
Q 42.09375 28.796875 42.09375 27.703125 
L 42.09375 8.09375 
Q 42.09375 5.09375 42.59375 3.6875 
Q 43.09375 2.296875 44.390625 1.75 
Q 45.703125 1.203125 48.40625 1.203125 
Q 48.703125 1.203125 48.703125 0.59375 
Q 48.703125 0 48.40625 0 
Q 46.09375 0 44.703125 0.09375 
L 39.296875 0.203125 
L 33.796875 0.09375 
Q 32.5 0 30.203125 0 
Q 29.90625 0 29.90625 0.59375 
Q 29.90625 1.203125 30.203125 1.203125 
Q 32.90625 1.203125 34.203125 1.75 
Q 35.5 2.296875 35.953125 3.6875 
Q 36.40625 5.09375 36.40625 8.09375 
L 36.40625 24 
Q 36.40625 29.90625 34.296875 32.75 
Q 32.203125 35.59375 27.90625 35.59375 
Q 24.90625 35.59375 21.90625 34 
Q 18.90625 32.40625 16.40625 29.5 
L 16.40625 8.09375 
Q 16.40625 5.09375 16.84375 3.6875 
Q 17.296875 2.296875 18.59375 1.75 
Q 19.90625 1.203125 22.59375 1.203125 
Q 22.90625 1.203125 22.90625 0.59375 
Q 22.90625 0 22.59375 0 
Q 20.296875 0 19 0.09375 
L 13.59375 0.203125 
L 8.09375 0.09375 
Q 6.796875 0 4.5 0 
Q 4.203125 0 4.203125 0.59375 
Q 4.203125 1.203125 4.5 1.203125 
Q 7.203125 1.203125 8.5 1.75 
Q 9.796875 2.296875 10.25 3.6875 
Q 10.703125 5.09375 10.703125 8.09375 
L 10.703125 27.90625 
Q 10.703125 31.296875 9.890625 32.796875 
Q 9.09375 34.296875 7.203125 34.296875 
Q 5.59375 34.296875 1.796875 32.796875 
L 1.59375 32.796875 
Q 1.203125 32.796875 1.046875 33.25 
Q 0.90625 33.703125 1.296875 33.90625 
L 12.90625 39.40625 
Q 13.09375 39.5 13.5 39.5 
Q 14.40625 39.5 15.40625 37.203125 
Q 16.40625 34.90625 16.40625 31.296875 
L 16.40625 31.203125 
Q 20 35.59375 23.59375 37.59375 
Q 27.203125 39.59375 31.09375 39.59375 
Q 35.59375 39.59375 38.390625 37.390625 
Q 41.203125 35.203125 41.90625 30.796875 
Q 45.59375 35.296875 49.296875 37.4375 
Q 53 39.59375 57 39.59375 
Q 62.296875 39.59375 65.140625 36.546875 
Q 68 33.5 68 27.5 
L 68 8.09375 
Q 68 5.09375 68.453125 3.6875 
Q 68.90625 2.296875 70.203125 1.75 
Q 71.5 1.203125 74.203125 1.203125 
z
" id="CormorantInfant-Regular-109"/>
      <path d="M 48.296875 5.796875 
Q 48.703125 5.796875 48.84375 5.34375 
Q 49 4.90625 48.59375 4.796875 
L 37 -0.796875 
Q 36.796875 -0.90625 36.5 -0.90625 
Q 35.59375 -0.90625 34.75 1.4375 
Q 33.90625 3.796875 33.796875 7.40625 
Q 30.09375 3.59375 26.296875 1.296875 
Q 22.5 -1 18 -1 
Q 11.90625 -1 7.75 3.5 
Q 3.59375 8 3.59375 16.09375 
Q 3.59375 23.296875 7 28.6875 
Q 10.40625 34.09375 15.546875 37 
Q 20.703125 39.90625 25.90625 39.90625 
Q 31.5 39.90625 35.59375 36.90625 
Q 37.40625 37.90625 38.40625 39.5 
Q 38.5 39.703125 38.890625 39.546875 
Q 39.296875 39.40625 39.296875 39.203125 
L 39.296875 10.703125 
Q 39.296875 7.296875 40.09375 5.84375 
Q 40.90625 4.40625 42.796875 4.40625 
Q 44.5 4.40625 48.09375 5.796875 
z
M 21.40625 2.296875 
Q 24.703125 2.296875 27.75 4.140625 
Q 30.796875 6 33.796875 9 
L 33.796875 29.40625 
Q 33.796875 33.09375 30.59375 35.5 
Q 27.40625 37.90625 23.40625 37.90625 
Q 17.5 37.90625 13.84375 32.65625 
Q 10.203125 27.40625 10.203125 19 
Q 10.203125 11.5 13.25 6.890625 
Q 16.296875 2.296875 21.40625 2.296875 
z
" id="CormorantInfant-Regular-97"/>
      <path d="M 31.09375 5.203125 
Q 31.5 5.203125 31.703125 4.75 
Q 31.90625 4.296875 31.59375 4.09375 
Q 27.90625 1.203125 24.953125 0 
Q 22 -1.203125 18.796875 -1.203125 
Q 14.59375 -1.203125 11.890625 0.6875 
Q 9.203125 2.59375 9.203125 7 
L 9.203125 30.5 
Q 9.203125 33.09375 8.84375 34.1875 
Q 8.5 35.296875 7.5 35.640625 
Q 6.5 36 4.09375 36 
Q 3.703125 36 3.703125 36.640625 
Q 3.703125 37.296875 4.09375 37.296875 
Q 8.09375 37.40625 10.59375 39.453125 
Q 13.09375 41.5 13.5 44.90625 
Q 13.5 45.203125 14.296875 45.203125 
Q 15 45.203125 15 44.90625 
L 15 37.5 
Q 20 37.59375 28.90625 38.5 
Q 29.09375 38.5 29.34375 37.75 
Q 29.59375 37 29.59375 36.09375 
Q 29.59375 35.296875 29.25 34.4375 
Q 28.90625 33.59375 28.5 33.703125 
Q 23 35.09375 15 35.296875 
L 15 10.40625 
Q 15 6.296875 17.046875 4.296875 
Q 19.09375 2.296875 22.90625 2.296875 
Q 27.5 2.296875 30.90625 5.09375 
z
" id="CormorantInfant-Regular-116"/>
      <path d="M 13.703125 51.203125 
Q 11.59375 51.203125 10.4375 52.296875 
Q 9.296875 53.40625 9.296875 55.40625 
Q 9.296875 57.40625 10.4375 58.5 
Q 11.59375 59.59375 13.703125 59.59375 
Q 15.703125 59.59375 16.796875 58.5 
Q 17.90625 57.40625 17.90625 55.40625 
Q 17.90625 53.40625 16.796875 52.296875 
Q 15.703125 51.203125 13.703125 51.203125 
z
M 5.296875 0 
Q 5.09375 0 5.09375 0.59375 
Q 5.09375 1.203125 5.296875 1.203125 
Q 8 1.203125 9.34375 1.75 
Q 10.703125 2.296875 11.203125 3.75 
Q 11.703125 5.203125 11.703125 8.09375 
L 11.703125 26.796875 
Q 11.703125 30.40625 10.953125 32 
Q 10.203125 33.59375 8.40625 33.59375 
Q 6.59375 33.59375 3.90625 32.203125 
L 3.796875 32.203125 
Q 3.40625 32.203125 3.203125 32.703125 
Q 3 33.203125 3.296875 33.40625 
L 16.296875 39.40625 
L 16.703125 39.5 
Q 16.90625 39.5 17.203125 39.25 
Q 17.5 39 17.5 38.703125 
Q 17.5 38 17.390625 34.703125 
Q 17.296875 31.40625 17.296875 26.90625 
L 17.296875 8.09375 
Q 17.296875 5.09375 17.796875 3.6875 
Q 18.296875 2.296875 19.59375 1.75 
Q 20.90625 1.203125 23.59375 1.203125 
Q 23.90625 1.203125 23.90625 0.59375 
Q 23.90625 0 23.59375 0 
Q 21.296875 0 19.90625 0.09375 
L 14.5 0.203125 
L 9.09375 0.09375 
Q 7.703125 0 5.296875 0 
z
" id="CormorantInfant-Regular-105"/>
      <path id="CormorantInfant-Regular-32"/>
      <path d="M 4 0 
Q 3.703125 0 3.703125 0.59375 
Q 3.703125 1.203125 4 1.203125 
Q 6.703125 1.203125 8 1.75 
Q 9.296875 2.296875 9.796875 3.75 
Q 10.296875 5.203125 10.296875 8.09375 
L 10.296875 59.796875 
Q 10.296875 63.40625 9.59375 65 
Q 8.90625 66.59375 7.09375 66.59375 
Q 5.59375 66.59375 2.5 65.203125 
L 2.296875 65.203125 
Q 2 65.203125 1.84375 65.703125 
Q 1.703125 66.203125 2 66.296875 
L 14.796875 72.40625 
Q 15 72.5 15.296875 72.5 
Q 15.5 72.5 15.84375 72.25 
Q 16.203125 72 16.203125 71.703125 
L 16.203125 8.09375 
Q 16.203125 5.203125 16.640625 3.796875 
Q 17.09375 2.40625 18.390625 1.796875 
Q 19.703125 1.203125 22.40625 1.203125 
Q 22.703125 1.203125 22.703125 0.59375 
Q 22.703125 0 22.40625 0 
Q 20.203125 0 18.796875 0.09375 
L 13.203125 0.203125 
L 7.796875 0.09375 
Q 6.40625 0 4 0 
z
" id="CormorantInfant-Regular-108"/>
      <path d="M 10 32.5 
Q 10 29 12.296875 26.953125 
Q 14.59375 24.90625 19.09375 22.59375 
Q 22.59375 20.796875 24.546875 19.5 
Q 26.5 18.203125 27.890625 16.09375 
Q 29.296875 14 29.296875 11 
Q 29.296875 5.90625 25.5 2.40625 
Q 21.703125 -1.09375 15.203125 -1.09375 
Q 9.90625 -1.09375 5.59375 1.90625 
Q 5 2.296875 5 3.09375 
L 4.796875 10.90625 
Q 4.796875 11.203125 5.34375 11.25 
Q 5.90625 11.296875 6 11 
Q 7.90625 6 10.953125 3.390625 
Q 14 0.796875 18 0.796875 
Q 21.09375 0.796875 22.84375 2.25 
Q 24.59375 3.703125 24.59375 6.59375 
Q 24.59375 9.40625 23.34375 11.34375 
Q 22.09375 13.296875 20.296875 14.4375 
Q 18.5 15.59375 15.40625 17.203125 
Q 12.09375 18.796875 10.140625 20.09375 
Q 8.203125 21.40625 6.84375 23.5 
Q 5.5 25.59375 5.5 28.703125 
Q 5.5 34.09375 9.546875 36.9375 
Q 13.59375 39.796875 19.09375 39.796875 
Q 23.09375 39.796875 26.40625 38.296875 
Q 27 38.09375 27.140625 37.84375 
Q 27.296875 37.59375 27.296875 37.203125 
Q 27.296875 35.203125 27.203125 34.09375 
L 27.09375 29.90625 
Q 27.09375 29.703125 26.5 29.703125 
Q 25.90625 29.703125 25.90625 29.90625 
Q 25.90625 32 24.296875 33.84375 
Q 22.703125 35.703125 20.296875 36.796875 
Q 17.90625 37.90625 15.5 37.90625 
Q 12.90625 37.90625 11.453125 36.546875 
Q 10 35.203125 10 32.5 
z
" id="CormorantInfant-Regular-115"/>
      <path d="M 3.40625 24 
Q 3.203125 24 3.046875 24.640625 
Q 2.90625 25.296875 2.90625 26.09375 
Q 2.90625 26.796875 3.046875 27.34375 
Q 3.203125 27.90625 3.296875 27.90625 
L 43.40625 27.90625 
Q 43.59375 27.90625 43.75 27.296875 
Q 43.90625 26.703125 43.90625 26 
Q 43.90625 25.296875 43.75 24.640625 
Q 43.59375 24 43.40625 24 
L 3.40625 24 
z
M 3.40625 10 
Q 3.203125 10 3.046875 10.640625 
Q 2.90625 11.296875 2.90625 12.09375 
Q 2.90625 12.796875 3.046875 13.34375 
Q 3.203125 13.90625 3.296875 13.90625 
L 43.40625 13.90625 
Q 43.59375 13.90625 43.75 13.296875 
Q 43.90625 12.703125 43.90625 12 
Q 43.90625 11.296875 43.75 10.640625 
Q 43.59375 10 43.40625 10 
L 3.40625 10 
z
" id="CormorantInfant-Regular-61"/>
      <path d="M 40.578125 39.3125 
Q 47.65625 37.796875 51.625 33 
Q 55.609375 28.21875 55.609375 21.1875 
Q 55.609375 10.40625 48.1875 4.484375 
Q 40.765625 -1.421875 27.09375 -1.421875 
Q 22.515625 -1.421875 17.65625 -0.515625 
Q 12.796875 0.390625 7.625 2.203125 
L 7.625 11.71875 
Q 11.71875 9.328125 16.59375 8.109375 
Q 21.484375 6.890625 26.8125 6.890625 
Q 36.078125 6.890625 40.9375 10.546875 
Q 45.796875 14.203125 45.796875 21.1875 
Q 45.796875 27.640625 41.28125 31.265625 
Q 36.765625 34.90625 28.71875 34.90625 
L 20.21875 34.90625 
L 20.21875 43.015625 
L 29.109375 43.015625 
Q 36.375 43.015625 40.234375 45.921875 
Q 44.09375 48.828125 44.09375 54.296875 
Q 44.09375 59.90625 40.109375 62.90625 
Q 36.140625 65.921875 28.71875 65.921875 
Q 24.65625 65.921875 20.015625 65.03125 
Q 15.375 64.15625 9.8125 62.3125 
L 9.8125 71.09375 
Q 15.4375 72.65625 20.34375 73.4375 
Q 25.25 74.21875 29.59375 74.21875 
Q 40.828125 74.21875 47.359375 69.109375 
Q 53.90625 64.015625 53.90625 55.328125 
Q 53.90625 49.265625 50.4375 45.09375 
Q 46.96875 40.921875 40.578125 39.3125 
z
" id="DejaVuSans-51"/>
      <path d="M 10.6875 12.40625 
L 21 12.40625 
L 21 0 
L 10.6875 0 
z
" id="DejaVuSans-46"/>
      <path d="M 8.203125 72.90625 
L 55.078125 72.90625 
L 55.078125 68.703125 
L 28.609375 0 
L 18.3125 0 
L 43.21875 64.59375 
L 8.203125 64.59375 
z
" id="DejaVuSans-55"/>
      <path d="M 31.78125 66.40625 
Q 24.171875 66.40625 20.328125 58.90625 
Q 16.5 51.421875 16.5 36.375 
Q 16.5 21.390625 20.328125 13.890625 
Q 24.171875 6.390625 31.78125 6.390625 
Q 39.453125 6.390625 43.28125 13.890625 
Q 47.125 21.390625 47.125 36.375 
Q 47.125 51.421875 43.28125 58.90625 
Q 39.453125 66.40625 31.78125 66.40625 
z
M 31.78125 74.21875 
Q 44.046875 74.21875 50.515625 64.515625 
Q 56.984375 54.828125 56.984375 36.375 
Q 56.984375 17.96875 50.515625 8.265625 
Q 44.046875 -1.421875 31.78125 -1.421875 
Q 19.53125 -1.421875 13.0625 8.265625 
Q 6.59375 17.96875 6.59375 36.375 
Q 6.59375 54.828125 13.0625 64.515625 
Q 19.53125 74.21875 31.78125 74.21875 
z
" id="DejaVuSans-48"/>
      <path d="M 72.703125 32.078125 
Q 68.453125 32.078125 66.03125 28.46875 
Q 63.625 24.859375 63.625 18.40625 
Q 63.625 12.0625 66.03125 8.421875 
Q 68.453125 4.78125 72.703125 4.78125 
Q 76.859375 4.78125 79.265625 8.421875 
Q 81.6875 12.0625 81.6875 18.40625 
Q 81.6875 24.8125 79.265625 28.4375 
Q 76.859375 32.078125 72.703125 32.078125 
z
M 72.703125 38.28125 
Q 80.421875 38.28125 84.953125 32.90625 
Q 89.5 27.546875 89.5 18.40625 
Q 89.5 9.28125 84.9375 3.921875 
Q 80.375 -1.421875 72.703125 -1.421875 
Q 64.890625 -1.421875 60.34375 3.921875 
Q 55.8125 9.28125 55.8125 18.40625 
Q 55.8125 27.59375 60.375 32.9375 
Q 64.9375 38.28125 72.703125 38.28125 
z
M 22.3125 68.015625 
Q 18.109375 68.015625 15.6875 64.375 
Q 13.28125 60.75 13.28125 54.390625 
Q 13.28125 47.953125 15.671875 44.328125 
Q 18.0625 40.71875 22.3125 40.71875 
Q 26.5625 40.71875 28.96875 44.328125 
Q 31.390625 47.953125 31.390625 54.390625 
Q 31.390625 60.6875 28.953125 64.34375 
Q 26.515625 68.015625 22.3125 68.015625 
z
M 66.40625 74.21875 
L 74.21875 74.21875 
L 28.609375 -1.421875 
L 20.796875 -1.421875 
z
M 22.3125 74.21875 
Q 30.03125 74.21875 34.609375 68.875 
Q 39.203125 63.53125 39.203125 54.390625 
Q 39.203125 45.171875 34.640625 39.84375 
Q 30.078125 34.515625 22.3125 34.515625 
Q 14.546875 34.515625 10.03125 39.859375 
Q 5.515625 45.21875 5.515625 54.390625 
Q 5.515625 63.484375 10.046875 68.84375 
Q 14.59375 74.21875 22.3125 74.21875 
z
" id="DejaVuSans-37"/>
     </defs>
     <use transform="translate(0 0.78125)" xlink:href="#CormorantInfant-Regular-73"/>
     <use transform="translate(33.199997 0.78125)" xlink:href="#CormorantInfant-Regular-110"/>
     <use transform="translate(84.899994 0.78125)" xlink:href="#CormorantInfant-Regular-102"/>
     <use transform="translate(115.399979 0.78125)" xlink:href="#CormorantInfant-Regular-111"/>
     <use transform="translate(163.299973 0.78125)" xlink:href="#CormorantInfant-Regular-114"/>
     <use transform="translate(199.699966 0.78125)" xlink:href="#CormorantInfant-Regular-109"/>
     <use transform="translate(275.999954 0.78125)" xlink:href="#CormorantInfant-Regular-97"/>
     <use transform="translate(324.999939 0.78125)" xlink:href="#CormorantInfant-Regular-116"/>
     <use transform="translate(358.799927 0.78125)" xlink:href="#CormorantInfant-Regular-105"/>
     <use transform="translate(386.099915 0.78125)" xlink:href="#CormorantInfant-Regular-111"/>
     <use transform="translate(433.999908 0.78125)" xlink:href="#CormorantInfant-Regular-110"/>
     <use transform="translate(485.699905 0.78125)" xlink:href="#CormorantInfant-Regular-32"/>
     <use transform="translate(509.099899 0.78125)" xlink:href="#CormorantInfant-Regular-108"/>
     <use transform="translate(534.899887 0.78125)" xlink:href="#CormorantInfant-Regular-111"/>
     <use transform="translate(582.799881 0.78125)" xlink:href="#CormorantInfant-Regular-115"/>
     <use transform="translate(616.599869 0.78125)" xlink:href="#CormorantInfant-Regular-116"/>
     <use transform="translate(650.399857 0.78125)" xlink:href="#CormorantInfant-Regular-32"/>
     <use transform="translate(673.79985 0.78125)" xlink:href="#CormorantInfant-Regular-61"/>
     <use transform="translate(720.599838 0.78125)" xlink:href="#CormorantInfant-Regular-32"/>
     <use transform="translate(743.999832 0.78125)" xlink:href="#DejaVuSans-51"/>
     <use transform="translate(807.622879 0.78125)" xlink:href="#DejaVuSans-46"/>
     <use transform="translate(831.659988 0.78125)" xlink:href="#DejaVuSans-55"/>
     <use transform="translate(895.283035 0.78125)" xlink:href="#DejaVuSans-48"/>
     <use transform="translate(958.906082 0.78125)" xlink:href="#DejaVuSans-37"/>
    </g>
   </g>
   <g id="legend_1">
    <g id="patch_7">
     <path d="M 373.346707 109.32 
L 453.17952 109.32 
Q 455.69952 109.32 455.69952 106.8 
L 455.69952 32.46 
Q 455.69952 29.94 453.17952 29.94 
L 373.346707 29.94 
Q 370.826707 29.94 370.826707 32.46 
L 370.826707 106.8 
Q 370.826707 109.32 373.346707 109.32 
z
" style="fill:#ffffff;opacity:0.8;stroke:#cccccc;stroke-linejoin:miter;stroke-width:0.16;"/>
    </g>
    <g id="line2d_17">
     <path d="M 375.866708 39.705 
L 401.066708 39.705 
" style="fill:none;stroke:#ff0000;stroke-linecap:square;stroke-width:2;"/>
    </g>
    <g id="line2d_18"/>
    <g id="text_14">
     <!-- $\nu_0$ -->
     <g style="fill:#3f3d46;" transform="translate(411.146708 44.115)scale(0.126 -0.126)">
      <defs>
       <path d="M 14.984375 0 
L 8.9375 54.6875 
L 18.609375 54.6875 
L 23.78125 8.796875 
Q 30.8125 14.84375 37.359375 23.25 
Q 42.28125 29.546875 43.5625 35.015625 
Q 44.140625 37.59375 43.890625 42.484375 
Q 43.65625 48.296875 39.75 54.6875 
L 48.828125 54.6875 
L 48.828125 54.6875 
Q 51.375 50.34375 52.390625 44.28125 
Q 53.375 38.71875 52.640625 34.90625 
Q 50.78125 25.34375 42.484375 16.796875 
Q 31.640625 5.671875 24.5625 0 
z
" id="DejaVuSans-Oblique-957"/>
      </defs>
      <use transform="translate(0 0.3125)" xlink:href="#DejaVuSans-Oblique-957"/>
      <use transform="translate(55.859375 -16.09375)scale(0.7)" xlink:href="#DejaVuSans-48"/>
     </g>
    </g>
    <g id="line2d_19">
     <path d="M 375.866708 58.605 
L 401.066708 58.605 
" style="fill:none;stroke:#3572c6;stroke-linecap:square;stroke-width:1.2;"/>
    </g>
    <g id="line2d_20"/>
    <g id="text_15">
     <!-- $\nu_{0 extr}$ -->
     <g style="fill:#3f3d46;" transform="translate(411.146708 63.015)scale(0.126 -0.126)">
      <defs>
       <path d="M 48.09375 32.234375 
Q 48.25 33.015625 48.3125 33.84375 
Q 48.390625 34.671875 48.390625 35.5 
Q 48.390625 41.453125 44.890625 44.921875 
Q 41.40625 48.390625 35.40625 48.390625 
Q 28.71875 48.390625 23.578125 44.15625 
Q 18.453125 39.9375 15.828125 32.171875 
z
M 55.90625 25.203125 
L 14.109375 25.203125 
Q 13.8125 23.34375 13.71875 22.265625 
Q 13.625 21.1875 13.625 20.40625 
Q 13.625 13.625 17.796875 9.90625 
Q 21.96875 6.203125 29.59375 6.203125 
Q 35.453125 6.203125 40.671875 7.515625 
Q 45.90625 8.84375 50.390625 11.375 
L 48.6875 2.484375 
Q 43.84375 0.53125 38.6875 -0.4375 
Q 33.546875 -1.421875 28.21875 -1.421875 
Q 16.84375 -1.421875 10.71875 4.015625 
Q 4.59375 9.46875 4.59375 19.484375 
Q 4.59375 28.03125 7.640625 35.375 
Q 10.6875 42.71875 16.609375 48.484375 
Q 20.40625 52.09375 25.65625 54.046875 
Q 30.90625 56 36.8125 56 
Q 46.09375 56 51.578125 50.4375 
Q 57.078125 44.875 57.078125 35.5 
Q 57.078125 33.25 56.78125 30.6875 
Q 56.5 28.125 55.90625 25.203125 
z
" id="DejaVuSans-Oblique-101"/>
       <path d="M 60.015625 54.6875 
L 34.90625 27.875 
L 50.296875 0 
L 39.984375 0 
L 28.421875 21.6875 
L 8.296875 0 
L -2.59375 0 
L 24.3125 28.8125 
L 10.015625 54.6875 
L 20.3125 54.6875 
L 30.8125 34.90625 
L 49.125 54.6875 
z
" id="DejaVuSans-Oblique-120"/>
       <path d="M 42.28125 54.6875 
L 40.921875 47.703125 
L 23 47.703125 
L 17.1875 18.015625 
Q 16.890625 16.359375 16.75 15.234375 
Q 16.609375 14.109375 16.609375 13.484375 
Q 16.609375 10.359375 18.484375 8.9375 
Q 20.359375 7.515625 24.515625 7.515625 
L 33.59375 7.515625 
L 32.078125 0 
L 23.484375 0 
Q 15.484375 0 11.546875 3.125 
Q 7.625 6.25 7.625 12.59375 
Q 7.625 13.71875 7.765625 15.0625 
Q 7.90625 16.40625 8.203125 18.015625 
L 14.015625 47.703125 
L 6.390625 47.703125 
L 7.8125 54.6875 
L 15.28125 54.6875 
L 18.3125 70.21875 
L 27.296875 70.21875 
L 24.3125 54.6875 
z
" id="DejaVuSans-Oblique-116"/>
       <path d="M 44.578125 46.390625 
Q 43.21875 47.125 41.453125 47.515625 
Q 39.703125 47.90625 37.703125 47.90625 
Q 30.515625 47.90625 25.140625 42.453125 
Q 19.78125 37.015625 18.015625 27.875 
L 12.5 0 
L 3.515625 0 
L 14.203125 54.6875 
L 23.1875 54.6875 
L 21.484375 46.1875 
Q 25.046875 50.921875 30 53.453125 
Q 34.96875 56 40.578125 56 
Q 42.046875 56 43.453125 55.828125 
Q 44.875 55.671875 46.296875 55.28125 
z
" id="DejaVuSans-Oblique-114"/>
      </defs>
      <use transform="translate(0 0.3125)" xlink:href="#DejaVuSans-Oblique-957"/>
      <use transform="translate(55.859375 -16.09375)scale(0.7)" xlink:href="#DejaVuSans-48"/>
      <use transform="translate(100.395508 -16.09375)scale(0.7)" xlink:href="#DejaVuSans-Oblique-101"/>
      <use transform="translate(143.461914 -16.09375)scale(0.7)" xlink:href="#DejaVuSans-Oblique-120"/>
      <use transform="translate(184.887695 -16.09375)scale(0.7)" xlink:href="#DejaVuSans-Oblique-116"/>
      <use transform="translate(212.333984 -16.09375)scale(0.7)" xlink:href="#DejaVuSans-Oblique-114"/>
     </g>
    </g>
    <g id="line2d_21">
     <path d="M 375.866708 77.505 
L 401.066708 77.505 
" style="fill:none;stroke:#008000;stroke-linecap:square;stroke-width:2;"/>
    </g>
    <g id="line2d_22"/>
    <g id="text_16">
     <!-- $\nu$ -->
     <g style="fill:#3f3d46;" transform="translate(411.146708 81.915)scale(0.126 -0.126)">
      <use transform="translate(0 0.3125)" xlink:href="#DejaVuSans-Oblique-957"/>
     </g>
    </g>
    <g id="line2d_23">
     <path d="M 375.866708 96.405 
L 401.066708 96.405 
" style="fill:none;stroke:#83a83b;stroke-linecap:square;stroke-width:2;"/>
    </g>
    <g id="line2d_24"/>
    <g id="text_17">
     <!-- residual -->
     <g style="fill:#3f3d46;" transform="translate(411.146708 100.815)scale(0.126 -0.126)">
      <defs>
       <path d="M 35.90625 5.59375 
Q 36.203125 5.59375 36.453125 5.25 
Q 36.703125 4.90625 36.5 4.59375 
Q 29.90625 -1.203125 21.90625 -1.203125 
Q 16.09375 -1.203125 12 1.5 
Q 7.90625 4.203125 5.75 8.59375 
Q 3.59375 13 3.59375 18 
Q 3.59375 23.90625 6.390625 28.84375 
Q 9.203125 33.796875 14.046875 36.640625 
Q 18.90625 39.5 24.703125 39.5 
Q 30.296875 39.5 33.296875 36.5 
Q 36.296875 33.5 36.296875 28.09375 
Q 36.296875 26.703125 36.046875 26.09375 
Q 35.796875 25.5 35.203125 25.5 
L 10.40625 25.40625 
Q 10.203125 23.203125 10.203125 21.796875 
Q 10.203125 13.09375 14.296875 7.6875 
Q 18.40625 2.296875 25.796875 2.296875 
Q 28.796875 2.296875 30.9375 3.09375 
Q 33.09375 3.90625 35.796875 5.59375 
z
M 21.40625 37.5 
Q 17.09375 37.5 14.296875 34.640625 
Q 11.5 31.796875 10.59375 26.703125 
L 29.59375 27.09375 
Q 29.59375 32.203125 27.390625 34.84375 
Q 25.203125 37.5 21.40625 37.5 
z
" id="CormorantInfant-Regular-101"/>
       <path d="M 50.59375 5.703125 
Q 51 5.703125 51.140625 5.203125 
Q 51.296875 4.703125 51 4.5 
L 40 -0.703125 
Q 39.40625 -0.90625 39.203125 -0.90625 
Q 37.90625 -0.90625 37 1.296875 
Q 36.09375 3.5 36 7.40625 
Q 32.296875 3.5 28.25 1.09375 
Q 24.203125 -1.296875 19.203125 -1.296875 
Q 15 -1.296875 11.453125 1.09375 
Q 7.90625 3.5 5.75 7.84375 
Q 3.59375 12.203125 3.59375 17.796875 
Q 3.59375 24.90625 7.09375 29.90625 
Q 10.59375 34.90625 15.890625 37.40625 
Q 21.203125 39.90625 26.40625 39.90625 
Q 31.703125 39.90625 36 37.296875 
L 36 59.703125 
Q 36 63.296875 35.25 64.890625 
Q 34.5 66.5 32.703125 66.5 
Q 31.40625 66.5 28.09375 65.09375 
L 27.90625 65.09375 
Q 27.5 65.09375 27.34375 65.546875 
Q 27.203125 66 27.5 66.203125 
L 40.203125 72.40625 
Q 40.40625 72.5 40.703125 72.5 
Q 40.90625 72.5 41.25 72.25 
Q 41.59375 72 41.59375 71.703125 
L 41.59375 11 
Q 41.59375 7.40625 42.4375 5.796875 
Q 43.296875 4.203125 45.203125 4.203125 
Q 48.09375 4.203125 50.40625 5.59375 
z
M 23.09375 2.296875 
Q 26.703125 2.296875 29.796875 4.046875 
Q 32.90625 5.796875 36 9 
L 36 31 
Q 33.59375 34.296875 30.6875 36.09375 
Q 27.796875 37.90625 23.703125 37.90625 
Q 17.40625 37.90625 13.75 33.453125 
Q 10.09375 29 10.09375 20.796875 
Q 10.09375 15.296875 11.796875 11.09375 
Q 13.5 6.90625 16.453125 4.59375 
Q 19.40625 2.296875 23.09375 2.296875 
z
" id="CormorantInfant-Regular-100"/>
       <path d="M 48.703125 5.703125 
Q 49.09375 5.703125 49.25 5.25 
Q 49.40625 4.796875 49 4.59375 
L 37.296875 -0.90625 
L 36.90625 -1 
Q 35.90625 -1 35 1.296875 
Q 34.09375 3.59375 34.09375 7.296875 
L 34.09375 7.703125 
Q 30.203125 3.296875 26.296875 1.25 
Q 22.40625 -0.796875 18.203125 -0.796875 
Q 13.203125 -0.796875 10.390625 2.34375 
Q 7.59375 5.5 7.59375 11.5 
L 7.59375 26.796875 
Q 7.59375 30.703125 6.890625 32.453125 
Q 6.203125 34.203125 4.59375 34.203125 
Q 3.203125 34.203125 1.203125 33.203125 
L 1.09375 33.203125 
Q 0.703125 33.203125 0.5 33.75 
Q 0.296875 34.296875 0.703125 34.40625 
L 11.796875 39.40625 
L 12.203125 39.5 
Q 12.5 39.5 12.84375 39.25 
Q 13.203125 39 13.203125 38.703125 
L 13.203125 14.796875 
Q 13.203125 3.203125 21.59375 3.203125 
Q 24.796875 3.203125 28.09375 4.84375 
Q 31.40625 6.5 34.09375 9.40625 
L 34.09375 26.796875 
Q 34.09375 30.796875 33.4375 32.5 
Q 32.796875 34.203125 31.09375 34.203125 
Q 29.703125 34.203125 27.703125 33.203125 
L 27.59375 33.203125 
Q 27.203125 33.203125 27.046875 33.75 
Q 26.90625 34.296875 27.296875 34.40625 
L 38.40625 39.40625 
L 38.703125 39.5 
Q 39 39.5 39.34375 39.25 
Q 39.703125 39 39.703125 38.703125 
L 39.703125 10.703125 
Q 39.703125 7.296875 40.5 5.796875 
Q 41.296875 4.296875 43.203125 4.296875 
Q 44.90625 4.296875 48.5 5.703125 
z
" id="CormorantInfant-Regular-117"/>
      </defs>
      <use xlink:href="#CormorantInfant-Regular-114"/>
      <use x="36.399994" xlink:href="#CormorantInfant-Regular-101"/>
      <use x="77.199982" xlink:href="#CormorantInfant-Regular-115"/>
      <use x="110.999969" xlink:href="#CormorantInfant-Regular-105"/>
      <use x="138.299957" xlink:href="#CormorantInfant-Regular-100"/>
      <use x="189.499954" xlink:href="#CormorantInfant-Regular-117"/>
      <use x="238.799942" xlink:href="#CormorantInfant-Regular-97"/>
      <use x="287.799927" xlink:href="#CormorantInfant-Regular-108"/>
     </g>
    </g>
   </g>
  </g>
 </g>
 <defs>
  <clipPath id="p3c1abb4c45">
   <rect height="349.15952" width="419.221395" x="42.778125" y="23.64"/>
  </clipPath>
 </defs>
</svg>
